<ttFont>
    <TTGlyph name=".notdef" xMin="213" yMin="0" xMax="1629" yMax="1416">
      <contour>
        <pt x="213" y="1416" on="1"/>
        <pt x="1629" y="1416" on="1"/>
        <pt x="1629" y="0" on="1"/>
        <pt x="213" y="0" on="1"/>
      </contour>
      <contour>
        <pt x="571" y="219" on="1"/>
        <pt x="918" y="587" on="1"/>
        <pt x="1280" y="219" on="1"/>
        <pt x="1402" y="341" on="1"/>
        <pt x="1039" y="709" on="1"/>
        <pt x="1402" y="1067" on="1"/>
        <pt x="1274" y="1191" on="1"/>
        <pt x="922" y="825" on="1"/>
        <pt x="565" y="1193" on="1"/>
        <pt x="442" y="1068" on="1"/>
        <pt x="801" y="705" on="1"/>
        <pt x="443" y="363" on="1"/>
      </contour>
    </TTGlyph>
    <TTGlyph name="A" xMin="-123" yMin="-1" xMax="1294" yMax="1530">
      <contour>
        <pt x="617" y="1530" on="1"/>
        <pt x="1067" y="1530" on="1"/>
        <pt x="1294" y="0" on="1"/>
        <pt x="939" y="-1" on="1"/>
        <pt x="906" y="286" on="1"/>
        <pt x="384" y="286" on="1"/>
        <pt x="267" y="0" on="1"/>
        <pt x="-123" y="-1" on="1"/>
      </contour>
      <contour>
        <pt x="879" y="527" on="1"/>
        <pt x="803" y="1202" on="1"/>
        <pt x="797" y="1321" on="1"/>
        <pt x="758" y="1202" on="1"/>
        <pt x="482" y="527" on="1"/>
      </contour>
    </TTGlyph>
    <TTGlyph name="AE" xMin="-121" yMin="0" xMax="1985" yMax="1530">
      <contour>
        <pt x="642" y="1328" on="1"/>
        <pt x="400" y="1360" on="1"/>
        <pt x="428" y="1530" on="1"/>
        <pt x="1985" y="1530" on="1"/>
        <pt x="1948" y="1255" on="1"/>
        <pt x="1386" y="1257" on="1"/>
        <pt x="1338" y="920" on="1"/>
        <pt x="1757" y="925" on="1"/>
        <pt x="1721" y="649" on="1"/>
        <pt x="1300" y="658" on="1"/>
        <pt x="1245" y="270" on="1"/>
        <pt x="1878" y="280" on="1"/>
        <pt x="1841" y="0" on="1"/>
        <pt x="852" y="0" on="1"/>
        <pt x="894" y="296" on="1"/>
        <pt x="429" y="296" on="1"/>
        <pt x="271" y="0" on="1"/>
        <pt x="-121" y="0" on="1"/>
      </contour>
      <contour>
        <pt x="930" y="547" on="1"/>
        <pt x="1034" y="1270" on="1"/>
        <pt x="954" y="1278" on="1"/>
        <pt x="563" y="547" on="1"/>
      </contour>
    </TTGlyph>
    <TTGlyph name="AEacute" xMin="-109" yMin="0" xMax="1997" yMax="2014">
      <component glyphName="acute.cap" x="1058" y="0" flags="0x1004"/>
      <component glyphName="AE" x="12" y="0" flags="0x1004"/>
    </TTGlyph>
    <TTGlyph name="Aacute" xMin="-123" yMin="-1" xMax="1294" yMax="2014">
      <component glyphName="A" x="0" y="0" flags="0x1204"/>
      <component glyphName="acute.cap" x="702" y="0" flags="0x1004"/>
    </TTGlyph>
    <TTGlyph name="Abreve" xMin="-123" yMin="-1" xMax="1294" yMax="2014">
      <component glyphName="A" x="0" y="0" flags="0x1204"/>
      <component glyphName="breve.cap" x="484" y="0" flags="0x1004"/>
    </TTGlyph>
    <TTGlyph name="Acircumflex" xMin="-123" yMin="-1" xMax="1294" yMax="2014">
      <component glyphName="A" x="0" y="0" flags="0x1204"/>
      <component glyphName="circumflex.cap" x="438" y="0" flags="0x1004"/>
    </TTGlyph>
    <TTGlyph name="Adieresis" xMin="-123" yMin="-1" xMax="1294" yMax="1995">
      <component glyphName="A" x="0" y="0" flags="0x1204"/>
      <component glyphName="dieresis.cap" x="262" y="0" flags="0x1004"/>
    </TTGlyph>
    <TTGlyph name="Agrave" xMin="-123" yMin="-1" xMax="1294" yMax="2014">
      <component glyphName="A" x="0" y="0" flags="0x1204"/>
      <component glyphName="grave.cap" x="460" y="0" flags="0x1004"/>
    </TTGlyph>
    <TTGlyph name="Amacron" xMin="-123" yMin="-1" xMax="1294" yMax="1916">
      <component glyphName="A" x="0" y="0" flags="0x1204"/>
      <component glyphName="macron.cap" x="513" y="0" flags="0x1004"/>
    </TTGlyph>
    <TTGlyph name="Aogonek" xMin="-111" yMin="-510" xMax="1306" yMax="1530">
      <contour>
        <pt x="1265" y="-387" on="1"/>
        <pt x="1146" y="-510" on="0"/>
        <pt x="936" y="-510" on="1"/>
        <pt x="842" y="-510" on="0"/>
        <pt x="781" y="-452" on="1"/>
        <pt x="723" y="-398" on="0"/>
        <pt x="723" y="-262" on="0"/>
        <pt x="781" y="-162" on="0"/>
        <pt x="824" y="-120" on="1"/>
        <pt x="906" y="-39" on="0"/>
        <pt x="996" y="-1" on="1"/>
        <pt x="951" y="-1" on="1"/>
        <pt x="918" y="286" on="1"/>
        <pt x="396" y="286" on="1"/>
        <pt x="279" y="0" on="1"/>
        <pt x="-111" y="-1" on="1"/>
        <pt x="629" y="1530" on="1"/>
        <pt x="1079" y="1530" on="1"/>
        <pt x="1306" y="0" on="1"/>
        <pt x="1250" y="0" on="1"/>
        <pt x="1086" y="-68" on="0"/>
        <pt x="1024" y="-154" on="1"/>
        <pt x="1004" y="-181" on="0"/>
        <pt x="1004" y="-205" on="1"/>
        <pt x="1004" y="-277" on="0"/>
        <pt x="1141" y="-277" on="0"/>
        <pt x="1224" y="-212" on="1"/>
      </contour>
      <contour>
        <pt x="891" y="527" on="1"/>
        <pt x="815" y="1202" on="1"/>
        <pt x="809" y="1321" on="1"/>
        <pt x="770" y="1202" on="1"/>
        <pt x="494" y="527" on="1"/>
      </contour>
    </TTGlyph>
    <TTGlyph name="Aring" xMin="-123" yMin="-1" xMax="1294" yMax="2014">
      <contour>
        <pt x="1186" y="1781" on="1"/>
        <pt x="1186" y="1616" on="0"/>
        <pt x="1044" y="1530" on="1"/>
        <pt x="1067" y="1530" on="1"/>
        <pt x="1294" y="0" on="1"/>
        <pt x="939" y="-1" on="1"/>
        <pt x="906" y="286" on="1"/>
        <pt x="384" y="286" on="1"/>
        <pt x="267" y="0" on="1"/>
        <pt x="-123" y="-1" on="1"/>
        <pt x="609" y="1514" on="1"/>
        <pt x="490" y="1575" on="0"/>
        <pt x="490" y="1711" on="1"/>
        <pt x="490" y="1870" on="0"/>
        <pt x="626" y="1950" on="1"/>
        <pt x="734" y="2014" on="0"/>
        <pt x="880" y="2014" on="1"/>
        <pt x="1095" y="2014" on="0"/>
        <pt x="1163" y="1884" on="1"/>
        <pt x="1186" y="1841" on="0"/>
      </contour>
      <contour>
        <pt x="908" y="1878" on="0"/>
        <pt x="826" y="1878" on="0"/>
        <pt x="766" y="1863" on="0"/>
        <pt x="742" y="1846" on="1"/>
        <pt x="686" y="1809" on="0"/>
        <pt x="686" y="1734" on="1"/>
        <pt x="686" y="1682" on="0"/>
        <pt x="730" y="1646" on="1"/>
        <pt x="773" y="1610" on="0"/>
        <pt x="814" y="1610" on="1"/>
        <pt x="895" y="1610" on="0"/>
        <pt x="991" y="1674" on="0"/>
        <pt x="991" y="1806" on="0"/>
      </contour>
      <contour>
        <pt x="879" y="527" on="1"/>
        <pt x="803" y="1202" on="1"/>
        <pt x="797" y="1321" on="1"/>
        <pt x="758" y="1202" on="1"/>
        <pt x="482" y="527" on="1"/>
      </contour>
    </TTGlyph>
    <TTGlyph name="Atilde" xMin="-123" yMin="-1" xMax="1344" yMax="1980">
      <component glyphName="A" x="0" y="0" flags="0x1204"/>
      <component glyphName="tilde.cap" x="447" y="0" flags="0x1004"/>
    </TTGlyph>
    <TTGlyph name="B" xMin="72" yMin="-16" xMax="1294" yMax="1545">
      <contour>
        <pt x="532" y="-16" on="1"/>
        <pt x="227" y="0" on="1"/>
        <pt x="72" y="0" on="1"/>
        <pt x="291" y="1530" on="1"/>
        <pt x="478" y="1530" on="1"/>
        <pt x="550" y="1532" on="0"/>
        <pt x="708" y="1545" on="0"/>
        <pt x="786" y="1545" on="1"/>
        <pt x="1294" y="1545" on="0"/>
        <pt x="1294" y="1198" on="1"/>
        <pt x="1294" y="961" on="0"/>
        <pt x="1125" y="856" on="1"/>
        <pt x="1068" y="820" on="0"/>
        <pt x="992" y="804" on="1"/>
        <pt x="1128" y="776" on="0"/>
        <pt x="1272" y="611" on="0"/>
        <pt x="1272" y="490" on="1"/>
        <pt x="1272" y="-16" on="0"/>
      </contour>
      <contour>
        <pt x="556" y="907" on="1"/>
        <pt x="601" y="904" on="0"/>
        <pt x="646" y="904" on="1"/>
        <pt x="784" y="904" on="0"/>
        <pt x="929" y="1024" on="0"/>
        <pt x="929" y="1158" on="1"/>
        <pt x="929" y="1277" on="0"/>
        <pt x="807" y="1294" on="1"/>
        <pt x="769" y="1300" on="0"/>
        <pt x="728" y="1300" on="1"/>
        <pt x="646" y="1300" on="0"/>
        <pt x="611" y="1297" on="1"/>
      </contour>
      <contour>
        <pt x="460" y="240" on="1"/>
        <pt x="502" y="233" on="0"/>
        <pt x="652" y="233" on="0"/>
        <pt x="767" y="252" on="0"/>
        <pt x="808" y="278" on="1"/>
        <pt x="896" y="334" on="0"/>
        <pt x="896" y="474" on="1"/>
        <pt x="896" y="585" on="0"/>
        <pt x="832" y="628" on="1"/>
        <pt x="773" y="669" on="0"/>
        <pt x="628" y="669" on="1"/>
        <pt x="555" y="669" on="0"/>
        <pt x="521" y="665" on="1"/>
      </contour>
    </TTGlyph>
    <TTGlyph name="C" xMin="83" yMin="-16" xMax="1247" yMax="1546">
      <contour>
        <pt x="1145" y="1141" on="1"/>
        <pt x="1023" y="1247" on="0"/>
        <pt x="858" y="1247" on="1"/>
        <pt x="584" y="1247" on="0"/>
        <pt x="485" y="921" on="1"/>
        <pt x="444" y="786" on="0"/>
        <pt x="444" y="535" on="0"/>
        <pt x="474" y="402" on="0"/>
        <pt x="507" y="358" on="1"/>
        <pt x="572" y="271" on="0"/>
        <pt x="719" y="271" on="1"/>
        <pt x="855" y="271" on="0"/>
        <pt x="975" y="331" on="1"/>
        <pt x="1007" y="347" on="0"/>
        <pt x="1027" y="361" on="1"/>
        <pt x="1073" y="112" on="1"/>
        <pt x="978" y="41" on="0"/>
        <pt x="780" y="0" on="1"/>
        <pt x="706" y="-16" on="0"/>
        <pt x="521" y="-16" on="0"/>
        <pt x="359" y="35" on="0"/>
        <pt x="239" y="124" on="0"/>
        <pt x="156" y="246" on="0"/>
        <pt x="130" y="317" on="1"/>
        <pt x="83" y="449" on="0"/>
        <pt x="83" y="749" on="0"/>
        <pt x="136" y="982" on="0"/>
        <pt x="237" y="1187" on="0"/>
        <pt x="380" y="1357" on="0"/>
        <pt x="470" y="1418" on="1"/>
        <pt x="660" y="1546" on="0"/>
        <pt x="895" y="1546" on="1"/>
        <pt x="1061" y="1546" on="0"/>
        <pt x="1194" y="1490" on="1"/>
        <pt x="1247" y="1476" on="1"/>
      </contour>
    </TTGlyph>
    <TTGlyph name="Cacute" xMin="95" yMin="-16" xMax="1261" yMax="2014">
      <component glyphName="C" x="12" y="0" flags="0x1004"/>
      <component glyphName="acute.cap" x="751" y="0" flags="0x1004"/>
    </TTGlyph>
    <TTGlyph name="Ccaron" xMin="95" yMin="-16" xMax="1305" yMax="2014">
      <component glyphName="C" x="12" y="0" flags="0x1004"/>
      <component glyphName="caron.cap" x="487" y="0" flags="0x1004"/>
    </TTGlyph>
    <TTGlyph name="Ccedilla" xMin="95" yMin="-469" xMax="1259" yMax="1546">
      <contour>
        <pt x="270" y="-231" on="1"/>
        <pt x="305" y="-247" on="0"/>
        <pt x="388" y="-247" on="0"/>
        <pt x="452" y="-237" on="0"/>
        <pt x="476" y="-224" on="1"/>
        <pt x="527" y="-195" on="0"/>
        <pt x="531" y="-122" on="1"/>
        <pt x="535" y="-62" on="0"/>
        <pt x="530" y="-8" on="1"/>
        <pt x="231" y="39" on="0"/>
        <pt x="134" y="343" on="1"/>
        <pt x="95" y="466" on="0"/>
        <pt x="95" y="749" on="0"/>
        <pt x="148" y="982" on="0"/>
        <pt x="249" y="1187" on="0"/>
        <pt x="392" y="1357" on="0"/>
        <pt x="482" y="1418" on="1"/>
        <pt x="672" y="1546" on="0"/>
        <pt x="907" y="1546" on="1"/>
        <pt x="1073" y="1546" on="0"/>
        <pt x="1206" y="1490" on="1"/>
        <pt x="1259" y="1476" on="1"/>
        <pt x="1157" y="1141" on="1"/>
        <pt x="1035" y="1247" on="0"/>
        <pt x="870" y="1247" on="1"/>
        <pt x="596" y="1247" on="0"/>
        <pt x="497" y="921" on="1"/>
        <pt x="456" y="786" on="0"/>
        <pt x="456" y="535" on="0"/>
        <pt x="486" y="402" on="0"/>
        <pt x="519" y="358" on="1"/>
        <pt x="584" y="271" on="0"/>
        <pt x="731" y="271" on="1"/>
        <pt x="867" y="271" on="0"/>
        <pt x="987" y="331" on="1"/>
        <pt x="1019" y="347" on="0"/>
        <pt x="1039" y="361" on="1"/>
        <pt x="1085" y="112" on="1"/>
        <pt x="1005" y="55" on="0"/>
        <pt x="857" y="14" on="1"/>
        <pt x="799" y="-2" on="0"/>
        <pt x="733" y="-10" on="1"/>
        <pt x="775" y="-131" on="0"/>
        <pt x="775" y="-286" on="0"/>
        <pt x="743" y="-371" on="0"/>
        <pt x="708" y="-402" on="1"/>
        <pt x="631" y="-469" on="0"/>
        <pt x="474" y="-469" on="1"/>
        <pt x="393" y="-469" on="0"/>
        <pt x="243" y="-440" on="0"/>
        <pt x="234" y="-434" on="1"/>
      </contour>
    </TTGlyph>
    <TTGlyph name="Ccircumflex" xMin="95" yMin="-16" xMax="1269" yMax="2014">
      <component glyphName="C" x="12" y="0" flags="0x1004"/>
      <component glyphName="circumflex.cap" x="487" y="0" flags="0x1004"/>
    </TTGlyph>
    <TTGlyph name="Cdotaccent" xMin="95" yMin="-16" xMax="1259" yMax="1975">
      <component glyphName="dotaccent.cap" x="704" y="0" flags="0x1004"/>
      <component glyphName="C" x="12" y="0" flags="0x1004"/>
    </TTGlyph>
    <TTGlyph name="D" xMin="72" yMin="-16" xMax="1415" yMax="1546">
      <contour>
        <pt x="447" y="1530" on="1"/>
        <pt x="834" y="1546" on="1"/>
        <pt x="1415" y="1546" on="0"/>
        <pt x="1415" y="932" on="1"/>
        <pt x="1415" y="535" on="0"/>
        <pt x="1207" y="272" on="1"/>
        <pt x="1063" y="91" on="0"/>
        <pt x="830" y="20" on="1"/>
        <pt x="712" y="-16" on="0"/>
        <pt x="569" y="-16" on="1"/>
        <pt x="523" y="-16" on="0"/>
        <pt x="448" y="-11" on="1"/>
        <pt x="283" y="0" on="0"/>
        <pt x="216" y="0" on="1"/>
        <pt x="72" y="0" on="1"/>
        <pt x="291" y="1530" on="1"/>
      </contour>
      <contour>
        <pt x="464" y="264" on="1"/>
        <pt x="527" y="243" on="0"/>
        <pt x="730" y="243" on="0"/>
        <pt x="892" y="354" on="0"/>
        <pt x="946" y="448" on="1"/>
        <pt x="1051" y="635" on="0"/>
        <pt x="1051" y="937" on="1"/>
        <pt x="1051" y="1138" on="0"/>
        <pt x="980" y="1215" on="1"/>
        <pt x="917" y="1285" on="0"/>
        <pt x="761" y="1285" on="1"/>
        <pt x="673" y="1285" on="0"/>
        <pt x="608" y="1272" on="1"/>
      </contour>
    </TTGlyph>
    <TTGlyph name="Dcaron" xMin="84" yMin="-16" xMax="1427" yMax="2014">
      <component glyphName="caron.cap" x="486" y="0" flags="0x1004"/>
      <component glyphName="D" x="12" y="0" flags="0x1004"/>
    </TTGlyph>
    <TTGlyph name="Dcroat" xMin="29" yMin="-14" xMax="1428" yMax="1548">
      <component glyphName="Eth" x="0" y="0" flags="0x1204"/>
    </TTGlyph>
    <TTGlyph name="Delta" xMin="-54" yMin="0" xMax="1311" yMax="1508">
      <contour>
        <pt x="-54" y="22" on="1"/>
        <pt x="710" y="1508" on="1"/>
        <pt x="742" y="1508" on="1"/>
        <pt x="1311" y="27" on="1"/>
        <pt x="1294" y="0" on="1"/>
        <pt x="-42" y="0" on="1"/>
      </contour>
      <contour>
        <pt x="908" y="288" on="1"/>
        <pt x="688" y="896" on="1"/>
        <pt x="392" y="288" on="1"/>
      </contour>
    </TTGlyph>
    <TTGlyph name="E" xMin="72" yMin="0" xMax="1205" yMax="1530">
      <contour>
        <pt x="291" y="1530" on="1"/>
        <pt x="1205" y="1530" on="1"/>
        <pt x="1168" y="1255" on="1"/>
        <pt x="606" y="1257" on="1"/>
        <pt x="558" y="920" on="1"/>
        <pt x="977" y="925" on="1"/>
        <pt x="941" y="649" on="1"/>
        <pt x="520" y="658" on="1"/>
        <pt x="465" y="270" on="1"/>
        <pt x="1098" y="280" on="1"/>
        <pt x="1061" y="0" on="1"/>
        <pt x="72" y="0" on="1"/>
      </contour>
    </TTGlyph>
    <TTGlyph name="Eacute" xMin="72" yMin="0" xMax="1205" yMax="2014">
      <component glyphName="acute.cap" x="640" y="0" flags="0x1004"/>
      <component glyphName="E" x="0" y="0" flags="0x1004"/>
    </TTGlyph>
    <TTGlyph name="Ebreve" xMin="72" yMin="0" xMax="1205" yMax="2014">
      <component glyphName="breve.cap" x="422" y="0" flags="0x1004"/>
      <component glyphName="E" x="0" y="0" flags="0x1004"/>
    </TTGlyph>
    <TTGlyph name="Ecaron" xMin="72" yMin="0" xMax="1205" yMax="2014">
      <component glyphName="caron.cap" x="376" y="0" flags="0x1004"/>
      <component glyphName="E" x="0" y="0" flags="0x1004"/>
    </TTGlyph>
    <TTGlyph name="Ecircumflex" xMin="72" yMin="0" xMax="1205" yMax="2014">
      <component glyphName="E" x="0" y="0" flags="0x1204"/>
      <component glyphName="circumflex.cap" x="376" y="0" flags="0x1004"/>
    </TTGlyph>
    <TTGlyph name="Edieresis" xMin="72" yMin="0" xMax="1205" yMax="1995">
      <component glyphName="dieresis.cap" x="200" y="0" flags="0x1004"/>
      <component glyphName="E" x="0" y="0" flags="0x1004"/>
    </TTGlyph>
    <TTGlyph name="Edotaccent" xMin="72" yMin="0" xMax="1205" yMax="1975">
      <component glyphName="dotaccent.cap" x="593" y="0" flags="0x1004"/>
      <component glyphName="E" x="0" y="0" flags="0x1004"/>
    </TTGlyph>
    <TTGlyph name="Egrave" xMin="72" yMin="0" xMax="1205" yMax="2014">
      <component glyphName="grave.cap" x="398" y="0" flags="0x1004"/>
      <component glyphName="E" x="0" y="0" flags="0x1004"/>
    </TTGlyph>
    <TTGlyph name="Emacron" xMin="72" yMin="0" xMax="1205" yMax="1916">
      <component glyphName="macron.cap" x="451" y="0" flags="0x1004"/>
      <component glyphName="E" x="0" y="0" flags="0x1004"/>
    </TTGlyph>
    <TTGlyph name="Eng" xMin="84" yMin="-414" xMax="1497" yMax="1530">
      <contour>
        <pt x="303" y="1530" on="1"/>
        <pt x="610" y="1530" on="1"/>
        <pt x="966" y="738" on="1"/>
        <pt x="1045" y="478" on="1"/>
        <pt x="1058" y="738" on="1"/>
        <pt x="1155" y="1530" on="1"/>
        <pt x="1497" y="1530" on="1"/>
        <pt x="1278" y="0" on="1"/>
        <pt x="1250" y="-156" on="0"/>
        <pt x="1104" y="-270" on="1"/>
        <pt x="940" y="-397" on="0"/>
        <pt x="695" y="-414" on="1"/>
        <pt x="638" y="-286" on="1"/>
        <pt x="878" y="-190" on="0"/>
        <pt x="934" y="-54" on="1"/>
        <pt x="953" y="-9" on="0"/>
        <pt x="961" y="47" on="1"/>
        <pt x="633" y="833" on="1"/>
        <pt x="534" y="1108" on="1"/>
        <pt x="537" y="833" on="1"/>
        <pt x="422" y="0" on="1"/>
        <pt x="84" y="0" on="1"/>
      </contour>
    </TTGlyph>
    <TTGlyph name="Eogonek" xMin="84" yMin="-510" xMax="1217" yMax="1530">
      <contour>
        <pt x="1095" y="-387" on="1"/>
        <pt x="976" y="-510" on="0"/>
        <pt x="766" y="-510" on="1"/>
        <pt x="672" y="-510" on="0"/>
        <pt x="611" y="-452" on="1"/>
        <pt x="553" y="-398" on="0"/>
        <pt x="553" y="-262" on="0"/>
        <pt x="612" y="-161" on="0"/>
        <pt x="654" y="-119" on="1"/>
        <pt x="736" y="-38" on="0"/>
        <pt x="828" y="0" on="1"/>
        <pt x="84" y="0" on="1"/>
        <pt x="303" y="1530" on="1"/>
        <pt x="1217" y="1530" on="1"/>
        <pt x="1180" y="1255" on="1"/>
        <pt x="618" y="1257" on="1"/>
        <pt x="570" y="920" on="1"/>
        <pt x="989" y="925" on="1"/>
        <pt x="953" y="649" on="1"/>
        <pt x="532" y="658" on="1"/>
        <pt x="477" y="270" on="1"/>
        <pt x="1110" y="280" on="1"/>
        <pt x="1073" y="1" on="1"/>
        <pt x="1080" y="0" on="1"/>
        <pt x="916" y="-68" on="0"/>
        <pt x="854" y="-154" on="1"/>
        <pt x="834" y="-181" on="0"/>
        <pt x="834" y="-205" on="1"/>
        <pt x="834" y="-277" on="0"/>
        <pt x="971" y="-277" on="0"/>
        <pt x="1054" y="-212" on="1"/>
      </contour>
    </TTGlyph>
    <TTGlyph name="Eth" xMin="29" yMin="-14" xMax="1428" yMax="1548">
      <contour>
        <pt x="460" y="1532" on="1"/>
        <pt x="847" y="1548" on="1"/>
        <pt x="1428" y="1548" on="0"/>
        <pt x="1428" y="934" on="1"/>
        <pt x="1428" y="537" on="0"/>
        <pt x="1220" y="274" on="1"/>
        <pt x="1076" y="93" on="0"/>
        <pt x="844" y="22" on="1"/>
        <pt x="725" y="-14" on="0"/>
        <pt x="582" y="-14" on="1"/>
        <pt x="536" y="-14" on="0"/>
        <pt x="461" y="-9" on="1"/>
        <pt x="296" y="2" on="0"/>
        <pt x="229" y="2" on="1"/>
        <pt x="85" y="2" on="1"/>
        <pt x="181" y="673" on="1"/>
        <pt x="29" y="673" on="1"/>
        <pt x="54" y="924" on="1"/>
        <pt x="217" y="924" on="1"/>
        <pt x="304" y="1532" on="1"/>
      </contour>
      <contour>
        <pt x="477" y="266" on="1"/>
        <pt x="540" y="245" on="0"/>
        <pt x="743" y="245" on="0"/>
        <pt x="905" y="356" on="0"/>
        <pt x="958" y="450" on="1"/>
        <pt x="1064" y="637" on="0"/>
        <pt x="1064" y="939" on="1"/>
        <pt x="1064" y="1140" on="0"/>
        <pt x="994" y="1217" on="1"/>
        <pt x="930" y="1287" on="0"/>
        <pt x="774" y="1287" on="1"/>
        <pt x="686" y="1287" on="0"/>
        <pt x="621" y="1274" on="1"/>
        <pt x="571" y="924" on="1"/>
        <pt x="865" y="924" on="1"/>
        <pt x="839" y="673" on="1"/>
        <pt x="535" y="673" on="1"/>
      </contour>
    </TTGlyph>
    <TTGlyph name="Euro" xMin="23" yMin="-16" xMax="1309" yMax="1546">
      <contour>
        <pt x="578" y="524" on="1"/>
        <pt x="607" y="216" on="0"/>
        <pt x="843" y="216" on="1"/>
        <pt x="970" y="216" on="0"/>
        <pt x="1086" y="294" on="1"/>
        <pt x="1120" y="317" on="0"/>
        <pt x="1150" y="340" on="1"/>
        <pt x="1220" y="139" on="1"/>
        <pt x="1127" y="35" on="0"/>
        <pt x="924" y="-3" on="1"/>
        <pt x="855" y="-16" on="0"/>
        <pt x="638" y="-16" on="0"/>
        <pt x="438" y="75" on="0"/>
        <pt x="372" y="150" on="1"/>
        <pt x="250" y="291" on="0"/>
        <pt x="225" y="524" on="1"/>
        <pt x="23" y="524" on="1"/>
        <pt x="42" y="706" on="1"/>
        <pt x="221" y="706" on="1"/>
        <pt x="225" y="785" on="0"/>
        <pt x="239" y="860" on="1"/>
        <pt x="68" y="860" on="1"/>
        <pt x="87" y="1042" on="1"/>
        <pt x="290" y="1042" on="1"/>
        <pt x="380" y="1275" on="0"/>
        <pt x="756" y="1546" on="0"/>
        <pt x="995" y="1546" on="1"/>
        <pt x="1140" y="1546" on="0"/>
        <pt x="1250" y="1510" on="1"/>
        <pt x="1309" y="1492" on="1"/>
        <pt x="1235" y="1223" on="1"/>
        <pt x="1199" y="1263" on="0"/>
        <pt x="1073" y="1285" on="1"/>
        <pt x="1033" y="1292" on="0"/>
        <pt x="991" y="1292" on="1"/>
        <pt x="880" y="1292" on="0"/>
        <pt x="712" y="1157" on="0"/>
        <pt x="658" y="1042" on="1"/>
        <pt x="1122" y="1042" on="1"/>
        <pt x="1103" y="860" on="1"/>
        <pt x="599" y="860" on="1"/>
        <pt x="585" y="793" on="0"/>
        <pt x="578" y="706" on="1"/>
        <pt x="1083" y="706" on="1"/>
        <pt x="1068" y="524" on="1"/>
      </contour>
    </TTGlyph>
    <TTGlyph name="F" xMin="72" yMin="0" xMax="1148" yMax="1530">
      <contour>
        <pt x="291" y="1530" on="1"/>
        <pt x="1148" y="1530" on="1"/>
        <pt x="1106" y="1255" on="1"/>
        <pt x="606" y="1259" on="1"/>
        <pt x="553" y="887" on="1"/>
        <pt x="981" y="893" on="1"/>
        <pt x="945" y="602" on="1"/>
        <pt x="513" y="609" on="1"/>
        <pt x="426" y="0" on="1"/>
        <pt x="72" y="0" on="1"/>
      </contour>
    </TTGlyph>
    <TTGlyph name="G" xMin="74" yMin="-16" xMax="1348" yMax="1546">
      <contour>
        <pt x="433" y="623" on="1"/>
        <pt x="433" y="249" on="0"/>
        <pt x="730" y="249" on="1"/>
        <pt x="856" y="249" on="0"/>
        <pt x="929" y="282" on="1"/>
        <pt x="974" y="570" on="1"/>
        <pt x="726" y="570" on="1"/>
        <pt x="759" y="850" on="1"/>
        <pt x="1335" y="850" on="1"/>
        <pt x="1228" y="79" on="1"/>
        <pt x="1187" y="75" on="0"/>
        <pt x="1133" y="60" on="1"/>
        <pt x="1031" y="32" on="1"/>
        <pt x="854" y="-16" on="0"/>
        <pt x="563" y="-16" on="0"/>
        <pt x="385" y="35" on="0"/>
        <pt x="251" y="123" on="0"/>
        <pt x="158" y="243" on="0"/>
        <pt x="129" y="312" on="1"/>
        <pt x="74" y="443" on="0"/>
        <pt x="74" y="817" on="0"/>
        <pt x="200" y="1163" on="0"/>
        <pt x="420" y="1410" on="0"/>
        <pt x="715" y="1546" on="0"/>
        <pt x="884" y="1546" on="1"/>
        <pt x="1085" y="1546" on="0"/>
        <pt x="1253" y="1490" on="1"/>
        <pt x="1348" y="1457" on="1"/>
        <pt x="1274" y="1135" on="1"/>
        <pt x="1174" y="1207" on="0"/>
        <pt x="1010" y="1243" on="1"/>
        <pt x="946" y="1257" on="0"/>
        <pt x="793" y="1257" on="0"/>
        <pt x="662" y="1203" on="0"/>
        <pt x="564" y="1111" on="0"/>
        <pt x="496" y="987" on="0"/>
        <pt x="474" y="917" on="1"/>
        <pt x="433" y="782" on="0"/>
      </contour>
    </TTGlyph>
    <TTGlyph name="Gbreve" xMin="86" yMin="-16" xMax="1360" yMax="2014">
      <component glyphName="breve.cap" x="591" y="0" flags="0x1004"/>
      <component glyphName="G" x="12" y="0" flags="0x1004"/>
    </TTGlyph>
    <TTGlyph name="Gcircumflex" xMin="86" yMin="-16" xMax="1360" yMax="2014">
      <component glyphName="G" x="12" y="0" flags="0x1004"/>
      <component glyphName="circumflex.cap" x="545" y="0" flags="0x1004"/>
    </TTGlyph>
    <TTGlyph name="Gcommaaccent" xMin="86" yMin="-560" xMax="1360" yMax="1546">
      <component glyphName="commaaccent" x="572" y="0" flags="0x1004"/>
      <component glyphName="G" x="12" y="0" flags="0x1004"/>
    </TTGlyph>
    <TTGlyph name="Gdotaccent" xMin="86" yMin="-16" xMax="1360" yMax="1975">
      <component glyphName="dotaccent.cap" x="762" y="0" flags="0x1004"/>
      <component glyphName="G" x="12" y="0" flags="0x1004"/>
    </TTGlyph>
    <TTGlyph name="H" xMin="60" yMin="0" xMax="1473" yMax="1530">
      <contour>
        <pt x="279" y="1530" on="1"/>
        <pt x="633" y="1530" on="1"/>
        <pt x="538" y="866" on="1"/>
        <pt x="1020" y="866" on="1"/>
        <pt x="1115" y="1530" on="1"/>
        <pt x="1473" y="1530" on="1"/>
        <pt x="1254" y="0" on="1"/>
        <pt x="896" y="0" on="1"/>
        <pt x="985" y="622" on="1"/>
        <pt x="503" y="622" on="1"/>
        <pt x="414" y="0" on="1"/>
        <pt x="60" y="0" on="1"/>
      </contour>
    </TTGlyph>
    <TTGlyph name="Hbar" xMin="-1" yMin="0" xMax="1639" yMax="1530">
      <contour>
        <pt x="215" y="917" on="1"/>
        <pt x="-1" y="917" on="1"/>
        <pt x="24" y="1168" on="1"/>
        <pt x="251" y="1168" on="1"/>
        <pt x="303" y="1530" on="1"/>
        <pt x="657" y="1530" on="1"/>
        <pt x="605" y="1168" on="1"/>
        <pt x="1087" y="1168" on="1"/>
        <pt x="1139" y="1530" on="1"/>
        <pt x="1497" y="1530" on="1"/>
        <pt x="1445" y="1168" on="1"/>
        <pt x="1639" y="1168" on="1"/>
        <pt x="1613" y="917" on="1"/>
        <pt x="1409" y="917" on="1"/>
        <pt x="1278" y="0" on="1"/>
        <pt x="920" y="0" on="1"/>
        <pt x="983" y="441" on="1"/>
        <pt x="501" y="441" on="1"/>
        <pt x="438" y="0" on="1"/>
        <pt x="84" y="0" on="1"/>
      </contour>
      <contour>
        <pt x="1019" y="692" on="1"/>
        <pt x="1051" y="917" on="1"/>
        <pt x="569" y="917" on="1"/>
        <pt x="537" y="692" on="1"/>
      </contour>
    </TTGlyph>
    <TTGlyph name="Hcircumflex" xMin="72" yMin="0" xMax="1485" yMax="2014">
      <component glyphName="H" x="12" y="0" flags="0x1004"/>
      <component glyphName="circumflex.cap" x="496" y="0" flags="0x1004"/>
    </TTGlyph>
    <TTGlyph name="I" xMin="98" yMin="0" xMax="671" yMax="1530">
      <contour>
        <pt x="317" y="1530" on="1"/>
        <pt x="671" y="1530" on="1"/>
        <pt x="452" y="0" on="1"/>
        <pt x="98" y="0" on="1"/>
      </contour>
    </TTGlyph>
    <TTGlyph name="IJ" xMin="98" yMin="-357" xMax="1385" yMax="1530">
      <component glyphName="I" x="0" y="0" flags="0x1004"/>
      <component glyphName="J" x="718" y="0" flags="0x1004"/>
    </TTGlyph>
    <TTGlyph name="Iacute" xMin="98" yMin="0" xMax="891" yMax="2014">
      <component glyphName="I" x="0" y="0" flags="0x1204"/>
      <component glyphName="acute.cap" x="381" y="0" flags="0x1004"/>
    </TTGlyph>
    <TTGlyph name="Ibreve" xMin="98" yMin="0" xMax="888" yMax="2014">
      <component glyphName="I" x="0" y="0" flags="0x1204"/>
      <component glyphName="breve.cap" x="163" y="0" flags="0x1004"/>
    </TTGlyph>
    <TTGlyph name="Icircumflex" xMin="98" yMin="0" xMax="899" yMax="2014">
      <component glyphName="I" x="0" y="0" flags="0x1204"/>
      <component glyphName="circumflex.cap" x="117" y="0" flags="0x1004"/>
    </TTGlyph>
    <TTGlyph name="Idieresis" xMin="98" yMin="0" xMax="927" yMax="1995">
      <component glyphName="I" x="0" y="0" flags="0x1204"/>
      <component glyphName="dieresis.cap" x="-58" y="0" flags="0x1004"/>
    </TTGlyph>
    <TTGlyph name="Idotaccent" xMin="98" yMin="0" xMax="722" yMax="1975">
      <component glyphName="I" x="0" y="0" flags="0x1204"/>
      <component glyphName="dotaccent.cap" x="334" y="0" flags="0x1004"/>
    </TTGlyph>
    <TTGlyph name="Igrave" xMin="98" yMin="0" xMax="671" yMax="2014">
      <component glyphName="I" x="0" y="0" flags="0x1204"/>
      <component glyphName="grave.cap" x="139" y="0" flags="0x1004"/>
    </TTGlyph>
    <TTGlyph name="Imacron" xMin="98" yMin="0" xMax="825" yMax="1916">
      <component glyphName="I" x="0" y="0" flags="0x1204"/>
      <component glyphName="macron.cap" x="192" y="0" flags="0x1004"/>
    </TTGlyph>
    <TTGlyph name="Iogonek" xMin="-166" yMin="-510" xMax="671" yMax="1530">
      <contour>
        <pt x="376" y="-387" on="1"/>
        <pt x="257" y="-510" on="0"/>
        <pt x="47" y="-510" on="1"/>
        <pt x="-47" y="-510" on="0"/>
        <pt x="-108" y="-452" on="1"/>
        <pt x="-166" y="-398" on="0"/>
        <pt x="-166" y="-262" on="0"/>
        <pt x="-107" y="-161" on="0"/>
        <pt x="-64" y="-119" on="1"/>
        <pt x="17" y="-38" on="0"/>
        <pt x="109" y="0" on="1"/>
        <pt x="98" y="0" on="1"/>
        <pt x="317" y="1530" on="1"/>
        <pt x="671" y="1530" on="1"/>
        <pt x="452" y="0" on="1"/>
        <pt x="361" y="0" on="1"/>
        <pt x="197" y="-68" on="0"/>
        <pt x="134" y="-154" on="1"/>
        <pt x="115" y="-181" on="0"/>
        <pt x="115" y="-205" on="1"/>
        <pt x="115" y="-277" on="0"/>
        <pt x="252" y="-277" on="0"/>
        <pt x="335" y="-212" on="1"/>
      </contour>
    </TTGlyph>
    <TTGlyph name="Itilde" xMin="98" yMin="0" xMax="1023" yMax="1980">
      <component glyphName="I" x="0" y="0" flags="0x1204"/>
      <component glyphName="tilde.cap" x="126" y="0" flags="0x1004"/>
    </TTGlyph>
    <TTGlyph name="J" xMin="-180" yMin="-357" xMax="667" yMax="1530">
      <contour>
        <pt x="108" y="110" on="1"/>
        <pt x="123" y="184" on="0"/>
        <pt x="161" y="414" on="0"/>
        <pt x="197" y="662" on="0"/>
        <pt x="214" y="792" on="1"/>
        <pt x="311" y="1530" on="1"/>
        <pt x="667" y="1530" on="1"/>
        <pt x="496" y="344" on="1"/>
        <pt x="461" y="114" on="0"/>
        <pt x="450" y="75" on="1"/>
        <pt x="391" y="-161" on="0"/>
        <pt x="214" y="-269" on="1"/>
        <pt x="70" y="-357" on="0"/>
        <pt x="-136" y="-357" on="1"/>
        <pt x="-180" y="-239" on="1"/>
        <pt x="-60" y="-209" on="0"/>
        <pt x="18" y="-110" on="1"/>
        <pt x="81" y="-27" on="0"/>
      </contour>
    </TTGlyph>
    <TTGlyph name="Jcircumflex" xMin="-168" yMin="-357" xMax="889" yMax="2014">
      <component glyphName="J" x="12" y="0" flags="0x1004"/>
      <component glyphName="circumflex.cap" x="107" y="0" flags="0x1004"/>
    </TTGlyph>
    <TTGlyph name="K" xMin="72" yMin="-1" xMax="1480" yMax="1530">
      <contour>
        <pt x="291" y="1530" on="1"/>
        <pt x="645" y="1530" on="1"/>
        <pt x="550" y="868" on="1"/>
        <pt x="1076" y="1530" on="1"/>
        <pt x="1480" y="1530" on="1"/>
        <pt x="873" y="857" on="1"/>
        <pt x="1187" y="239" on="0"/>
        <pt x="1278" y="72" on="0"/>
        <pt x="1324" y="-1" on="1"/>
        <pt x="907" y="1" on="1"/>
        <pt x="901" y="10" on="0"/>
        <pt x="888" y="38" on="1"/>
        <pt x="767" y="306" on="1"/>
        <pt x="641" y="598" on="1"/>
        <pt x="487" y="427" on="1"/>
        <pt x="426" y="0" on="1"/>
        <pt x="72" y="0" on="1"/>
      </contour>
    </TTGlyph>
    <TTGlyph name="Kcommaaccent" xMin="84" yMin="-558" xMax="1492" yMax="1530">
      <component glyphName="commaaccent" x="469" y="2" flags="0x1004"/>
      <component glyphName="K" x="12" y="0" flags="0x1004"/>
    </TTGlyph>
    <TTGlyph name="L" xMin="72" yMin="0" xMax="962" yMax="1530">
      <contour>
        <pt x="291" y="1530" on="1"/>
        <pt x="645" y="1530" on="1"/>
        <pt x="465" y="277" on="1"/>
        <pt x="962" y="288" on="1"/>
        <pt x="920" y="0" on="1"/>
        <pt x="72" y="0" on="1"/>
      </contour>
    </TTGlyph>
    <TTGlyph name="Lacute" xMin="84" yMin="0" xMax="974" yMax="2016">
      <component glyphName="acute.cap" x="400" y="2" flags="0x1004"/>
      <component glyphName="L" x="12" y="0" flags="0x1004"/>
    </TTGlyph>
    <TTGlyph name="Lcaron" xMin="84" yMin="0" xMax="1146" yMax="1653">
      <component glyphName="L" x="12" y="0" flags="0x1004"/>
      <component glyphName="caronvertical" x="648" y="-29" flags="0x1004"/>
    </TTGlyph>
    <TTGlyph name="Lcommaaccent" xMin="84" yMin="-558" xMax="974" yMax="1530">
      <component glyphName="commaaccent" x="281" y="2" flags="0x1004"/>
      <component glyphName="L" x="12" y="0" flags="0x1004"/>
    </TTGlyph>
    <TTGlyph name="Ldot" xMin="84" yMin="0" xMax="1173" yMax="1530">
      <component glyphName="L" x="12" y="0" flags="0x1004"/>
      <component glyphName="period" x="774" y="776" flags="0x1004"/>
    </TTGlyph>
    <TTGlyph name="Lslash" xMin="-31" yMin="2" xMax="984" yMax="1532">
      <contour>
        <pt x="161" y="538" on="1"/>
        <pt x="27" y="493" on="1"/>
        <pt x="-31" y="677" on="1"/>
        <pt x="192" y="755" on="1"/>
        <pt x="303" y="1532" on="1"/>
        <pt x="657" y="1532" on="1"/>
        <pt x="564" y="885" on="1"/>
        <pt x="927" y="1013" on="1"/>
        <pt x="984" y="820" on="1"/>
        <pt x="532" y="665" on="1"/>
        <pt x="477" y="279" on="1"/>
        <pt x="974" y="290" on="1"/>
        <pt x="932" y="2" on="1"/>
        <pt x="84" y="2" on="1"/>
      </contour>
    </TTGlyph>
    <TTGlyph name="M" xMin="-31" yMin="-18" xMax="1897" yMax="1530">
      <contour>
        <pt x="388" y="1530" on="1"/>
        <pt x="903" y="1530" on="1"/>
        <pt x="971" y="477" on="1"/>
        <pt x="977" y="252" on="1"/>
        <pt x="1025" y="477" on="1"/>
        <pt x="1380" y="1530" on="1"/>
        <pt x="1897" y="1530" on="1"/>
        <pt x="1873" y="0" on="1"/>
        <pt x="1520" y="0" on="1"/>
        <pt x="1609" y="1139" on="1"/>
        <pt x="1636" y="1373" on="1"/>
        <pt x="1562" y="1139" on="1"/>
        <pt x="1125" y="-3" on="1"/>
        <pt x="736" y="-18" on="1"/>
        <pt x="616" y="1139" on="1"/>
        <pt x="614" y="1373" on="1"/>
        <pt x="566" y="1139" on="1"/>
        <pt x="318" y="0" on="1"/>
        <pt x="-31" y="0" on="1"/>
      </contour>
    </TTGlyph>
    <TTGlyph name="N" xMin="72" yMin="0" xMax="1485" yMax="1530">
      <contour>
        <pt x="291" y="1530" on="1"/>
        <pt x="598" y="1530" on="1"/>
        <pt x="954" y="738" on="1"/>
        <pt x="1033" y="478" on="1"/>
        <pt x="1046" y="738" on="1"/>
        <pt x="1143" y="1530" on="1"/>
        <pt x="1485" y="1530" on="1"/>
        <pt x="1266" y="0" on="1"/>
        <pt x="969" y="0" on="1"/>
        <pt x="621" y="833" on="1"/>
        <pt x="522" y="1108" on="1"/>
        <pt x="525" y="833" on="1"/>
        <pt x="410" y="0" on="1"/>
        <pt x="72" y="0" on="1"/>
      </contour>
    </TTGlyph>
    <TTGlyph name="Nacute" xMin="84" yMin="0" xMax="1497" yMax="2014">
      <component glyphName="acute.cap" x="757" y="0" flags="0x1004"/>
      <component glyphName="N" x="12" y="0" flags="0x1004"/>
    </TTGlyph>
    <TTGlyph name="Ncaron" xMin="84" yMin="0" xMax="1497" yMax="2014">
      <component glyphName="caron.cap" x="493" y="0" flags="0x1004"/>
      <component glyphName="N" x="12" y="0" flags="0x1004"/>
    </TTGlyph>
    <TTGlyph name="Ncommaaccent" xMin="84" yMin="-560" xMax="1497" yMax="1530">
      <component glyphName="commaaccent" x="526" y="0" flags="0x1004"/>
      <component glyphName="N" x="12" y="0" flags="0x1004"/>
    </TTGlyph>
    <TTGlyph name="Ntilde" xMin="84" yMin="0" xMax="1497" yMax="1980">
      <component glyphName="tilde.cap" x="502" y="0" flags="0x1004"/>
      <component glyphName="N" x="12" y="0" flags="0x1004"/>
    </TTGlyph>
    <TTGlyph name="O" xMin="66" yMin="-16" xMax="1364" yMax="1546">
      <contour>
        <pt x="135" y="240" on="0"/>
        <pt x="66" y="456" on="0"/>
        <pt x="66" y="708" on="0"/>
        <pt x="112" y="953" on="0"/>
        <pt x="201" y="1169" on="0"/>
        <pt x="332" y="1347" on="0"/>
        <pt x="416" y="1411" on="1"/>
        <pt x="592" y="1546" on="0"/>
        <pt x="821" y="1546" on="1"/>
        <pt x="1080" y="1546" on="0"/>
        <pt x="1228" y="1368" on="1"/>
        <pt x="1364" y="1204" on="0"/>
        <pt x="1364" y="946" on="1"/>
        <pt x="1364" y="542" on="0"/>
        <pt x="1166" y="270" on="1"/>
        <pt x="1033" y="88" on="0"/>
        <pt x="835" y="19" on="1"/>
        <pt x="734" y="-16" on="0"/>
        <pt x="480" y="-16" on="0"/>
        <pt x="273" y="78" on="0"/>
      </contour>
      <contour>
        <pt x="513" y="284" on="0"/>
        <pt x="593" y="250" on="0"/>
        <pt x="702" y="250" on="0"/>
        <pt x="798" y="308" on="0"/>
        <pt x="876" y="407" on="0"/>
        <pt x="937" y="541" on="0"/>
        <pt x="958" y="618" on="1"/>
        <pt x="1000" y="770" on="0"/>
        <pt x="1000" y="1034" on="0"/>
        <pt x="972" y="1167" on="0"/>
        <pt x="944" y="1207" on="1"/>
        <pt x="894" y="1280" on="0"/>
        <pt x="783" y="1280" on="1"/>
        <pt x="678" y="1280" on="0"/>
        <pt x="592" y="1170" on="1"/>
        <pt x="476" y="1021" on="0"/>
        <pt x="440" y="752" on="1"/>
        <pt x="430" y="672" on="0"/>
        <pt x="430" y="497" on="0"/>
        <pt x="458" y="364" on="0"/>
      </contour>
    </TTGlyph>
    <TTGlyph name="OE" xMin="66" yMin="-16" xMax="2212" yMax="1546">
      <contour>
        <pt x="1107" y="199" on="1"/>
        <pt x="907" y="-16" on="0"/>
        <pt x="618" y="-16" on="1"/>
        <pt x="353" y="-16" on="0"/>
        <pt x="204" y="159" on="1"/>
        <pt x="66" y="321" on="0"/>
        <pt x="66" y="578" on="1"/>
        <pt x="66" y="986" on="0"/>
        <pt x="266" y="1258" on="1"/>
        <pt x="401" y="1441" on="0"/>
        <pt x="601" y="1510" on="1"/>
        <pt x="703" y="1546" on="0"/>
        <pt x="978" y="1546" on="0"/>
        <pt x="1200" y="1419" on="0"/>
        <pt x="1267" y="1314" on="1"/>
        <pt x="1298" y="1530" on="1"/>
        <pt x="2212" y="1530" on="1"/>
        <pt x="2175" y="1255" on="1"/>
        <pt x="1613" y="1257" on="1"/>
        <pt x="1565" y="920" on="1"/>
        <pt x="1984" y="925" on="1"/>
        <pt x="1948" y="649" on="1"/>
        <pt x="1527" y="658" on="1"/>
        <pt x="1472" y="270" on="1"/>
        <pt x="2105" y="280" on="1"/>
        <pt x="2068" y="0" on="1"/>
        <pt x="1079" y="0" on="1"/>
      </contour>
      <contour>
        <pt x="513" y="284" on="0"/>
        <pt x="593" y="250" on="0"/>
        <pt x="702" y="250" on="0"/>
        <pt x="798" y="308" on="0"/>
        <pt x="876" y="407" on="0"/>
        <pt x="937" y="541" on="0"/>
        <pt x="958" y="618" on="1"/>
        <pt x="1000" y="770" on="0"/>
        <pt x="1000" y="1034" on="0"/>
        <pt x="972" y="1167" on="0"/>
        <pt x="944" y="1207" on="1"/>
        <pt x="894" y="1280" on="0"/>
        <pt x="783" y="1280" on="1"/>
        <pt x="678" y="1280" on="0"/>
        <pt x="592" y="1170" on="1"/>
        <pt x="476" y="1021" on="0"/>
        <pt x="440" y="752" on="1"/>
        <pt x="430" y="672" on="0"/>
        <pt x="430" y="497" on="0"/>
        <pt x="458" y="364" on="0"/>
      </contour>
    </TTGlyph>
    <TTGlyph name="Oacute" xMin="66" yMin="-16" xMax="1364" yMax="2014">
      <component glyphName="acute.cap" x="748" y="0" flags="0x1004"/>
      <component glyphName="O" x="0" y="0" flags="0x1004"/>
    </TTGlyph>
    <TTGlyph name="Obreve" xMin="66" yMin="-16" xMax="1364" yMax="2014">
      <component glyphName="breve.cap" x="530" y="0" flags="0x1004"/>
      <component glyphName="O" x="0" y="0" flags="0x1004"/>
    </TTGlyph>
    <TTGlyph name="Ocircumflex" xMin="66" yMin="-16" xMax="1364" yMax="2014">
      <component glyphName="O" x="0" y="0" flags="0x1204"/>
      <component glyphName="circumflex.cap" x="484" y="0" flags="0x1004"/>
    </TTGlyph>
    <TTGlyph name="Odieresis" xMin="66" yMin="-16" xMax="1364" yMax="1995">
      <component glyphName="dieresis.cap" x="308" y="0" flags="0x1004"/>
      <component glyphName="O" x="0" y="0" flags="0x1004"/>
    </TTGlyph>
    <TTGlyph name="Ograve" xMin="66" yMin="-16" xMax="1364" yMax="2014">
      <component glyphName="grave.cap" x="506" y="0" flags="0x1004"/>
      <component glyphName="O" x="0" y="0" flags="0x1004"/>
    </TTGlyph>
    <TTGlyph name="Ohungarumlaut" xMin="66" yMin="-16" xMax="1439" yMax="2014">
      <component glyphName="O" x="0" y="0" flags="0x1204"/>
      <component glyphName="hungarumlaut.cap" x="530" y="0" flags="0x1004"/>
    </TTGlyph>
    <TTGlyph name="Omacron" xMin="66" yMin="-16" xMax="1364" yMax="1916">
      <component glyphName="macron.cap" x="559" y="0" flags="0x1004"/>
      <component glyphName="O" x="0" y="0" flags="0x1004"/>
    </TTGlyph>
    <TTGlyph name="Omega" xMin="68" yMin="0" xMax="1545" yMax="1545">
      <contour>
        <pt x="101" y="252" on="1"/>
        <pt x="405" y="252" on="1"/>
        <pt x="242" y="440" on="0"/>
        <pt x="192" y="684" on="1"/>
        <pt x="176" y="762" on="0"/>
        <pt x="176" y="839" on="1"/>
        <pt x="176" y="1195" on="0"/>
        <pt x="557" y="1545" on="0"/>
        <pt x="919" y="1545" on="1"/>
        <pt x="1199" y="1545" on="0"/>
        <pt x="1365" y="1405" on="1"/>
        <pt x="1545" y="1253" on="0"/>
        <pt x="1545" y="967" on="1"/>
        <pt x="1545" y="687" on="0"/>
        <pt x="1362" y="418" on="1"/>
        <pt x="1301" y="329" on="0"/>
        <pt x="1220" y="252" on="1"/>
        <pt x="1530" y="252" on="1"/>
        <pt x="1503" y="0" on="1"/>
        <pt x="937" y="0" on="1"/>
        <pt x="867" y="189" on="1"/>
        <pt x="1011" y="265" on="0"/>
        <pt x="1112" y="476" on="1"/>
        <pt x="1208" y="678" on="0"/>
        <pt x="1208" y="887" on="1"/>
        <pt x="1208" y="1084" on="0"/>
        <pt x="1102" y="1185" on="1"/>
        <pt x="1014" y="1269" on="0"/>
        <pt x="882" y="1269" on="1"/>
        <pt x="613" y="1269" on="0"/>
        <pt x="530" y="1020" on="1"/>
        <pt x="500" y="929" on="0"/>
        <pt x="500" y="737" on="0"/>
        <pt x="516" y="614" on="0"/>
        <pt x="545" y="492" on="0"/>
        <pt x="585" y="377" on="0"/>
        <pt x="609" y="329" on="1"/>
        <pt x="662" y="224" on="0"/>
        <pt x="713" y="189" on="1"/>
        <pt x="623" y="0" on="1"/>
        <pt x="68" y="0" on="1"/>
      </contour>
    </TTGlyph>
    <TTGlyph name="Oslash" xMin="66" yMin="-132" xMax="1364" yMax="1670">
      <contour>
        <pt x="598" y="-14" on="1"/>
        <pt x="463" y="-14" on="0"/>
        <pt x="343" y="49" on="1"/>
        <pt x="230" y="-132" on="1"/>
        <pt x="141" y="-83" on="1"/>
        <pt x="260" y="105" on="1"/>
        <pt x="66" y="267" on="0"/>
        <pt x="66" y="580" on="1"/>
        <pt x="66" y="988" on="0"/>
        <pt x="266" y="1260" on="1"/>
        <pt x="401" y="1443" on="0"/>
        <pt x="601" y="1512" on="1"/>
        <pt x="703" y="1548" on="0"/>
        <pt x="980" y="1548" on="0"/>
        <pt x="1101" y="1478" on="1"/>
        <pt x="1211" y="1670" on="1"/>
        <pt x="1300" y="1621" on="1"/>
        <pt x="1183" y="1417" on="1"/>
        <pt x="1364" y="1250" on="0"/>
        <pt x="1364" y="948" on="1"/>
        <pt x="1364" y="544" on="0"/>
        <pt x="1166" y="272" on="1"/>
        <pt x="957" y="-14" on="0"/>
      </contour>
      <contour>
        <pt x="927" y="1230" on="1"/>
        <pt x="879" y="1282" on="0"/>
        <pt x="783" y="1282" on="1"/>
        <pt x="678" y="1282" on="0"/>
        <pt x="592" y="1172" on="1"/>
        <pt x="476" y="1023" on="0"/>
        <pt x="440" y="754" on="1"/>
        <pt x="430" y="674" on="0"/>
        <pt x="430" y="604" on="1"/>
        <pt x="430" y="473" on="0"/>
        <pt x="453" y="394" on="1"/>
      </contour>
      <contour>
        <pt x="510" y="296" on="1"/>
        <pt x="558" y="252" on="0"/>
        <pt x="702" y="252" on="0"/>
        <pt x="798" y="310" on="0"/>
        <pt x="876" y="409" on="0"/>
        <pt x="937" y="543" on="0"/>
        <pt x="958" y="620" on="1"/>
        <pt x="1000" y="772" on="0"/>
        <pt x="1000" y="1052" on="0"/>
        <pt x="981" y="1122" on="1"/>
      </contour>
    </TTGlyph>
    <TTGlyph name="Otilde" xMin="66" yMin="-16" xMax="1390" yMax="1980">
      <component glyphName="tilde.cap" x="493" y="0" flags="0x1004"/>
      <component glyphName="O" x="0" y="0" flags="0x1004"/>
    </TTGlyph>
    <TTGlyph name="P" xMin="72" yMin="0" xMax="1313" yMax="1546">
      <contour>
        <pt x="558" y="488" on="1"/>
        <pt x="496" y="489" on="1"/>
        <pt x="426" y="0" on="1"/>
        <pt x="72" y="0" on="1"/>
        <pt x="290" y="1530" on="1"/>
        <pt x="446" y="1530" on="1"/>
        <pt x="505" y="1530" on="0"/>
        <pt x="675" y="1546" on="0"/>
        <pt x="775" y="1546" on="1"/>
        <pt x="1033" y="1546" on="0"/>
        <pt x="1312" y="1327" on="0"/>
        <pt x="1313" y="1107" on="1"/>
        <pt x="1313" y="839" on="0"/>
        <pt x="1144" y="669" on="1"/>
        <pt x="964" y="487" on="0"/>
        <pt x="657" y="487" on="1"/>
      </contour>
      <contour>
        <pt x="534" y="764" on="1"/>
        <pt x="577" y="752" on="0"/>
        <pt x="663" y="752" on="1"/>
        <pt x="945" y="752" on="0"/>
        <pt x="964" y="1076" on="1"/>
        <pt x="965" y="1088" on="0"/>
        <pt x="965" y="1139" on="0"/>
        <pt x="945" y="1213" on="0"/>
        <pt x="916" y="1242" on="1"/>
        <pt x="855" y="1300" on="0"/>
        <pt x="711" y="1300" on="1"/>
        <pt x="666" y="1300" on="0"/>
        <pt x="611" y="1290" on="1"/>
      </contour>
    </TTGlyph>
    <TTGlyph name="Q" xMin="66" yMin="-420" xMax="1364" yMax="1546">
      <contour>
        <pt x="1257" y="-115" on="1"/>
        <pt x="1257" y="-318" on="1"/>
        <pt x="1189" y="-383" on="0"/>
        <pt x="978" y="-412" on="1"/>
        <pt x="920" y="-420" on="0"/>
        <pt x="814" y="-420" on="0"/>
        <pt x="698" y="-404" on="0"/>
        <pt x="648" y="-386" on="1"/>
        <pt x="471" y="-321" on="0"/>
        <pt x="471" y="-146" on="1"/>
        <pt x="471" y="-85" on="0"/>
        <pt x="497" y="-5" on="1"/>
        <pt x="289" y="32" on="0"/>
        <pt x="174" y="198" on="1"/>
        <pt x="66" y="353" on="0"/>
        <pt x="66" y="578" on="1"/>
        <pt x="66" y="986" on="0"/>
        <pt x="266" y="1258" on="1"/>
        <pt x="401" y="1441" on="0"/>
        <pt x="601" y="1510" on="1"/>
        <pt x="703" y="1546" on="0"/>
        <pt x="957" y="1546" on="0"/>
        <pt x="1160" y="1450" on="0"/>
        <pt x="1228" y="1368" on="1"/>
        <pt x="1364" y="1204" on="0"/>
        <pt x="1364" y="946" on="1"/>
        <pt x="1364" y="572" on="0"/>
        <pt x="1192" y="308" on="1"/>
        <pt x="1109" y="180" on="0"/>
        <pt x="868" y="12" on="0"/>
        <pt x="715" y="-9" on="1"/>
        <pt x="714" y="-20" on="0"/>
        <pt x="714" y="-58" on="0"/>
        <pt x="738" y="-103" on="0"/>
        <pt x="769" y="-118" on="1"/>
        <pt x="819" y="-141" on="0"/>
        <pt x="1165" y="-141" on="0"/>
      </contour>
      <contour>
        <pt x="513" y="284" on="0"/>
        <pt x="593" y="250" on="0"/>
        <pt x="702" y="250" on="0"/>
        <pt x="798" y="308" on="0"/>
        <pt x="876" y="407" on="0"/>
        <pt x="937" y="541" on="0"/>
        <pt x="958" y="618" on="1"/>
        <pt x="1000" y="770" on="0"/>
        <pt x="1000" y="1034" on="0"/>
        <pt x="972" y="1167" on="0"/>
        <pt x="944" y="1207" on="1"/>
        <pt x="894" y="1280" on="0"/>
        <pt x="783" y="1280" on="1"/>
        <pt x="678" y="1280" on="0"/>
        <pt x="592" y="1170" on="1"/>
        <pt x="476" y="1021" on="0"/>
        <pt x="440" y="752" on="1"/>
        <pt x="430" y="672" on="0"/>
        <pt x="430" y="497" on="0"/>
        <pt x="458" y="364" on="0"/>
      </contour>
    </TTGlyph>
    <TTGlyph name="R" xMin="72" yMin="0" xMax="1329" yMax="1546">
      <contour>
        <pt x="290" y="1530" on="1"/>
        <pt x="492" y="1530" on="1"/>
        <pt x="549" y="1530" on="0"/>
        <pt x="606" y="1536" on="1"/>
        <pt x="715" y="1546" on="0"/>
        <pt x="931" y="1546" on="0"/>
        <pt x="1139" y="1493" on="0"/>
        <pt x="1204" y="1443" on="1"/>
        <pt x="1329" y="1348" on="0"/>
        <pt x="1329" y="1153" on="1"/>
        <pt x="1329" y="864" on="0"/>
        <pt x="1154" y="720" on="1"/>
        <pt x="1091" y="668" on="0"/>
        <pt x="1002" y="641" on="1"/>
        <pt x="1089" y="569" on="0"/>
        <pt x="1143" y="367" on="1"/>
        <pt x="1195" y="207" on="1"/>
        <pt x="1245" y="52" on="0"/>
        <pt x="1282" y="0" on="1"/>
        <pt x="890" y="0" on="1"/>
        <pt x="875" y="21" on="0"/>
        <pt x="861" y="78" on="1"/>
        <pt x="803" y="306" on="1"/>
        <pt x="758" y="493" on="0"/>
        <pt x="696" y="556" on="1"/>
        <pt x="680" y="573" on="0"/>
        <pt x="668" y="573" on="1"/>
        <pt x="511" y="573" on="1"/>
        <pt x="426" y="0" on="1"/>
        <pt x="72" y="0" on="1"/>
      </contour>
      <contour>
        <pt x="548" y="848" on="1"/>
        <pt x="568" y="847" on="0"/>
        <pt x="595" y="846" on="1"/>
        <pt x="650" y="846" on="1"/>
        <pt x="678" y="845" on="0"/>
        <pt x="702" y="845" on="1"/>
        <pt x="743" y="845" on="1"/>
        <pt x="873" y="845" on="0"/>
        <pt x="936" y="946" on="1"/>
        <pt x="984" y="1021" on="0"/>
        <pt x="984" y="1128" on="1"/>
        <pt x="984" y="1268" on="0"/>
        <pt x="846" y="1292" on="1"/>
        <pt x="803" y="1300" on="0"/>
        <pt x="729" y="1300" on="0"/>
        <pt x="690" y="1298" on="0"/>
        <pt x="672" y="1296" on="1"/>
        <pt x="625" y="1293" on="0"/>
        <pt x="610" y="1290" on="1"/>
      </contour>
    </TTGlyph>
    <TTGlyph name="Racute" xMin="84" yMin="0" xMax="1341" yMax="2014">
      <component glyphName="R" x="12" y="0" flags="0x1004"/>
      <component glyphName="acute.cap" x="695" y="0" flags="0x1004"/>
    </TTGlyph>
    <TTGlyph name="Rcaron" xMin="84" yMin="0" xMax="1341" yMax="2014">
      <component glyphName="caron.cap" x="431" y="0" flags="0x1004"/>
      <component glyphName="R" x="12" y="0" flags="0x1004"/>
    </TTGlyph>
    <TTGlyph name="Rcommaaccent" xMin="84" yMin="-560" xMax="1341" yMax="1546">
      <component glyphName="commaaccent" x="460" y="0" flags="0x1004"/>
      <component glyphName="R" x="12" y="0" flags="0x1004"/>
    </TTGlyph>
    <TTGlyph name="S" xMin="-5" yMin="-16" xMax="1063" yMax="1546">
      <contour>
        <pt x="115" y="368" on="1"/>
        <pt x="201" y="304" on="0"/>
        <pt x="328" y="276" on="1"/>
        <pt x="370" y="267" on="0"/>
        <pt x="465" y="267" on="0"/>
        <pt x="542" y="291" on="0"/>
        <pt x="566" y="312" on="1"/>
        <pt x="610" y="349" on="0"/>
        <pt x="612" y="420" on="1"/>
        <pt x="614" y="484" on="0"/>
        <pt x="582" y="524" on="1"/>
        <pt x="536" y="583" on="0"/>
        <pt x="378" y="702" on="0"/>
        <pt x="287" y="790" on="0"/>
        <pt x="250" y="843" on="1"/>
        <pt x="168" y="963" on="0"/>
        <pt x="168" y="1194" on="0"/>
        <pt x="244" y="1363" on="0"/>
        <pt x="314" y="1422" on="1"/>
        <pt x="459" y="1546" on="0"/>
        <pt x="702" y="1546" on="1"/>
        <pt x="882" y="1546" on="0"/>
        <pt x="1009" y="1490" on="1"/>
        <pt x="1043" y="1475" on="0"/>
        <pt x="1063" y="1461" on="1"/>
        <pt x="951" y="1180" on="1"/>
        <pt x="894" y="1237" on="0"/>
        <pt x="768" y="1260" on="1"/>
        <pt x="730" y="1267" on="0"/>
        <pt x="644" y="1267" on="0"/>
        <pt x="574" y="1244" on="0"/>
        <pt x="551" y="1225" on="1"/>
        <pt x="506" y="1188" on="0"/>
        <pt x="506" y="1092" on="0"/>
        <pt x="534" y="1031" on="0"/>
        <pt x="585" y="971" on="0"/>
        <pt x="620" y="942" on="1"/>
        <pt x="697" y="879" on="1"/>
        <pt x="822" y="780" on="0"/>
        <pt x="871" y="717" on="1"/>
        <pt x="974" y="587" on="0"/>
        <pt x="974" y="341" on="0"/>
        <pt x="889" y="164" on="0"/>
        <pt x="812" y="104" on="1"/>
        <pt x="660" y="-16" on="0"/>
        <pt x="391" y="-16" on="1"/>
        <pt x="221" y="-16" on="0"/>
        <pt x="54" y="50" on="1"/>
        <pt x="12" y="66" on="0"/>
        <pt x="-5" y="80" on="1"/>
      </contour>
    </TTGlyph>
    <TTGlyph name="Sacute" xMin="7" yMin="-16" xMax="1075" yMax="2014">
      <component glyphName="S" x="12" y="0" flags="0x1004"/>
      <component glyphName="acute.cap" x="560" y="0" flags="0x1004"/>
    </TTGlyph>
    <TTGlyph name="Scaron" xMin="7" yMin="-16" xMax="1114" yMax="2014">
      <component glyphName="S" x="12" y="0" flags="0x1004"/>
      <component glyphName="caron.cap" x="296" y="0" flags="0x1004"/>
    </TTGlyph>
    <TTGlyph name="Scedilla" xMin="7" yMin="-471" xMax="1075" yMax="1546">
      <contour>
        <pt x="142" y="-233" on="1"/>
        <pt x="177" y="-249" on="0"/>
        <pt x="260" y="-249" on="0"/>
        <pt x="324" y="-239" on="0"/>
        <pt x="348" y="-226" on="1"/>
        <pt x="399" y="-197" on="0"/>
        <pt x="403" y="-124" on="1"/>
        <pt x="404" y="-92" on="0"/>
        <pt x="404" y="-38" on="0"/>
        <pt x="403" y="-16" on="1"/>
        <pt x="233" y="-16" on="0"/>
        <pt x="66" y="50" on="1"/>
        <pt x="24" y="66" on="0"/>
        <pt x="7" y="80" on="1"/>
        <pt x="127" y="368" on="1"/>
        <pt x="213" y="304" on="0"/>
        <pt x="340" y="276" on="1"/>
        <pt x="382" y="267" on="0"/>
        <pt x="477" y="267" on="0"/>
        <pt x="554" y="291" on="0"/>
        <pt x="578" y="312" on="1"/>
        <pt x="622" y="349" on="0"/>
        <pt x="624" y="420" on="1"/>
        <pt x="626" y="484" on="0"/>
        <pt x="594" y="524" on="1"/>
        <pt x="548" y="583" on="0"/>
        <pt x="390" y="702" on="0"/>
        <pt x="299" y="790" on="0"/>
        <pt x="262" y="843" on="1"/>
        <pt x="180" y="963" on="0"/>
        <pt x="180" y="1194" on="0"/>
        <pt x="256" y="1363" on="0"/>
        <pt x="326" y="1422" on="1"/>
        <pt x="471" y="1546" on="0"/>
        <pt x="714" y="1546" on="1"/>
        <pt x="894" y="1546" on="0"/>
        <pt x="1021" y="1490" on="1"/>
        <pt x="1055" y="1475" on="0"/>
        <pt x="1075" y="1461" on="1"/>
        <pt x="963" y="1180" on="1"/>
        <pt x="906" y="1237" on="0"/>
        <pt x="780" y="1260" on="1"/>
        <pt x="742" y="1267" on="0"/>
        <pt x="656" y="1267" on="0"/>
        <pt x="586" y="1244" on="0"/>
        <pt x="563" y="1225" on="1"/>
        <pt x="518" y="1188" on="0"/>
        <pt x="518" y="1092" on="0"/>
        <pt x="546" y="1031" on="0"/>
        <pt x="597" y="971" on="0"/>
        <pt x="632" y="942" on="1"/>
        <pt x="709" y="879" on="1"/>
        <pt x="834" y="780" on="0"/>
        <pt x="883" y="717" on="1"/>
        <pt x="986" y="587" on="0"/>
        <pt x="986" y="458" on="1"/>
        <pt x="986" y="183" on="0"/>
        <pt x="760" y="62" on="1"/>
        <pt x="688" y="23" on="0"/>
        <pt x="599" y="4" on="1"/>
        <pt x="647" y="-108" on="0"/>
        <pt x="647" y="-238" on="1"/>
        <pt x="647" y="-403" on="0"/>
        <pt x="486" y="-453" on="1"/>
        <pt x="429" y="-471" on="0"/>
        <pt x="326" y="-471" on="0"/>
        <pt x="253" y="-465" on="0"/>
        <pt x="215" y="-460" on="1"/>
        <pt x="121" y="-446" on="0"/>
        <pt x="106" y="-436" on="1"/>
      </contour>
    </TTGlyph>
    <TTGlyph name="Scircumflex" xMin="7" yMin="-16" xMax="1078" yMax="2014">
      <component glyphName="S" x="12" y="0" flags="0x1004"/>
      <component glyphName="circumflex.cap" x="296" y="0" flags="0x1004"/>
    </TTGlyph>
    <TTGlyph name="T" xMin="136" yMin="0" xMax="1247" yMax="1530">
      <contour>
        <pt x="495" y="1266" on="1"/>
        <pt x="136" y="1255" on="1"/>
        <pt x="180" y="1530" on="1"/>
        <pt x="1247" y="1530" on="1"/>
        <pt x="1207" y="1255" on="1"/>
        <pt x="855" y="1266" on="1"/>
        <pt x="674" y="0" on="1"/>
        <pt x="314" y="0" on="1"/>
      </contour>
    </TTGlyph>
    <TTGlyph name="Tbar" xMin="148" yMin="0" xMax="1259" yMax="1530">
      <contour>
        <pt x="417" y="635" on="1"/>
        <pt x="188" y="635" on="1"/>
        <pt x="218" y="886" on="1"/>
        <pt x="453" y="886" on="1"/>
        <pt x="507" y="1266" on="1"/>
        <pt x="148" y="1255" on="1"/>
        <pt x="192" y="1530" on="1"/>
        <pt x="1259" y="1530" on="1"/>
        <pt x="1219" y="1255" on="1"/>
        <pt x="867" y="1266" on="1"/>
        <pt x="813" y="886" on="1"/>
        <pt x="1058" y="886" on="1"/>
        <pt x="1027" y="635" on="1"/>
        <pt x="777" y="635" on="1"/>
        <pt x="686" y="0" on="1"/>
        <pt x="326" y="0" on="1"/>
      </contour>
    </TTGlyph>
    <TTGlyph name="Tcaron" xMin="148" yMin="0" xMax="1259" yMax="2014">
      <component glyphName="caron.cap" x="340" y="0" flags="0x1004"/>
      <component glyphName="T" x="12" y="0" flags="0x1004"/>
    </TTGlyph>
    <TTGlyph name="Thorn" xMin="76" yMin="0" xMax="1287" yMax="1530">
      <contour>
        <pt x="631" y="258" on="1"/>
        <pt x="583" y="258" on="0"/>
        <pt x="475" y="270" on="1"/>
        <pt x="437" y="0" on="1"/>
        <pt x="76" y="0" on="1"/>
        <pt x="291" y="1530" on="1"/>
        <pt x="651" y="1530" on="1"/>
        <pt x="616" y="1283" on="1"/>
        <pt x="696" y="1288" on="0"/>
        <pt x="749" y="1288" on="1"/>
        <pt x="1007" y="1288" on="0"/>
        <pt x="1286" y="1073" on="0"/>
        <pt x="1287" y="863" on="1"/>
        <pt x="1287" y="603" on="0"/>
        <pt x="1118" y="436" on="1"/>
        <pt x="938" y="258" on="0"/>
      </contour>
      <contour>
        <pt x="686" y="1042" on="1"/>
        <pt x="612" y="1042" on="0"/>
        <pt x="585" y="1037" on="1"/>
        <pt x="582" y="1040" on="1"/>
        <pt x="512" y="534" on="1"/>
        <pt x="556" y="523" on="0"/>
        <pt x="637" y="523" on="1"/>
        <pt x="781" y="523" on="0"/>
        <pt x="856" y="605" on="1"/>
        <pt x="941" y="698" on="0"/>
        <pt x="941" y="852" on="1"/>
        <pt x="941" y="1042" on="0"/>
      </contour>
    </TTGlyph>
    <TTGlyph name="U" xMin="115" yMin="-16" xMax="1439" yMax="1530">
      <contour>
        <pt x="115" y="432" on="1"/>
        <pt x="115" y="441" on="0"/>
        <pt x="115" y="460" on="1"/>
        <pt x="115" y="512" on="0"/>
        <pt x="128" y="597" on="1"/>
        <pt x="261" y="1530" on="1"/>
        <pt x="614" y="1530" on="1"/>
        <pt x="488" y="642" on="1"/>
        <pt x="477" y="566" on="0"/>
        <pt x="477" y="394" on="0"/>
        <pt x="499" y="319" on="0"/>
        <pt x="522" y="296" on="1"/>
        <pt x="566" y="255" on="0"/>
        <pt x="736" y="255" on="0"/>
        <pt x="828" y="290" on="0"/>
        <pt x="862" y="334" on="1"/>
        <pt x="927" y="416" on="0"/>
        <pt x="960" y="634" on="1"/>
        <pt x="1087" y="1530" on="1"/>
        <pt x="1439" y="1530" on="1"/>
        <pt x="1309" y="597" on="1"/>
        <pt x="1263" y="268" on="0"/>
        <pt x="1101" y="124" on="1"/>
        <pt x="942" y="-16" on="0"/>
        <pt x="621" y="-16" on="1"/>
        <pt x="240" y="-16" on="0"/>
        <pt x="145" y="246" on="1"/>
        <pt x="115" y="328" on="0"/>
      </contour>
    </TTGlyph>
    <TTGlyph name="Uacute" xMin="115" yMin="-16" xMax="1439" yMax="2014">
      <component glyphName="acute.cap" x="728" y="0" flags="0x1004"/>
      <component glyphName="U" x="0" y="0" flags="0x1004"/>
    </TTGlyph>
    <TTGlyph name="Ubreve" xMin="115" yMin="-16" xMax="1439" yMax="2014">
      <component glyphName="breve.cap" x="510" y="0" flags="0x1004"/>
      <component glyphName="U" x="0" y="0" flags="0x1004"/>
    </TTGlyph>
    <TTGlyph name="Ucircumflex" xMin="115" yMin="-16" xMax="1439" yMax="2014">
      <component glyphName="U" x="0" y="0" flags="0x1204"/>
      <component glyphName="circumflex.cap" x="464" y="0" flags="0x1004"/>
    </TTGlyph>
    <TTGlyph name="Udieresis" xMin="115" yMin="-16" xMax="1439" yMax="1995">
      <component glyphName="dieresis.cap" x="288" y="0" flags="0x1004"/>
      <component glyphName="U" x="0" y="0" flags="0x1004"/>
    </TTGlyph>
    <TTGlyph name="Ugrave" xMin="115" yMin="-16" xMax="1439" yMax="2014">
      <component glyphName="grave.cap" x="486" y="0" flags="0x1004"/>
      <component glyphName="U" x="0" y="0" flags="0x1004"/>
    </TTGlyph>
    <TTGlyph name="Uhungarumlaut" xMin="115" yMin="-16" xMax="1439" yMax="2014">
      <component glyphName="U" x="0" y="0" flags="0x1204"/>
      <component glyphName="hungarumlaut.cap" x="510" y="0" flags="0x1004"/>
    </TTGlyph>
    <TTGlyph name="Umacron" xMin="115" yMin="-16" xMax="1439" yMax="1916">
      <component glyphName="macron.cap" x="539" y="0" flags="0x1004"/>
      <component glyphName="U" x="0" y="0" flags="0x1004"/>
    </TTGlyph>
    <TTGlyph name="Uogonek" xMin="127" yMin="-510" xMax="1451" yMax="1530">
      <contour>
        <pt x="740" y="-12" on="1"/>
        <pt x="688" y="-16" on="0"/>
        <pt x="502" y="-16" on="0"/>
        <pt x="312" y="46" on="0"/>
        <pt x="250" y="104" on="1"/>
        <pt x="127" y="219" on="0"/>
        <pt x="127" y="432" on="1"/>
        <pt x="127" y="441" on="0"/>
        <pt x="127" y="460" on="1"/>
        <pt x="127" y="512" on="0"/>
        <pt x="140" y="597" on="1"/>
        <pt x="273" y="1530" on="1"/>
        <pt x="626" y="1530" on="1"/>
        <pt x="500" y="642" on="1"/>
        <pt x="489" y="566" on="0"/>
        <pt x="489" y="394" on="0"/>
        <pt x="511" y="319" on="0"/>
        <pt x="534" y="296" on="1"/>
        <pt x="578" y="255" on="0"/>
        <pt x="748" y="255" on="0"/>
        <pt x="840" y="290" on="0"/>
        <pt x="874" y="334" on="1"/>
        <pt x="939" y="416" on="0"/>
        <pt x="972" y="634" on="1"/>
        <pt x="1099" y="1530" on="1"/>
        <pt x="1451" y="1530" on="1"/>
        <pt x="1321" y="597" on="1"/>
        <pt x="1266" y="200" on="0"/>
        <pt x="1035" y="69" on="1"/>
        <pt x="1045" y="68" on="1"/>
        <pt x="947" y="9" on="0"/>
        <pt x="885" y="-51" on="1"/>
        <pt x="771" y="-160" on="0"/>
        <pt x="771" y="-205" on="1"/>
        <pt x="771" y="-277" on="0"/>
        <pt x="908" y="-277" on="0"/>
        <pt x="991" y="-212" on="1"/>
        <pt x="1032" y="-387" on="1"/>
        <pt x="913" y="-510" on="0"/>
        <pt x="703" y="-510" on="1"/>
        <pt x="609" y="-510" on="0"/>
        <pt x="548" y="-452" on="1"/>
        <pt x="490" y="-398" on="0"/>
        <pt x="490" y="-266" on="0"/>
        <pt x="540" y="-173" on="0"/>
        <pt x="578" y="-133" on="1"/>
        <pt x="645" y="-61" on="0"/>
      </contour>
    </TTGlyph>
    <TTGlyph name="Uring" xMin="115" yMin="-16" xMax="1439" yMax="2014">
      <component glyphName="U" x="0" y="0" flags="0x1204"/>
      <component glyphName="ring.cap" x="497" y="0" flags="0x1004"/>
    </TTGlyph>
    <TTGlyph name="Utilde" xMin="115" yMin="-16" xMax="1439" yMax="1980">
      <component glyphName="tilde.cap" x="473" y="0" flags="0x1004"/>
      <component glyphName="U" x="0" y="0" flags="0x1004"/>
    </TTGlyph>
    <TTGlyph name="V" xMin="103" yMin="0" xMax="1400" yMax="1530">
      <contour>
        <pt x="103" y="1530" on="1"/>
        <pt x="457" y="1530" on="1"/>
        <pt x="575" y="550" on="1"/>
        <pt x="592" y="288" on="1"/>
        <pt x="669" y="550" on="1"/>
        <pt x="1025" y="1530" on="1"/>
        <pt x="1400" y="1530" on="1"/>
        <pt x="740" y="0" on="1"/>
        <pt x="328" y="0" on="1"/>
      </contour>
    </TTGlyph>
    <TTGlyph name="W" xMin="97" yMin="0" xMax="2001" yMax="1530">
      <contour>
        <pt x="97" y="1530" on="1"/>
        <pt x="454" y="1530" on="1"/>
        <pt x="513" y="550" on="1"/>
        <pt x="533" y="328" on="1"/>
        <pt x="601" y="550" on="1"/>
        <pt x="858" y="1191" on="1"/>
        <pt x="822" y="1530" on="1"/>
        <pt x="1167" y="1530" on="1"/>
        <pt x="1227" y="550" on="1"/>
        <pt x="1250" y="328" on="1"/>
        <pt x="1303" y="550" on="1"/>
        <pt x="1637" y="1530" on="1"/>
        <pt x="2001" y="1530" on="1"/>
        <pt x="1406" y="0" on="1"/>
        <pt x="993" y="0" on="1"/>
        <pt x="918" y="713" on="1"/>
        <pt x="657" y="0" on="1"/>
        <pt x="282" y="0" on="1"/>
      </contour>
    </TTGlyph>
    <TTGlyph name="Wacute" xMin="109" yMin="0" xMax="2013" yMax="2014">
      <component glyphName="acute.cap" x="910" y="0" flags="0x1004"/>
      <component glyphName="W" x="12" y="0" flags="0x1004"/>
    </TTGlyph>
    <TTGlyph name="Wcircumflex" xMin="109" yMin="0" xMax="2013" yMax="2014">
      <component glyphName="W" x="12" y="0" flags="0x1004"/>
      <component glyphName="circumflex.cap" x="646" y="0" flags="0x1004"/>
    </TTGlyph>
    <TTGlyph name="Wdieresis" xMin="109" yMin="0" xMax="2013" yMax="1995">
      <component glyphName="dieresis.cap" x="470" y="0" flags="0x1004"/>
      <component glyphName="W" x="12" y="0" flags="0x1004"/>
    </TTGlyph>
    <TTGlyph name="Wgrave" xMin="109" yMin="0" xMax="2013" yMax="2014">
      <component glyphName="grave.cap" x="668" y="0" flags="0x1004"/>
      <component glyphName="W" x="12" y="0" flags="0x1004"/>
    </TTGlyph>
    <TTGlyph name="X" xMin="-99" yMin="-1" xMax="1403" yMax="1530">
      <contour>
        <pt x="464" y="808" on="1"/>
        <pt x="143" y="1530" on="1"/>
        <pt x="523" y="1530" on="1"/>
        <pt x="700" y="1037" on="1"/>
        <pt x="1017" y="1530" on="1"/>
        <pt x="1403" y="1530" on="1"/>
        <pt x="859" y="735" on="1"/>
        <pt x="1206" y="0" on="1"/>
        <pt x="820" y="-1" on="1"/>
        <pt x="619" y="530" on="1"/>
        <pt x="297" y="0" on="1"/>
        <pt x="-99" y="0" on="1"/>
      </contour>
    </TTGlyph>
    <TTGlyph name="Y" xMin="83" yMin="0" xMax="1356" yMax="1530">
      <contour>
        <pt x="402" y="590" on="1"/>
        <pt x="83" y="1530" on="1"/>
        <pt x="455" y="1530" on="1"/>
        <pt x="596" y="1005" on="1"/>
        <pt x="621" y="871" on="1"/>
        <pt x="679" y="1005" on="1"/>
        <pt x="963" y="1530" on="1"/>
        <pt x="1356" y="1530" on="1"/>
        <pt x="756" y="590" on="1"/>
        <pt x="671" y="0" on="1"/>
        <pt x="317" y="0" on="1"/>
      </contour>
    </TTGlyph>
    <TTGlyph name="Yacute" xMin="95" yMin="0" xMax="1368" yMax="2014">
      <component glyphName="Y" x="12" y="0" flags="0x1004"/>
      <component glyphName="acute.cap" x="584" y="0" flags="0x1004"/>
    </TTGlyph>
    <TTGlyph name="Ycircumflex" xMin="95" yMin="0" xMax="1368" yMax="2014">
      <component glyphName="Y" x="12" y="0" flags="0x1004"/>
      <component glyphName="circumflex.cap" x="320" y="0" flags="0x1004"/>
    </TTGlyph>
    <TTGlyph name="Ydieresis" xMin="95" yMin="0" xMax="1368" yMax="1995">
      <component glyphName="Y" x="12" y="0" flags="0x1004"/>
      <component glyphName="dieresis.cap" x="144" y="0" flags="0x1004"/>
    </TTGlyph>
    <TTGlyph name="Ygrave" xMin="95" yMin="0" xMax="1368" yMax="2014">
      <component glyphName="Y" x="12" y="0" flags="0x1004"/>
      <component glyphName="grave.cap" x="342" y="0" flags="0x1004"/>
    </TTGlyph>
    <TTGlyph name="Z" xMin="-68" yMin="0" xMax="1257" yMax="1530">
      <contour>
        <pt x="-68" y="89" on="1"/>
        <pt x="706" y="1188" on="1"/>
        <pt x="799" y="1255" on="1"/>
        <pt x="212" y="1245" on="1"/>
        <pt x="258" y="1530" on="1"/>
        <pt x="1234" y="1530" on="1"/>
        <pt x="1257" y="1444" on="1"/>
        <pt x="515" y="356" on="1"/>
        <pt x="431" y="282" on="1"/>
        <pt x="1049" y="292" on="1"/>
        <pt x="1002" y="0" on="1"/>
        <pt x="-41" y="0" on="1"/>
      </contour>
    </TTGlyph>
    <TTGlyph name="Zacute" xMin="-68" yMin="0" xMax="1257" yMax="2014">
      <component glyphName="Z" x="0" y="0" flags="0x1204"/>
      <component glyphName="acute.cap" x="632" y="0" flags="0x1004"/>
    </TTGlyph>
    <TTGlyph name="Zcaron" xMin="-68" yMin="0" xMax="1257" yMax="2014">
      <component glyphName="caron.cap" x="368" y="0" flags="0x1004"/>
      <component glyphName="Z" x="0" y="0" flags="0x1004"/>
    </TTGlyph>
    <TTGlyph name="Zdotaccent" xMin="-68" yMin="0" xMax="1257" yMax="1975">
      <component glyphName="dotaccent.cap" x="585" y="0" flags="0x1004"/>
      <component glyphName="Z" x="0" y="0" flags="0x1004"/>
    </TTGlyph>
    <TTGlyph name="a" xMin="70" yMin="-16" xMax="1205" yMax="1156">
      <contour>
        <pt x="774" y="1156" on="1"/>
        <pt x="892" y="1156" on="0"/>
        <pt x="1021" y="1111" on="1"/>
        <pt x="1205" y="1156" on="1"/>
        <pt x="1044" y="0" on="1"/>
        <pt x="724" y="0" on="1"/>
        <pt x="735" y="248" on="1"/>
        <pt x="654" y="71" on="0"/>
        <pt x="520" y="8" on="1"/>
        <pt x="468" y="-16" on="0"/>
        <pt x="311" y="-16" on="0"/>
        <pt x="183" y="53" on="0"/>
        <pt x="144" y="112" on="1"/>
        <pt x="70" y="220" on="0"/>
        <pt x="70" y="412" on="1"/>
        <pt x="70" y="712" on="0"/>
        <pt x="246" y="922" on="1"/>
        <pt x="441" y="1156" on="0"/>
      </contour>
      <contour>
        <pt x="442" y="433" on="1"/>
        <pt x="442" y="224" on="0"/>
        <pt x="531" y="224" on="1"/>
        <pt x="598" y="224" on="0"/>
        <pt x="676" y="362" on="1"/>
        <pt x="739" y="474" on="0"/>
        <pt x="776" y="606" on="1"/>
        <pt x="823" y="941" on="1"/>
        <pt x="795" y="946" on="0"/>
        <pt x="697" y="946" on="0"/>
        <pt x="611" y="903" on="0"/>
        <pt x="543" y="830" on="0"/>
        <pt x="492" y="730" on="0"/>
        <pt x="476" y="673" on="1"/>
        <pt x="442" y="557" on="0"/>
      </contour>
    </TTGlyph>
    <TTGlyph name="aacute" xMin="70" yMin="-16" xMax="1209" yMax="1774">
      <component glyphName="a" x="0" y="0" flags="0x1204"/>
      <component glyphName="acute" x="647" y="0" flags="0x1004"/>
    </TTGlyph>
    <TTGlyph name="abreve" xMin="70" yMin="-16" xMax="1205" yMax="1681">
      <component glyphName="a" x="0" y="0" flags="0x1204"/>
      <component glyphName="breve" x="459" y="0" flags="0x1004"/>
    </TTGlyph>
    <TTGlyph name="acircumflex" xMin="70" yMin="-16" xMax="1205" yMax="1670">
      <component glyphName="a" x="0" y="0" flags="0x1204"/>
      <component glyphName="circumflex" x="389" y="0" flags="0x1004"/>
    </TTGlyph>
    <TTGlyph name="acute" xMin="19" yMin="1226" xMax="562" yMax="1774">
      <contour>
        <pt x="19" y="1325" on="1"/>
        <pt x="353" y="1774" on="1"/>
        <pt x="562" y="1574" on="1"/>
        <pt x="532" y="1518" on="0"/>
        <pt x="384" y="1392" on="1"/>
        <pt x="224" y="1256" on="0"/>
        <pt x="143" y="1226" on="1"/>
      </contour>
    </TTGlyph>
    <TTGlyph name="acute.cap" xMin="21" yMin="1550" xMax="510" yMax="2014">
      <contour>
        <pt x="21" y="1672" on="1"/>
        <pt x="300" y="2014" on="1"/>
        <pt x="510" y="1827" on="1"/>
        <pt x="460" y="1732" on="0"/>
        <pt x="285" y="1616" on="1"/>
        <pt x="215" y="1569" on="0"/>
        <pt x="164" y="1550" on="1"/>
      </contour>
    </TTGlyph>
    <TTGlyph name="adieresis" xMin="70" yMin="-16" xMax="1229" yMax="1701">
      <component glyphName="a" x="0" y="0" flags="0x1204"/>
      <component glyphName="dieresis" x="423" y="0" flags="0x1004"/>
    </TTGlyph>
    <TTGlyph name="ae" xMin="68" yMin="-16" xMax="1714" yMax="1156">
      <contour>
        <pt x="1084" y="1090" on="1"/>
        <pt x="1220" y="1156" on="0"/>
        <pt x="1374" y="1156" on="1"/>
        <pt x="1631" y="1156" on="0"/>
        <pt x="1694" y="1002" on="1"/>
        <pt x="1714" y="953" on="0"/>
        <pt x="1714" y="781" on="0"/>
        <pt x="1618" y="617" on="0"/>
        <pt x="1536" y="558" on="1"/>
        <pt x="1391" y="454" on="0"/>
        <pt x="1107" y="383" on="1"/>
        <pt x="1107" y="304" on="0"/>
        <pt x="1129" y="276" on="1"/>
        <pt x="1168" y="226" on="0"/>
        <pt x="1252" y="226" on="1"/>
        <pt x="1340" y="226" on="0"/>
        <pt x="1443" y="284" on="1"/>
        <pt x="1534" y="334" on="0"/>
        <pt x="1575" y="389" on="1"/>
        <pt x="1667" y="218" on="1"/>
        <pt x="1611" y="136" on="0"/>
        <pt x="1490" y="69" on="1"/>
        <pt x="1338" y="-16" on="0"/>
        <pt x="1164" y="-16" on="1"/>
        <pt x="907" y="-16" on="0"/>
        <pt x="797" y="172" on="1"/>
        <pt x="764" y="229" on="0"/>
        <pt x="748" y="294" on="1"/>
        <pt x="657" y="86" on="0"/>
        <pt x="512" y="12" on="1"/>
        <pt x="458" y="-16" on="0"/>
        <pt x="299" y="-16" on="0"/>
        <pt x="174" y="53" on="0"/>
        <pt x="136" y="112" on="1"/>
        <pt x="68" y="218" on="0"/>
        <pt x="68" y="412" on="1"/>
        <pt x="68" y="602" on="0"/>
        <pt x="152" y="769" on="1"/>
        <pt x="287" y="1041" on="0"/>
        <pt x="590" y="1126" on="1"/>
        <pt x="695" y="1156" on="0"/>
        <pt x="976" y="1156" on="0"/>
      </contour>
      <contour>
        <pt x="1102" y="561" on="1"/>
        <pt x="1198" y="568" on="0"/>
        <pt x="1280" y="652" on="1"/>
        <pt x="1370" y="744" on="0"/>
        <pt x="1370" y="859" on="1"/>
        <pt x="1370" y="912" on="0"/>
        <pt x="1335" y="960" on="0"/>
        <pt x="1263" y="960" on="0"/>
        <pt x="1210" y="920" on="0"/>
        <pt x="1168" y="855" on="0"/>
        <pt x="1136" y="771" on="0"/>
        <pt x="1125" y="726" on="1"/>
        <pt x="1104" y="643" on="0"/>
      </contour>
      <contour>
        <pt x="890" y="934" on="1"/>
        <pt x="838" y="946" on="0"/>
        <pt x="736" y="946" on="0"/>
        <pt x="636" y="903" on="0"/>
        <pt x="557" y="830" on="0"/>
        <pt x="498" y="730" on="0"/>
        <pt x="478" y="673" on="1"/>
        <pt x="440" y="560" on="0"/>
        <pt x="440" y="331" on="0"/>
        <pt x="474" y="246" on="0"/>
        <pt x="545" y="246" on="0"/>
        <pt x="611" y="303" on="0"/>
        <pt x="643" y="350" on="1"/>
        <pt x="716" y="455" on="0"/>
        <pt x="741" y="582" on="1"/>
        <pt x="773" y="792" on="0"/>
      </contour>
    </TTGlyph>
    <TTGlyph name="aeacute" xMin="68" yMin="-16" xMax="1714" yMax="1774">
      <component glyphName="acute" x="860" y="0" flags="0x1004"/>
      <component glyphName="ae" x="0" y="0" flags="0x1004"/>
    </TTGlyph>
    <TTGlyph name="afii61352" xMin="92" yMin="0" xMax="2513" yMax="1532">
      <contour>
        <pt x="1567" y="946" on="1"/>
        <pt x="1567" y="1043" on="0"/>
        <pt x="1639" y="1262" on="0"/>
        <pt x="1710" y="1346" on="1"/>
        <pt x="1867" y="1532" on="0"/>
        <pt x="2138" y="1532" on="1"/>
        <pt x="2327" y="1532" on="0"/>
        <pt x="2427" y="1403" on="1"/>
        <pt x="2513" y="1292" on="0"/>
        <pt x="2513" y="1118" on="1"/>
        <pt x="2513" y="867" on="0"/>
        <pt x="2370" y="698" on="1"/>
        <pt x="2213" y="512" on="0"/>
        <pt x="1942" y="512" on="1"/>
        <pt x="1753" y="512" on="0"/>
        <pt x="1653" y="641" on="1"/>
        <pt x="1567" y="752" on="0"/>
      </contour>
      <contour>
        <pt x="285" y="1530" on="1"/>
        <pt x="611" y="1530" on="1"/>
        <pt x="930" y="768" on="1"/>
        <pt x="1018" y="510" on="1"/>
        <pt x="1039" y="772" on="1"/>
        <pt x="1126" y="1530" on="1"/>
        <pt x="1454" y="1530" on="1"/>
        <pt x="1261" y="0" on="1"/>
        <pt x="958" y="0" on="1"/>
        <pt x="643" y="776" on="1"/>
        <pt x="538" y="1075" on="1"/>
        <pt x="521" y="778" on="1"/>
        <pt x="417" y="0" on="1"/>
        <pt x="92" y="0" on="1"/>
      </contour>
      <contour>
        <pt x="1927" y="1204" on="1"/>
        <pt x="1879" y="1081" on="0"/>
        <pt x="1879" y="697" on="0"/>
        <pt x="1987" y="697" on="1"/>
        <pt x="2097" y="697" on="0"/>
        <pt x="2151" y="836" on="1"/>
        <pt x="2196" y="954" on="0"/>
        <pt x="2196" y="1348" on="0"/>
        <pt x="1983" y="1348" on="0"/>
      </contour>
      <contour>
        <pt x="1536" y="207" on="1"/>
        <pt x="2389" y="207" on="1"/>
        <pt x="2371" y="0" on="1"/>
        <pt x="1518" y="0" on="1"/>
      </contour>
    </TTGlyph>
    <TTGlyph name="agrave" xMin="70" yMin="-16" xMax="1205" yMax="1774">
      <component glyphName="a" x="0" y="0" flags="0x1204"/>
      <component glyphName="grave" x="366" y="0" flags="0x1004"/>
    </TTGlyph>
    <TTGlyph name="amacron" xMin="70" yMin="-16" xMax="1205" yMax="1614">
      <component glyphName="a" x="0" y="0" flags="0x1204"/>
      <component glyphName="macron" x="490" y="0" flags="0x1004"/>
    </TTGlyph>
    <TTGlyph name="ampersand" xMin="5" yMin="-16" xMax="1597" yMax="1546">
      <contour>
        <pt x="965" y="33" on="1"/>
        <pt x="806" y="-16" on="0"/>
        <pt x="474" y="-16" on="0"/>
        <pt x="247" y="28" on="0"/>
        <pt x="168" y="74" on="1"/>
        <pt x="5" y="170" on="0"/>
        <pt x="5" y="361" on="1"/>
        <pt x="5" y="560" on="0"/>
        <pt x="214" y="704" on="1"/>
        <pt x="275" y="746" on="0"/>
        <pt x="342" y="784" on="1"/>
        <pt x="263" y="965" on="0"/>
        <pt x="263" y="1108" on="1"/>
        <pt x="263" y="1297" on="0"/>
        <pt x="390" y="1418" on="1"/>
        <pt x="524" y="1546" on="0"/>
        <pt x="757" y="1546" on="1"/>
        <pt x="978" y="1546" on="0"/>
        <pt x="1081" y="1443" on="1"/>
        <pt x="1161" y="1363" on="0"/>
        <pt x="1161" y="1148" on="0"/>
        <pt x="1091" y="1002" on="0"/>
        <pt x="1033" y="942" on="1"/>
        <pt x="941" y="845" on="0"/>
        <pt x="752" y="736" on="1"/>
        <pt x="891" y="514" on="0"/>
        <pt x="1047" y="369" on="1"/>
        <pt x="1095" y="434" on="0"/>
        <pt x="1095" y="521" on="1"/>
        <pt x="1095" y="554" on="0"/>
        <pt x="1090" y="591" on="1"/>
        <pt x="1026" y="585" on="0"/>
        <pt x="991" y="561" on="1"/>
        <pt x="1001" y="785" on="1"/>
        <pt x="1036" y="830" on="0"/>
        <pt x="1150" y="830" on="1"/>
        <pt x="1597" y="829" on="1"/>
        <pt x="1577" y="594" on="1"/>
        <pt x="1421" y="594" on="1"/>
        <pt x="1421" y="586" on="1"/>
        <pt x="1421" y="367" on="0"/>
        <pt x="1275" y="215" on="1"/>
        <pt x="1356" y="187" on="0"/>
        <pt x="1461" y="187" on="1"/>
        <pt x="1483" y="187" on="0"/>
        <pt x="1507" y="188" on="1"/>
        <pt x="1467" y="8" on="1"/>
        <pt x="1403" y="-16" on="0"/>
        <pt x="1084" y="-16" on="0"/>
      </contour>
      <contour>
        <pt x="637" y="945" on="1"/>
        <pt x="734" y="1004" on="0"/>
        <pt x="770" y="1046" on="1"/>
        <pt x="836" y="1123" on="0"/>
        <pt x="836" y="1260" on="0"/>
        <pt x="781" y="1326" on="0"/>
        <pt x="689" y="1326" on="0"/>
        <pt x="643" y="1299" on="0"/>
        <pt x="626" y="1275" on="1"/>
        <pt x="592" y="1225" on="0"/>
        <pt x="592" y="1159" on="1"/>
        <pt x="592" y="1061" on="0"/>
      </contour>
      <contour>
        <pt x="466" y="563" on="1"/>
        <pt x="352" y="475" on="0"/>
        <pt x="352" y="391" on="1"/>
        <pt x="352" y="252" on="0"/>
        <pt x="525" y="226" on="1"/>
        <pt x="578" y="218" on="0"/>
        <pt x="620" y="218" on="1"/>
        <pt x="684" y="218" on="0"/>
        <pt x="728" y="222" on="1"/>
        <pt x="611" y="339" on="0"/>
        <pt x="522" y="474" on="1"/>
      </contour>
    </TTGlyph>
    <TTGlyph name="aogonek" xMin="70" yMin="-510" xMax="1205" yMax="1156">
      <contour>
        <pt x="1059" y="-387" on="1"/>
        <pt x="940" y="-510" on="0"/>
        <pt x="730" y="-510" on="1"/>
        <pt x="636" y="-510" on="0"/>
        <pt x="575" y="-452" on="1"/>
        <pt x="517" y="-398" on="0"/>
        <pt x="517" y="-262" on="0"/>
        <pt x="576" y="-161" on="0"/>
        <pt x="618" y="-119" on="1"/>
        <pt x="700" y="-38" on="0"/>
        <pt x="792" y="0" on="1"/>
        <pt x="724" y="0" on="1"/>
        <pt x="735" y="248" on="1"/>
        <pt x="654" y="71" on="0"/>
        <pt x="520" y="8" on="1"/>
        <pt x="468" y="-16" on="0"/>
        <pt x="311" y="-16" on="0"/>
        <pt x="183" y="53" on="0"/>
        <pt x="144" y="112" on="1"/>
        <pt x="70" y="220" on="0"/>
        <pt x="70" y="412" on="1"/>
        <pt x="70" y="712" on="0"/>
        <pt x="246" y="922" on="1"/>
        <pt x="441" y="1156" on="0"/>
        <pt x="773" y="1156" on="1"/>
        <pt x="892" y="1156" on="0"/>
        <pt x="1021" y="1111" on="1"/>
        <pt x="1205" y="1156" on="1"/>
        <pt x="1044" y="0" on="1"/>
        <pt x="880" y="-68" on="0"/>
        <pt x="818" y="-154" on="1"/>
        <pt x="798" y="-181" on="0"/>
        <pt x="798" y="-205" on="1"/>
        <pt x="798" y="-277" on="0"/>
        <pt x="935" y="-277" on="0"/>
        <pt x="1018" y="-212" on="1"/>
      </contour>
      <contour>
        <pt x="442" y="433" on="1"/>
        <pt x="442" y="224" on="0"/>
        <pt x="531" y="224" on="1"/>
        <pt x="598" y="224" on="0"/>
        <pt x="676" y="362" on="1"/>
        <pt x="739" y="474" on="0"/>
        <pt x="776" y="606" on="1"/>
        <pt x="823" y="941" on="1"/>
        <pt x="795" y="946" on="0"/>
        <pt x="697" y="946" on="0"/>
        <pt x="611" y="903" on="0"/>
        <pt x="543" y="830" on="0"/>
        <pt x="492" y="730" on="0"/>
        <pt x="476" y="673" on="1"/>
        <pt x="442" y="557" on="0"/>
      </contour>
    </TTGlyph>
    <TTGlyph name="approxequal" xMin="-5" yMin="238" xMax="1125" yMax="1167">
      <component glyphName="asciitilde" x="-81" y="-434" flags="0x1004"/>
      <component glyphName="asciitilde" x="-11" y="61" flags="0x1004"/>
    </TTGlyph>
    <TTGlyph name="aring" xMin="70" yMin="-16" xMax="1205" yMax="1804">
      <component glyphName="a" x="0" y="0" flags="0x1204"/>
      <component glyphName="ring" x="448" y="0" flags="0x1004"/>
    </TTGlyph>
    <TTGlyph name="asciicircum" xMin="126" yMin="510" xMax="1191" yMax="1531">
      <contour>
        <pt x="657" y="1531" on="1"/>
        <pt x="924" y="1531" on="1"/>
        <pt x="1191" y="510" on="1"/>
        <pt x="920" y="510" on="1"/>
        <pt x="759" y="1160" on="1"/>
        <pt x="401" y="510" on="1"/>
        <pt x="126" y="510" on="1"/>
      </contour>
    </TTGlyph>
    <TTGlyph name="asciitilde" xMin="76" yMin="672" xMax="1136" yMax="1106">
      <contour>
        <pt x="224" y="745" on="1"/>
        <pt x="76" y="886" on="1"/>
        <pt x="101" y="965" on="0"/>
        <pt x="204" y="1034" on="1"/>
        <pt x="310" y="1106" on="0"/>
        <pt x="526" y="1106" on="0"/>
        <pt x="643" y="1020" on="1"/>
        <pt x="702" y="978" on="1"/>
        <pt x="767" y="934" on="0"/>
        <pt x="820" y="934" on="1"/>
        <pt x="925" y="934" on="0"/>
        <pt x="1002" y="1041" on="1"/>
        <pt x="1136" y="902" on="1"/>
        <pt x="1113" y="815" on="0"/>
        <pt x="1014" y="744" on="1"/>
        <pt x="911" y="672" on="0"/>
        <pt x="804" y="672" on="1"/>
        <pt x="687" y="672" on="0"/>
        <pt x="475" y="854" on="0"/>
        <pt x="310" y="854" on="0"/>
      </contour>
    </TTGlyph>
    <TTGlyph name="asterisk" xMin="153" yMin="579" xMax="1309" yMax="1721">
      <contour>
        <pt x="629" y="910" on="1"/>
        <pt x="657" y="1048" on="1"/>
        <pt x="260" y="759" on="1"/>
        <pt x="153" y="969" on="1"/>
        <pt x="480" y="1095" on="1"/>
        <pt x="609" y="1150" on="1"/>
        <pt x="192" y="1331" on="1"/>
        <pt x="322" y="1539" on="1"/>
        <pt x="580" y="1336" on="1"/>
        <pt x="678" y="1255" on="1"/>
        <pt x="679" y="1390" on="1"/>
        <pt x="671" y="1721" on="1"/>
        <pt x="909" y="1721" on="1"/>
        <pt x="799" y="1255" on="1"/>
        <pt x="920" y="1336" on="1"/>
        <pt x="1212" y="1541" on="1"/>
        <pt x="1309" y="1331" on="1"/>
        <pt x="982" y="1203" on="1"/>
        <pt x="853" y="1148" on="1"/>
        <pt x="971" y="1095" on="1"/>
        <pt x="1270" y="969" on="1"/>
        <pt x="1120" y="761" on="1"/>
        <pt x="881" y="964" on="1"/>
        <pt x="778" y="1048" on="1"/>
        <pt x="784" y="910" on="1"/>
        <pt x="796" y="579" on="1"/>
        <pt x="552" y="580" on="1"/>
      </contour>
    </TTGlyph>
    <TTGlyph name="at" xMin="102" yMin="-440" xMax="1967" yMax="1545">
      <contour>
        <pt x="1306" y="-153" on="1"/>
        <pt x="1365" y="-324" on="1"/>
        <pt x="1256" y="-405" on="0"/>
        <pt x="1064" y="-432" on="1"/>
        <pt x="1003" y="-440" on="0"/>
        <pt x="939" y="-440" on="1"/>
        <pt x="567" y="-440" on="0"/>
        <pt x="338" y="-227" on="1"/>
        <pt x="102" y="-6" on="0"/>
        <pt x="102" y="374" on="1"/>
        <pt x="102" y="726" on="0"/>
        <pt x="254" y="999" on="1"/>
        <pt x="400" y="1259" on="0"/>
        <pt x="657" y="1402" on="1"/>
        <pt x="913" y="1545" on="0"/>
        <pt x="1226" y="1545" on="1"/>
        <pt x="1565" y="1545" on="0"/>
        <pt x="1766" y="1372" on="1"/>
        <pt x="1967" y="1201" on="0"/>
        <pt x="1967" y="909" on="1"/>
        <pt x="1967" y="640" on="0"/>
        <pt x="1866" y="422" on="1"/>
        <pt x="1775" y="229" on="0"/>
        <pt x="1622" y="117" on="1"/>
        <pt x="1477" y="11" on="0"/>
        <pt x="1328" y="11" on="1"/>
        <pt x="1268" y="11" on="0"/>
        <pt x="1208" y="98" on="0"/>
        <pt x="1208" y="165" on="1"/>
        <pt x="1208" y="235" on="0"/>
        <pt x="1213" y="292" on="1"/>
        <pt x="1220" y="371" on="1"/>
        <pt x="1110" y="112" on="0"/>
        <pt x="959" y="34" on="1"/>
        <pt x="907" y="7" on="0"/>
        <pt x="801" y="7" on="0"/>
        <pt x="746" y="34" on="1"/>
        <pt x="625" y="92" on="0"/>
        <pt x="570" y="250" on="1"/>
        <pt x="544" y="328" on="0"/>
        <pt x="544" y="430" on="1"/>
        <pt x="544" y="697" on="0"/>
        <pt x="692" y="898" on="1"/>
        <pt x="791" y="1032" on="0"/>
        <pt x="944" y="1085" on="1"/>
        <pt x="1021" y="1112" on="0"/>
        <pt x="1135" y="1112" on="0"/>
        <pt x="1193" y="1106" on="0"/>
        <pt x="1224" y="1100" on="1"/>
        <pt x="1298" y="1084" on="0"/>
        <pt x="1334" y="1058" on="1"/>
        <pt x="1529" y="1088" on="1"/>
        <pt x="1490" y="939" on="0"/>
        <pt x="1450" y="510" on="1"/>
        <pt x="1440" y="400" on="1"/>
        <pt x="1433" y="335" on="0"/>
        <pt x="1429" y="310" on="1"/>
        <pt x="1423" y="273" on="0"/>
        <pt x="1423" y="223" on="0"/>
        <pt x="1436" y="223" on="1"/>
        <pt x="1545" y="223" on="0"/>
        <pt x="1630" y="428" on="1"/>
        <pt x="1712" y="626" on="0"/>
        <pt x="1712" y="860" on="1"/>
        <pt x="1712" y="1348" on="0"/>
        <pt x="1175" y="1348" on="1"/>
        <pt x="929" y="1348" on="0"/>
        <pt x="732" y="1209" on="1"/>
        <pt x="550" y="1080" on="0"/>
        <pt x="447" y="864" on="1"/>
        <pt x="346" y="652" on="0"/>
        <pt x="346" y="418" on="1"/>
        <pt x="346" y="-16" on="0"/>
        <pt x="659" y="-160" on="1"/>
        <pt x="790" y="-221" on="0"/>
        <pt x="1164" y="-221" on="0"/>
      </contour>
      <contour>
        <pt x="1198" y="840" on="1"/>
        <pt x="1159" y="883" on="0"/>
        <pt x="1014" y="883" on="0"/>
        <pt x="927" y="803" on="0"/>
        <pt x="898" y="743" on="1"/>
        <pt x="840" y="623" on="0"/>
        <pt x="840" y="484" on="1"/>
        <pt x="840" y="346" on="0"/>
        <pt x="882" y="310" on="1"/>
        <pt x="899" y="296" on="0"/>
        <pt x="949" y="296" on="0"/>
        <pt x="1005" y="354" on="0"/>
        <pt x="1062" y="447" on="0"/>
        <pt x="1117" y="565" on="0"/>
        <pt x="1139" y="626" on="1"/>
        <pt x="1188" y="761" on="0"/>
      </contour>
    </TTGlyph>
    <TTGlyph name="atilde" xMin="70" yMin="-16" xMax="1270" yMax="1698">
      <component glyphName="a" x="0" y="0" flags="0x1204"/>
      <component glyphName="tilde" x="410" y="0" flags="0x1004"/>
    </TTGlyph>
    <TTGlyph name="b" xMin="76" yMin="-16" xMax="1220" yMax="1634">
      <contour>
        <pt x="514" y="-16" on="1"/>
        <pt x="393" y="-16" on="0"/>
        <pt x="261" y="32" on="1"/>
        <pt x="261" y="34" on="1"/>
        <pt x="76" y="0" on="1"/>
        <pt x="301" y="1634" on="1"/>
        <pt x="644" y="1634" on="1"/>
        <pt x="559" y="976" on="1"/>
        <pt x="538" y="855" on="1"/>
        <pt x="611" y="1051" on="0"/>
        <pt x="759" y="1127" on="1"/>
        <pt x="815" y="1156" on="0"/>
        <pt x="978" y="1156" on="0"/>
        <pt x="1107" y="1086" on="0"/>
        <pt x="1146" y="1026" on="1"/>
        <pt x="1220" y="916" on="0"/>
        <pt x="1220" y="724" on="1"/>
        <pt x="1220" y="426" on="0"/>
        <pt x="1044" y="216" on="1"/>
        <pt x="850" y="-16" on="0"/>
      </contour>
      <contour>
        <pt x="846" y="703" on="1"/>
        <pt x="846" y="912" on="0"/>
        <pt x="758" y="912" on="1"/>
        <pt x="661" y="912" on="0"/>
        <pt x="559" y="666" on="1"/>
        <pt x="524" y="581" on="0"/>
        <pt x="504" y="499" on="1"/>
        <pt x="505" y="555" on="1"/>
        <pt x="460" y="199" on="1"/>
        <pt x="492" y="194" on="0"/>
        <pt x="592" y="194" on="0"/>
        <pt x="678" y="236" on="0"/>
        <pt x="746" y="309" on="0"/>
        <pt x="796" y="407" on="0"/>
        <pt x="812" y="464" on="1"/>
        <pt x="846" y="578" on="0"/>
      </contour>
    </TTGlyph>
    <TTGlyph name="backslash" xMin="6" yMin="-362" xMax="851" yMax="1597">
      <contour>
        <pt x="6" y="1597" on="1"/>
        <pt x="274" y="1597" on="1"/>
        <pt x="851" y="-362" on="1"/>
        <pt x="582" y="-362" on="1"/>
      </contour>
    </TTGlyph>
    <TTGlyph name="bar" xMin="320" yMin="-186" xMax="573" yMax="1780">
      <contour>
        <pt x="320" y="1780" on="1"/>
        <pt x="573" y="1780" on="1"/>
        <pt x="573" y="-186" on="1"/>
        <pt x="320" y="-186" on="1"/>
      </contour>
    </TTGlyph>
    <TTGlyph name="braceleft" xMin="51" yMin="-272" xMax="1043" yMax="1812">
      <contour>
        <pt x="190" y="-166" on="1"/>
        <pt x="181" y="-133" on="0"/>
        <pt x="181" y="-87" on="0"/>
        <pt x="185" y="-56" on="1"/>
        <pt x="201" y="67" on="0"/>
        <pt x="209" y="123" on="1"/>
        <pt x="268" y="546" on="1"/>
        <pt x="268" y="588" on="0"/>
        <pt x="184" y="645" on="0"/>
        <pt x="96" y="670" on="0"/>
        <pt x="51" y="681" on="1"/>
        <pt x="83" y="884" on="1"/>
        <pt x="132" y="896" on="0"/>
        <pt x="236" y="919" on="0"/>
        <pt x="268" y="936" on="1"/>
        <pt x="332" y="969" on="0"/>
        <pt x="340" y="1012" on="1"/>
        <pt x="428" y="1550" on="1"/>
        <pt x="452" y="1698" on="0"/>
        <pt x="516" y="1756" on="1"/>
        <pt x="579" y="1812" on="0"/>
        <pt x="713" y="1812" on="1"/>
        <pt x="819" y="1812" on="0"/>
        <pt x="1043" y="1755" on="1"/>
        <pt x="1012" y="1579" on="1"/>
        <pt x="736" y="1579" on="1"/>
        <pt x="642" y="960" on="1"/>
        <pt x="636" y="919" on="0"/>
        <pt x="594" y="871" on="0"/>
        <pt x="543" y="839" on="0"/>
        <pt x="510" y="827" on="1"/>
        <pt x="441" y="802" on="1"/>
        <pt x="399" y="787" on="0"/>
        <pt x="349" y="771" on="1"/>
        <pt x="371" y="759" on="0"/>
        <pt x="400" y="746" on="1"/>
        <pt x="456" y="721" on="1"/>
        <pt x="519" y="691" on="0"/>
        <pt x="535" y="675" on="1"/>
        <pt x="559" y="650" on="1"/>
        <pt x="587" y="619" on="0"/>
        <pt x="580" y="562" on="1"/>
        <pt x="488" y="-30" on="1"/>
        <pt x="763" y="-30" on="1"/>
        <pt x="761" y="-36" on="0"/>
        <pt x="758" y="-62" on="1"/>
        <pt x="752" y="-119" on="0"/>
        <pt x="741" y="-195" on="1"/>
        <pt x="549" y="-272" on="0"/>
        <pt x="376" y="-272" on="1"/>
        <pt x="220" y="-272" on="0"/>
      </contour>
    </TTGlyph>
    <TTGlyph name="braceright" xMin="30" yMin="-266" xMax="1022" yMax="1818">
      <component glyphName="braceleft" x="1073" y="1546" scale="-0.999938964844" flags="0x1004"/>
    </TTGlyph>
    <TTGlyph name="bracketleft" xMin="130" yMin="-259" xMax="932" yMax="1802">
      <contour>
        <pt x="346" y="1513" on="1"/>
        <pt x="377" y="1733" on="0"/>
        <pt x="500" y="1784" on="1"/>
        <pt x="543" y="1802" on="0"/>
        <pt x="598" y="1802" on="1"/>
        <pt x="713" y="1802" on="0"/>
        <pt x="932" y="1755" on="1"/>
        <pt x="906" y="1580" on="1"/>
        <pt x="651" y="1580" on="1"/>
        <pt x="437" y="-30" on="1"/>
        <pt x="692" y="-30" on="1"/>
        <pt x="670" y="-203" on="1"/>
        <pt x="600" y="-223" on="1"/>
        <pt x="473" y="-259" on="0"/>
        <pt x="327" y="-259" on="1"/>
        <pt x="232" y="-259" on="0"/>
        <pt x="130" y="-160" on="0"/>
        <pt x="130" y="-77" on="1"/>
        <pt x="130" y="-15" on="0"/>
        <pt x="138" y="33" on="1"/>
      </contour>
    </TTGlyph>
    <TTGlyph name="bracketright" xMin="-16" yMin="-246" xMax="786" yMax="1815">
      <component glyphName="bracketleft" x="916" y="1556" scale="-0.999938964844" flags="0x1004"/>
    </TTGlyph>
    <TTGlyph name="breve" xMin="37" yMin="1300" xMax="725" yMax="1681">
      <contour>
        <pt x="237" y="1681" on="1"/>
        <pt x="233" y="1659" on="0"/>
        <pt x="233" y="1606" on="0"/>
        <pt x="245" y="1561" on="0"/>
        <pt x="261" y="1546" on="1"/>
        <pt x="294" y="1517" on="0"/>
        <pt x="377" y="1517" on="1"/>
        <pt x="492" y="1517" on="0"/>
        <pt x="526" y="1622" on="1"/>
        <pt x="535" y="1651" on="0"/>
        <pt x="540" y="1681" on="1"/>
        <pt x="724" y="1681" on="1"/>
        <pt x="725" y="1673" on="0"/>
        <pt x="725" y="1664" on="1"/>
        <pt x="725" y="1647" on="1"/>
        <pt x="725" y="1511" on="0"/>
        <pt x="638" y="1414" on="1"/>
        <pt x="537" y="1300" on="0"/>
        <pt x="361" y="1300" on="1"/>
        <pt x="108" y="1300" on="0"/>
        <pt x="54" y="1474" on="1"/>
        <pt x="37" y="1528" on="0"/>
        <pt x="37" y="1605" on="0"/>
        <pt x="39" y="1628" on="0"/>
        <pt x="41" y="1640" on="1"/>
        <pt x="45" y="1663" on="1"/>
        <pt x="47" y="1674" on="0"/>
        <pt x="49" y="1681" on="1"/>
      </contour>
    </TTGlyph>
    <TTGlyph name="breve.cap" xMin="37" yMin="1633" xMax="725" yMax="2014">
      <contour>
        <pt x="237" y="2014" on="1"/>
        <pt x="233" y="1992" on="0"/>
        <pt x="233" y="1939" on="0"/>
        <pt x="245" y="1894" on="0"/>
        <pt x="261" y="1880" on="1"/>
        <pt x="294" y="1850" on="0"/>
        <pt x="377" y="1850" on="1"/>
        <pt x="492" y="1850" on="0"/>
        <pt x="526" y="1954" on="1"/>
        <pt x="535" y="1984" on="0"/>
        <pt x="540" y="2014" on="1"/>
        <pt x="724" y="2014" on="1"/>
        <pt x="725" y="2006" on="0"/>
        <pt x="725" y="1997" on="1"/>
        <pt x="725" y="1980" on="1"/>
        <pt x="725" y="1844" on="0"/>
        <pt x="638" y="1747" on="1"/>
        <pt x="537" y="1633" on="0"/>
        <pt x="361" y="1633" on="1"/>
        <pt x="108" y="1633" on="0"/>
        <pt x="54" y="1806" on="1"/>
        <pt x="37" y="1861" on="0"/>
        <pt x="37" y="1938" on="0"/>
        <pt x="39" y="1961" on="0"/>
        <pt x="41" y="1973" on="1"/>
        <pt x="45" y="1996" on="1"/>
        <pt x="47" y="2007" on="0"/>
        <pt x="49" y="2014" on="1"/>
      </contour>
    </TTGlyph>
    <TTGlyph name="brokenbar" xMin="320" yMin="-186" xMax="573" yMax="1780">
      <contour>
        <pt x="320" y="1780" on="1"/>
        <pt x="573" y="1780" on="1"/>
        <pt x="573" y="916" on="1"/>
        <pt x="320" y="916" on="1"/>
      </contour>
      <contour>
        <pt x="320" y="678" on="1"/>
        <pt x="573" y="678" on="1"/>
        <pt x="573" y="-186" on="1"/>
        <pt x="320" y="-186" on="1"/>
      </contour>
    </TTGlyph>
    <TTGlyph name="bullet" xMin="233" yMin="507" xMax="660" yMax="939">
      <contour>
        <pt x="559" y="554" on="0"/>
        <pt x="466" y="507" on="0"/>
        <pt x="371" y="507" on="0"/>
        <pt x="307" y="535" on="0"/>
        <pt x="284" y="559" on="1"/>
        <pt x="233" y="611" on="0"/>
        <pt x="233" y="728" on="0"/>
        <pt x="271" y="819" on="0"/>
        <pt x="305" y="856" on="1"/>
        <pt x="381" y="939" on="0"/>
        <pt x="484" y="939" on="1"/>
        <pt x="559" y="939" on="0"/>
        <pt x="610" y="890" on="1"/>
        <pt x="660" y="841" on="0"/>
        <pt x="660" y="722" on="0"/>
        <pt x="625" y="629" on="0"/>
      </contour>
    </TTGlyph>
    <TTGlyph name="c" xMin="74" yMin="-16" xMax="953" yMax="1156">
      <contour>
        <pt x="116" y="197" on="0"/>
        <pt x="74" y="361" on="0"/>
        <pt x="74" y="599" on="0"/>
        <pt x="167" y="862" on="0"/>
        <pt x="250" y="956" on="1"/>
        <pt x="425" y="1156" on="0"/>
        <pt x="695" y="1156" on="1"/>
        <pt x="854" y="1156" on="0"/>
        <pt x="953" y="1113" on="1"/>
        <pt x="867" y="771" on="1"/>
        <pt x="809" y="829" on="0"/>
        <pt x="697" y="878" on="0"/>
        <pt x="623" y="878" on="0"/>
        <pt x="539" y="833" on="0"/>
        <pt x="508" y="786" on="1"/>
        <pt x="438" y="682" on="0"/>
        <pt x="438" y="498" on="1"/>
        <pt x="438" y="363" on="0"/>
        <pt x="485" y="272" on="0"/>
        <pt x="542" y="241" on="0"/>
        <pt x="615" y="241" on="0"/>
        <pt x="685" y="263" on="0"/>
        <pt x="717" y="280" on="1"/>
        <pt x="785" y="318" on="0"/>
        <pt x="819" y="356" on="1"/>
        <pt x="908" y="185" on="1"/>
        <pt x="823" y="55" on="0"/>
        <pt x="642" y="4" on="1"/>
        <pt x="574" y="-16" on="0"/>
        <pt x="372" y="-16" on="0"/>
        <pt x="214" y="66" on="0"/>
      </contour>
    </TTGlyph>
    <TTGlyph name="cacute" xMin="74" yMin="-16" xMax="1144" yMax="1774">
      <component glyphName="acute" x="582" y="0" flags="0x1004"/>
      <component glyphName="c" x="0" y="0" flags="0x1004"/>
    </TTGlyph>
    <TTGlyph name="caron" xMin="35" yMin="1228" xMax="798" yMax="1670">
      <contour>
        <pt x="35" y="1602" on="1"/>
        <pt x="161" y="1670" on="1"/>
        <pt x="374" y="1480" on="1"/>
        <pt x="650" y="1669" on="1"/>
        <pt x="798" y="1602" on="1"/>
        <pt x="426" y="1228" on="1"/>
        <pt x="247" y="1228" on="1"/>
      </contour>
    </TTGlyph>
    <TTGlyph name="caron.cap" xMin="55" yMin="1599" xMax="818" yMax="2014">
      <contour>
        <pt x="55" y="1936" on="1"/>
        <pt x="200" y="2014" on="1"/>
        <pt x="383" y="1837" on="1"/>
        <pt x="670" y="2014" on="1"/>
        <pt x="818" y="1947" on="1"/>
        <pt x="447" y="1599" on="1"/>
        <pt x="267" y="1599" on="1"/>
      </contour>
    </TTGlyph>
    <TTGlyph name="caronvertical" xMin="194" yMin="1037" xMax="498" yMax="1682">
      <contour>
        <pt x="459" y="1682" on="1"/>
        <pt x="498" y="1643" on="0"/>
        <pt x="498" y="1493" on="1"/>
        <pt x="498" y="1293" on="0"/>
        <pt x="414" y="1129" on="1"/>
        <pt x="387" y="1075" on="0"/>
        <pt x="351" y="1037" on="1"/>
        <pt x="200" y="1065" on="1"/>
        <pt x="194" y="1090" on="1"/>
        <pt x="235" y="1199" on="0"/>
        <pt x="235" y="1554" on="0"/>
        <pt x="211" y="1592" on="1"/>
        <pt x="230" y="1634" on="1"/>
      </contour>
    </TTGlyph>
    <TTGlyph name="ccaron" xMin="74" yMin="-16" xMax="1150" yMax="1670">
      <component glyphName="caron" x="352" y="0" flags="0x1004"/>
      <component glyphName="c" x="0" y="0" flags="0x1004"/>
    </TTGlyph>
    <TTGlyph name="ccedilla" xMin="74" yMin="-471" xMax="953" yMax="1156">
      <contour>
        <pt x="170" y="-233" on="1"/>
        <pt x="205" y="-249" on="0"/>
        <pt x="288" y="-249" on="0"/>
        <pt x="352" y="-239" on="0"/>
        <pt x="376" y="-226" on="1"/>
        <pt x="427" y="-197" on="0"/>
        <pt x="431" y="-124" on="1"/>
        <pt x="435" y="-66" on="0"/>
        <pt x="430" y="-13" on="1"/>
        <pt x="247" y="5" on="0"/>
        <pt x="153" y="149" on="1"/>
        <pt x="74" y="269" on="0"/>
        <pt x="74" y="599" on="0"/>
        <pt x="167" y="862" on="0"/>
        <pt x="250" y="956" on="1"/>
        <pt x="425" y="1156" on="0"/>
        <pt x="695" y="1156" on="1"/>
        <pt x="854" y="1156" on="0"/>
        <pt x="953" y="1113" on="1"/>
        <pt x="867" y="771" on="1"/>
        <pt x="809" y="829" on="0"/>
        <pt x="697" y="878" on="0"/>
        <pt x="623" y="878" on="0"/>
        <pt x="539" y="833" on="0"/>
        <pt x="508" y="786" on="1"/>
        <pt x="438" y="682" on="0"/>
        <pt x="438" y="498" on="1"/>
        <pt x="438" y="363" on="0"/>
        <pt x="485" y="272" on="0"/>
        <pt x="542" y="241" on="0"/>
        <pt x="615" y="241" on="0"/>
        <pt x="685" y="263" on="0"/>
        <pt x="717" y="280" on="1"/>
        <pt x="785" y="318" on="0"/>
        <pt x="819" y="356" on="1"/>
        <pt x="908" y="185" on="1"/>
        <pt x="812" y="43" on="0"/>
        <pt x="628" y="0" on="1"/>
        <pt x="675" y="-115" on="0"/>
        <pt x="675" y="-238" on="1"/>
        <pt x="675" y="-403" on="0"/>
        <pt x="514" y="-453" on="1"/>
        <pt x="457" y="-471" on="0"/>
        <pt x="354" y="-471" on="0"/>
        <pt x="281" y="-465" on="0"/>
        <pt x="243" y="-460" on="1"/>
        <pt x="149" y="-446" on="0"/>
        <pt x="134" y="-436" on="1"/>
      </contour>
    </TTGlyph>
    <TTGlyph name="ccircumflex" xMin="74" yMin="-16" xMax="1122" yMax="1670">
      <component glyphName="circumflex" x="324" y="0" flags="0x1004"/>
      <component glyphName="c" x="0" y="0" flags="0x1004"/>
    </TTGlyph>
    <TTGlyph name="cdotaccent" xMin="74" yMin="-16" xMax="963" yMax="1681">
      <component glyphName="c" x="0" y="0" flags="0x1204"/>
      <component glyphName="dotaccent" x="575" y="0" flags="0x1004"/>
    </TTGlyph>
    <TTGlyph name="cedilla" xMin="-63" yMin="-471" xMax="478" yMax="34">
      <contour>
        <pt x="203" y="-212" on="0"/>
        <pt x="232" y="-163" on="0"/>
        <pt x="236" y="-96" on="0"/>
        <pt x="236" y="-5" on="0"/>
        <pt x="227" y="30" on="1"/>
        <pt x="327" y="34" on="1"/>
        <pt x="416" y="30" on="1"/>
        <pt x="450" y="-17" on="0"/>
        <pt x="472" y="-166" on="1"/>
        <pt x="478" y="-207" on="0"/>
        <pt x="478" y="-288" on="0"/>
        <pt x="446" y="-373" on="0"/>
        <pt x="410" y="-404" on="1"/>
        <pt x="334" y="-471" on="0"/>
        <pt x="177" y="-471" on="1"/>
        <pt x="96" y="-471" on="0"/>
        <pt x="-54" y="-442" on="0"/>
        <pt x="-63" y="-436" on="1"/>
        <pt x="-27" y="-233" on="1"/>
        <pt x="8" y="-249" on="0"/>
        <pt x="91" y="-249" on="0"/>
        <pt x="155" y="-239" on="0"/>
      </contour>
    </TTGlyph>
    <TTGlyph name="cent" xMin="91" yMin="-275" xMax="970" yMax="1428">
      <contour>
        <pt x="346" y="10" on="1"/>
        <pt x="217" y="56" on="0"/>
        <pt x="148" y="186" on="1"/>
        <pt x="91" y="295" on="0"/>
        <pt x="91" y="576" on="0"/>
        <pt x="159" y="807" on="0"/>
        <pt x="221" y="898" on="1"/>
        <pt x="349" y="1085" on="0"/>
        <pt x="561" y="1137" on="1"/>
        <pt x="627" y="1428" on="1"/>
        <pt x="867" y="1428" on="1"/>
        <pt x="803" y="1150" on="1"/>
        <pt x="914" y="1138" on="0"/>
        <pt x="970" y="1113" on="1"/>
        <pt x="884" y="771" on="1"/>
        <pt x="826" y="829" on="0"/>
        <pt x="714" y="878" on="0"/>
        <pt x="640" y="878" on="0"/>
        <pt x="556" y="833" on="0"/>
        <pt x="524" y="786" on="1"/>
        <pt x="455" y="682" on="0"/>
        <pt x="455" y="498" on="1"/>
        <pt x="455" y="363" on="0"/>
        <pt x="502" y="272" on="0"/>
        <pt x="559" y="241" on="0"/>
        <pt x="632" y="241" on="0"/>
        <pt x="702" y="263" on="0"/>
        <pt x="734" y="280" on="1"/>
        <pt x="802" y="318" on="0"/>
        <pt x="836" y="356" on="1"/>
        <pt x="925" y="185" on="1"/>
        <pt x="849" y="72" on="0"/>
        <pt x="706" y="18" on="1"/>
        <pt x="651" y="-3" on="0"/>
        <pt x="582" y="-11" on="1"/>
        <pt x="534" y="-275" on="1"/>
        <pt x="294" y="-275" on="1"/>
      </contour>
    </TTGlyph>
    <TTGlyph name="circumflex" xMin="35" yMin="1228" xMax="798" yMax="1670">
      <contour>
        <pt x="35" y="1296" on="1"/>
        <pt x="406" y="1670" on="1"/>
        <pt x="586" y="1670" on="1"/>
        <pt x="798" y="1296" on="1"/>
        <pt x="643" y="1228" on="1"/>
        <pt x="463" y="1402" on="1"/>
        <pt x="173" y="1229" on="1"/>
      </contour>
    </TTGlyph>
    <TTGlyph name="circumflex.cap" xMin="19" yMin="1599" xMax="782" yMax="2014">
      <contour>
        <pt x="19" y="1666" on="1"/>
        <pt x="390" y="2014" on="1"/>
        <pt x="570" y="2014" on="1"/>
        <pt x="782" y="1677" on="1"/>
        <pt x="637" y="1599" on="1"/>
        <pt x="454" y="1766" on="1"/>
        <pt x="167" y="1599" on="1"/>
      </contour>
    </TTGlyph>
    <TTGlyph name="colon" xMin="10" yMin="-29" xMax="471" yMax="1147">
      <component glyphName="period" x="-20" y="0" flags="0x1204"/>
      <component glyphName="period" x="72" y="809" flags="0x1004"/>
    </TTGlyph>
    <TTGlyph name="comma" xMin="-32" yMin="-519" xMax="403" yMax="295">
      <contour>
        <pt x="46" y="107" on="1"/>
        <pt x="202" y="295" on="1"/>
        <pt x="355" y="236" on="0"/>
        <pt x="393" y="54" on="1"/>
        <pt x="403" y="7" on="0"/>
        <pt x="403" y="-114" on="0"/>
        <pt x="356" y="-269" on="0"/>
        <pt x="312" y="-334" on="1"/>
        <pt x="219" y="-470" on="0"/>
        <pt x="61" y="-519" on="1"/>
        <pt x="-32" y="-392" on="1"/>
        <pt x="-29" y="-371" on="1"/>
        <pt x="77" y="-317" on="0"/>
        <pt x="114" y="-191" on="1"/>
        <pt x="125" y="-154" on="0"/>
        <pt x="125" y="-85" on="0"/>
        <pt x="110" y="-28" on="0"/>
        <pt x="98" y="-6" on="1"/>
        <pt x="74" y="38" on="0"/>
        <pt x="39" y="53" on="1"/>
      </contour>
    </TTGlyph>
    <TTGlyph name="commaaccent" xMin="11" yMin="-560" xMax="341" yMax="-37">
      <contour>
        <pt x="182" y="-37" on="1"/>
        <pt x="249" y="-51" on="0"/>
        <pt x="296" y="-111" on="1"/>
        <pt x="341" y="-170" on="0"/>
        <pt x="341" y="-313" on="0"/>
        <pt x="299" y="-421" on="0"/>
        <pt x="266" y="-462" on="1"/>
        <pt x="197" y="-545" on="0"/>
        <pt x="112" y="-560" on="1"/>
        <pt x="11" y="-490" on="1"/>
        <pt x="14" y="-464" on="1"/>
        <pt x="55" y="-441" on="0"/>
        <pt x="76" y="-384" on="1"/>
        <pt x="83" y="-362" on="0"/>
        <pt x="83" y="-316" on="0"/>
        <pt x="73" y="-281" on="0"/>
        <pt x="64" y="-267" on="1"/>
        <pt x="45" y="-238" on="0"/>
        <pt x="15" y="-234" on="1"/>
        <pt x="26" y="-141" on="1"/>
      </contour>
    </TTGlyph>
    <TTGlyph name="copyright" xMin="175" yMin="84" xMax="1916" yMax="1838">
      <contour>
        <pt x="175" y="962" on="1"/>
        <pt x="175" y="1084" on="0"/>
        <pt x="236" y="1309" on="0"/>
        <pt x="349" y="1503" on="0"/>
        <pt x="507" y="1662" on="0"/>
        <pt x="604" y="1719" on="1"/>
        <pt x="805" y="1838" on="0"/>
        <pt x="1045" y="1838" on="1"/>
        <pt x="1284" y="1838" on="0"/>
        <pt x="1487" y="1719" on="1"/>
        <pt x="1790" y="1541" on="0"/>
        <pt x="1885" y="1196" on="1"/>
        <pt x="1916" y="1084" on="0"/>
        <pt x="1916" y="841" on="0"/>
        <pt x="1854" y="616" on="0"/>
        <pt x="1742" y="421" on="0"/>
        <pt x="1584" y="261" on="0"/>
        <pt x="1487" y="204" on="1"/>
        <pt x="1283" y="84" on="0"/>
        <pt x="1045" y="84" on="1"/>
        <pt x="807" y="84" on="0"/>
        <pt x="604" y="204" on="1"/>
        <pt x="408" y="320" on="0"/>
        <pt x="292" y="518" on="1"/>
        <pt x="175" y="721" on="0"/>
      </contour>
      <contour>
        <pt x="317" y="962" on="1"/>
        <pt x="317" y="859" on="0"/>
        <pt x="367" y="668" on="0"/>
        <pt x="459" y="501" on="0"/>
        <pt x="589" y="364" on="0"/>
        <pt x="670" y="316" on="1"/>
        <pt x="841" y="213" on="0"/>
        <pt x="1045" y="213" on="1"/>
        <pt x="1249" y="213" on="0"/>
        <pt x="1420" y="316" on="1"/>
        <pt x="1582" y="413" on="0"/>
        <pt x="1677" y="584" on="1"/>
        <pt x="1773" y="759" on="0"/>
        <pt x="1773" y="963" on="1"/>
        <pt x="1773" y="1274" on="0"/>
        <pt x="1566" y="1492" on="1"/>
        <pt x="1435" y="1631" on="0"/>
        <pt x="1244" y="1685" on="1"/>
        <pt x="1150" y="1712" on="0"/>
        <pt x="1045" y="1712" on="1"/>
        <pt x="841" y="1712" on="0"/>
        <pt x="670" y="1610" on="1"/>
        <pt x="508" y="1513" on="0"/>
        <pt x="413" y="1341" on="1"/>
        <pt x="317" y="1168" on="0"/>
      </contour>
      <contour>
        <pt x="1324" y="747" on="1"/>
        <pt x="1368" y="574" on="1"/>
        <pt x="1288" y="505" on="0"/>
        <pt x="1148" y="480" on="1"/>
        <pt x="1100" y="471" on="0"/>
        <pt x="947" y="471" on="0"/>
        <pt x="781" y="549" on="0"/>
        <pt x="722" y="616" on="1"/>
        <pt x="599" y="754" on="0"/>
        <pt x="599" y="954" on="1"/>
        <pt x="599" y="957" on="0"/>
        <pt x="599" y="961" on="1"/>
        <pt x="599" y="1178" on="0"/>
        <pt x="724" y="1311" on="1"/>
        <pt x="858" y="1455" on="0"/>
        <pt x="1094" y="1455" on="1"/>
        <pt x="1207" y="1455" on="0"/>
        <pt x="1307" y="1418" on="1"/>
        <pt x="1333" y="1409" on="0"/>
        <pt x="1348" y="1400" on="1"/>
        <pt x="1311" y="1195" on="1"/>
        <pt x="1231" y="1250" on="0"/>
        <pt x="1098" y="1250" on="1"/>
        <pt x="989" y="1250" on="0"/>
        <pt x="920" y="1179" on="1"/>
        <pt x="850" y="1107" on="0"/>
        <pt x="850" y="992" on="1"/>
        <pt x="850" y="988" on="0"/>
        <pt x="850" y="906" on="0"/>
        <pt x="886" y="792" on="0"/>
        <pt x="920" y="755" on="1"/>
        <pt x="984" y="684" on="0"/>
        <pt x="1237" y="684" on="0"/>
      </contour>
    </TTGlyph>
    <TTGlyph name="currency" xMin="201" yMin="102" xMax="1369" yMax="1277">
      <contour>
        <pt x="1014" y="317" on="1"/>
        <pt x="907" y="252" on="0"/>
        <pt x="662" y="252" on="0"/>
        <pt x="557" y="313" on="1"/>
        <pt x="346" y="102" on="1"/>
        <pt x="204" y="243" on="1"/>
        <pt x="412" y="451" on="1"/>
        <pt x="342" y="561" on="0"/>
        <pt x="342" y="690" on="1"/>
        <pt x="342" y="817" on="0"/>
        <pt x="410" y="925" on="1"/>
        <pt x="201" y="1135" on="1"/>
        <pt x="342" y="1277" on="1"/>
        <pt x="553" y="1064" on="1"/>
        <pt x="662" y="1128" on="0"/>
        <pt x="911" y="1128" on="0"/>
        <pt x="1021" y="1058" on="1"/>
        <pt x="1228" y="1264" on="1"/>
        <pt x="1369" y="1122" on="1"/>
        <pt x="1160" y="913" on="1"/>
        <pt x="1222" y="808" on="0"/>
        <pt x="1222" y="564" on="0"/>
        <pt x="1156" y="459" on="1"/>
        <pt x="1367" y="248" on="1"/>
        <pt x="1225" y="107" on="1"/>
      </contour>
      <contour>
        <pt x="576" y="690" on="1"/>
        <pt x="576" y="601" on="0"/>
        <pt x="636" y="538" on="1"/>
        <pt x="696" y="474" on="0"/>
        <pt x="782" y="474" on="1"/>
        <pt x="868" y="474" on="0"/>
        <pt x="928" y="538" on="1"/>
        <pt x="988" y="601" on="0"/>
        <pt x="988" y="690" on="1"/>
        <pt x="988" y="779" on="0"/>
        <pt x="928" y="842" on="1"/>
        <pt x="868" y="906" on="0"/>
        <pt x="782" y="906" on="1"/>
        <pt x="696" y="906" on="0"/>
        <pt x="636" y="842" on="1"/>
        <pt x="576" y="779" on="0"/>
      </contour>
    </TTGlyph>
    <TTGlyph name="d" xMin="70" yMin="-16" xMax="1264" yMax="1634">
      <contour>
        <pt x="528" y="12" on="1"/>
        <pt x="473" y="-16" on="0"/>
        <pt x="311" y="-16" on="0"/>
        <pt x="183" y="53" on="0"/>
        <pt x="144" y="112" on="1"/>
        <pt x="70" y="220" on="0"/>
        <pt x="70" y="412" on="1"/>
        <pt x="70" y="712" on="0"/>
        <pt x="246" y="922" on="1"/>
        <pt x="441" y="1156" on="0"/>
        <pt x="773" y="1156" on="1"/>
        <pt x="812" y="1156" on="0"/>
        <pt x="853" y="1150" on="1"/>
        <pt x="920" y="1634" on="1"/>
        <pt x="1264" y="1634" on="1"/>
        <pt x="1053" y="0" on="1"/>
        <pt x="734" y="0" on="1"/>
        <pt x="748" y="279" on="1"/>
        <pt x="671" y="85" on="0"/>
      </contour>
      <contour>
        <pt x="531" y="228" on="1"/>
        <pt x="644" y="228" on="0"/>
        <pt x="755" y="542" on="1"/>
        <pt x="770" y="585" on="0"/>
        <pt x="780" y="620" on="1"/>
        <pt x="824" y="937" on="1"/>
        <pt x="791" y="946" on="0"/>
        <pt x="697" y="946" on="0"/>
        <pt x="611" y="903" on="0"/>
        <pt x="543" y="830" on="0"/>
        <pt x="492" y="730" on="0"/>
        <pt x="476" y="673" on="1"/>
        <pt x="442" y="557" on="0"/>
        <pt x="442" y="433" on="1"/>
        <pt x="442" y="228" on="0"/>
      </contour>
    </TTGlyph>
    <TTGlyph name="dagger" xMin="123" yMin="151" xMax="885" yMax="1646">
      <contour>
        <pt x="245" y="151" on="1"/>
        <pt x="362" y="1063" on="1"/>
        <pt x="123" y="1063" on="1"/>
        <pt x="157" y="1277" on="1"/>
        <pt x="407" y="1277" on="1"/>
        <pt x="429" y="1469" on="1"/>
        <pt x="453" y="1646" on="1"/>
        <pt x="703" y="1646" on="1"/>
        <pt x="673" y="1469" on="1"/>
        <pt x="632" y="1277" on="1"/>
        <pt x="885" y="1277" on="1"/>
        <pt x="852" y="1063" on="1"/>
        <pt x="611" y="1063" on="1"/>
        <pt x="595" y="944" on="1"/>
        <pt x="462" y="151" on="1"/>
      </contour>
    </TTGlyph>
    <TTGlyph name="daggerdbl" xMin="58" yMin="-51" xMax="885" yMax="1646">
      <contour>
        <pt x="259" y="340" on="1"/>
        <pt x="299" y="576" on="1"/>
        <pt x="58" y="576" on="1"/>
        <pt x="89" y="779" on="1"/>
        <pt x="325" y="779" on="1"/>
        <pt x="362" y="1063" on="1"/>
        <pt x="126" y="1063" on="1"/>
        <pt x="158" y="1277" on="1"/>
        <pt x="407" y="1277" on="1"/>
        <pt x="429" y="1469" on="1"/>
        <pt x="453" y="1646" on="1"/>
        <pt x="703" y="1646" on="1"/>
        <pt x="673" y="1469" on="1"/>
        <pt x="634" y="1277" on="1"/>
        <pt x="885" y="1277" on="1"/>
        <pt x="852" y="1063" on="1"/>
        <pt x="611" y="1063" on="1"/>
        <pt x="595" y="944" on="1"/>
        <pt x="567" y="779" on="1"/>
        <pt x="825" y="779" on="1"/>
        <pt x="797" y="576" on="1"/>
        <pt x="533" y="576" on="1"/>
        <pt x="510" y="352" on="1"/>
        <pt x="410" y="-51" on="1"/>
        <pt x="238" y="-51" on="1"/>
      </contour>
    </TTGlyph>
    <TTGlyph name="dcaron" xMin="70" yMin="-16" xMax="1688" yMax="1682">
      <component glyphName="d" x="0" y="0" flags="0x1004"/>
      <component glyphName="caronvertical" x="1190" y="0" flags="0x1004"/>
    </TTGlyph>
    <TTGlyph name="dcroat" xMin="70" yMin="-16" xMax="1400" yMax="1634">
      <contour>
        <pt x="528" y="12" on="1"/>
        <pt x="473" y="-16" on="0"/>
        <pt x="311" y="-16" on="0"/>
        <pt x="183" y="53" on="0"/>
        <pt x="144" y="112" on="1"/>
        <pt x="70" y="220" on="0"/>
        <pt x="70" y="412" on="1"/>
        <pt x="70" y="712" on="0"/>
        <pt x="246" y="922" on="1"/>
        <pt x="441" y="1156" on="0"/>
        <pt x="773" y="1156" on="1"/>
        <pt x="812" y="1156" on="0"/>
        <pt x="853" y="1150" on="1"/>
        <pt x="868" y="1262" on="1"/>
        <pt x="642" y="1262" on="1"/>
        <pt x="658" y="1392" on="1"/>
        <pt x="886" y="1392" on="1"/>
        <pt x="920" y="1634" on="1"/>
        <pt x="1264" y="1634" on="1"/>
        <pt x="1233" y="1392" on="1"/>
        <pt x="1400" y="1392" on="1"/>
        <pt x="1384" y="1262" on="1"/>
        <pt x="1216" y="1262" on="1"/>
        <pt x="1053" y="0" on="1"/>
        <pt x="734" y="0" on="1"/>
        <pt x="748" y="279" on="1"/>
        <pt x="671" y="85" on="0"/>
      </contour>
      <contour>
        <pt x="531" y="228" on="1"/>
        <pt x="644" y="228" on="0"/>
        <pt x="755" y="542" on="1"/>
        <pt x="770" y="585" on="0"/>
        <pt x="780" y="620" on="1"/>
        <pt x="824" y="937" on="1"/>
        <pt x="791" y="946" on="0"/>
        <pt x="697" y="946" on="0"/>
        <pt x="611" y="903" on="0"/>
        <pt x="543" y="830" on="0"/>
        <pt x="492" y="730" on="0"/>
        <pt x="476" y="673" on="1"/>
        <pt x="442" y="557" on="0"/>
        <pt x="442" y="433" on="1"/>
        <pt x="442" y="228" on="0"/>
      </contour>
    </TTGlyph>
    <TTGlyph name="degree" xMin="206" yMin="915" xMax="942" yMax="1634">
      <contour>
        <pt x="563" y="915" on="1"/>
        <pt x="484" y="915" on="0"/>
        <pt x="418" y="944" on="1"/>
        <pt x="285" y="1001" on="0"/>
        <pt x="230" y="1136" on="1"/>
        <pt x="206" y="1196" on="0"/>
        <pt x="206" y="1265" on="1"/>
        <pt x="206" y="1270" on="0"/>
        <pt x="206" y="1275" on="1"/>
        <pt x="208" y="1428" on="0"/>
        <pt x="315" y="1531" on="1"/>
        <pt x="422" y="1634" on="0"/>
        <pt x="583" y="1634" on="1"/>
        <pt x="736" y="1634" on="0"/>
        <pt x="842" y="1528" on="1"/>
        <pt x="942" y="1428" on="0"/>
        <pt x="942" y="1280" on="1"/>
        <pt x="942" y="1123" on="0"/>
        <pt x="831" y="1018" on="1"/>
        <pt x="722" y="915" on="0"/>
      </contour>
      <contour>
        <pt x="477" y="1129" on="0"/>
        <pt x="536" y="1101" on="0"/>
        <pt x="606" y="1101" on="0"/>
        <pt x="667" y="1128" on="0"/>
        <pt x="690" y="1151" on="1"/>
        <pt x="738" y="1201" on="0"/>
        <pt x="738" y="1276" on="1"/>
        <pt x="738" y="1279" on="0"/>
        <pt x="738" y="1314" on="0"/>
        <pt x="714" y="1375" on="0"/>
        <pt x="692" y="1398" on="1"/>
        <pt x="646" y="1449" on="0"/>
        <pt x="577" y="1449" on="1"/>
        <pt x="466" y="1449" on="0"/>
        <pt x="423" y="1344" on="1"/>
        <pt x="410" y="1313" on="0"/>
        <pt x="410" y="1273" on="0"/>
        <pt x="410" y="1238" on="0"/>
        <pt x="433" y="1176" on="0"/>
      </contour>
    </TTGlyph>
    <TTGlyph name="dieresis" xMin="-7" yMin="1338" xMax="806" yMax="1701">
      <contour>
        <pt x="735" y="1370" on="0"/>
        <pt x="663" y="1338" on="0"/>
        <pt x="585" y="1338" on="0"/>
        <pt x="530" y="1367" on="0"/>
        <pt x="510" y="1390" on="1"/>
        <pt x="442" y="1471" on="0"/>
        <pt x="480" y="1582" on="1"/>
        <pt x="506" y="1655" on="0"/>
        <pt x="572" y="1686" on="1"/>
        <pt x="606" y="1701" on="0"/>
        <pt x="684" y="1701" on="0"/>
        <pt x="714" y="1687" on="1"/>
        <pt x="773" y="1659" on="0"/>
        <pt x="796" y="1599" on="1"/>
        <pt x="806" y="1572" on="0"/>
        <pt x="806" y="1501" on="0"/>
        <pt x="782" y="1425" on="0"/>
      </contour>
      <contour>
        <pt x="262" y="1370" on="0"/>
        <pt x="192" y="1338" on="0"/>
        <pt x="113" y="1338" on="0"/>
        <pt x="86" y="1352" on="1"/>
        <pt x="29" y="1383" on="0"/>
        <pt x="4" y="1444" on="1"/>
        <pt x="-7" y="1472" on="0"/>
        <pt x="-7" y="1543" on="0"/>
        <pt x="20" y="1617" on="0"/>
        <pt x="44" y="1644" on="1"/>
        <pt x="94" y="1701" on="0"/>
        <pt x="177" y="1701" on="1"/>
        <pt x="246" y="1701" on="0"/>
        <pt x="291" y="1650" on="1"/>
        <pt x="332" y="1604" on="0"/>
        <pt x="332" y="1502" on="0"/>
        <pt x="309" y="1425" on="0"/>
      </contour>
    </TTGlyph>
    <TTGlyph name="dieresis.cap" xMin="172" yMin="1632" xMax="985" yMax="1995">
      <contour>
        <pt x="914" y="1664" on="0"/>
        <pt x="842" y="1632" on="0"/>
        <pt x="764" y="1632" on="0"/>
        <pt x="709" y="1661" on="0"/>
        <pt x="689" y="1684" on="1"/>
        <pt x="621" y="1765" on="0"/>
        <pt x="660" y="1876" on="1"/>
        <pt x="685" y="1949" on="0"/>
        <pt x="752" y="1980" on="1"/>
        <pt x="785" y="1995" on="0"/>
        <pt x="863" y="1995" on="0"/>
        <pt x="892" y="1981" on="1"/>
        <pt x="952" y="1953" on="0"/>
        <pt x="975" y="1893" on="1"/>
        <pt x="985" y="1866" on="0"/>
        <pt x="985" y="1795" on="0"/>
        <pt x="961" y="1719" on="0"/>
      </contour>
      <contour>
        <pt x="441" y="1664" on="0"/>
        <pt x="371" y="1632" on="0"/>
        <pt x="292" y="1632" on="0"/>
        <pt x="264" y="1646" on="1"/>
        <pt x="208" y="1677" on="0"/>
        <pt x="183" y="1738" on="1"/>
        <pt x="172" y="1766" on="0"/>
        <pt x="172" y="1837" on="0"/>
        <pt x="199" y="1911" on="0"/>
        <pt x="222" y="1938" on="1"/>
        <pt x="273" y="1995" on="0"/>
        <pt x="356" y="1995" on="1"/>
        <pt x="425" y="1995" on="0"/>
        <pt x="470" y="1944" on="1"/>
        <pt x="511" y="1898" on="0"/>
        <pt x="511" y="1796" on="0"/>
        <pt x="488" y="1719" on="0"/>
      </contour>
    </TTGlyph>
    <TTGlyph name="divide" xMin="224" yMin="143" xMax="1220" yMax="1422">
      <contour>
        <pt x="887" y="1086" on="0"/>
        <pt x="808" y="1055" on="0"/>
        <pt x="687" y="1055" on="0"/>
        <pt x="604" y="1140" on="0"/>
        <pt x="604" y="1249" on="0"/>
        <pt x="633" y="1327" on="0"/>
        <pt x="660" y="1356" on="1"/>
        <pt x="720" y="1422" on="0"/>
        <pt x="812" y="1422" on="1"/>
        <pt x="936" y="1422" on="0"/>
        <pt x="964" y="1330" on="1"/>
        <pt x="973" y="1303" on="0"/>
        <pt x="973" y="1224" on="0"/>
        <pt x="943" y="1143" on="0"/>
      </contour>
      <contour>
        <pt x="260" y="918" on="1"/>
        <pt x="1220" y="916" on="1"/>
        <pt x="1186" y="653" on="1"/>
        <pt x="224" y="653" on="1"/>
      </contour>
      <contour>
        <pt x="575" y="143" on="0"/>
        <pt x="492" y="228" on="0"/>
        <pt x="492" y="337" on="0"/>
        <pt x="521" y="415" on="0"/>
        <pt x="548" y="444" on="1"/>
        <pt x="608" y="510" on="0"/>
        <pt x="700" y="510" on="1"/>
        <pt x="824" y="510" on="0"/>
        <pt x="852" y="418" on="1"/>
        <pt x="861" y="391" on="0"/>
        <pt x="861" y="312" on="0"/>
        <pt x="831" y="231" on="0"/>
        <pt x="803" y="202" on="1"/>
        <pt x="745" y="143" on="0"/>
      </contour>
    </TTGlyph>
    <TTGlyph name="dollar" xMin="72" yMin="-275" xMax="1120" yMax="1793">
      <contour>
        <pt x="470" y="261" on="1"/>
        <pt x="685" y="261" on="0"/>
        <pt x="685" y="401" on="1"/>
        <pt x="685" y="467" on="0"/>
        <pt x="653" y="511" on="1"/>
        <pt x="603" y="579" on="0"/>
        <pt x="446" y="695" on="0"/>
        <pt x="352" y="783" on="0"/>
        <pt x="314" y="837" on="1"/>
        <pt x="224" y="963" on="0"/>
        <pt x="224" y="1102" on="1"/>
        <pt x="224" y="1263" on="0"/>
        <pt x="328" y="1377" on="1"/>
        <pt x="433" y="1490" on="0"/>
        <pt x="614" y="1529" on="1"/>
        <pt x="659" y="1793" on="1"/>
        <pt x="899" y="1793" on="1"/>
        <pt x="856" y="1542" on="1"/>
        <pt x="1020" y="1529" on="0"/>
        <pt x="1120" y="1461" on="1"/>
        <pt x="1012" y="1180" on="1"/>
        <pt x="956" y="1236" on="0"/>
        <pt x="818" y="1260" on="1"/>
        <pt x="777" y="1267" on="0"/>
        <pt x="740" y="1267" on="1"/>
        <pt x="648" y="1267" on="0"/>
        <pt x="553" y="1196" on="0"/>
        <pt x="553" y="1106" on="0"/>
        <pt x="576" y="1048" on="0"/>
        <pt x="625" y="989" on="0"/>
        <pt x="663" y="956" on="1"/>
        <pt x="754" y="882" on="1"/>
        <pt x="878" y="788" on="0"/>
        <pt x="931" y="722" on="1"/>
        <pt x="1042" y="584" on="0"/>
        <pt x="1042" y="445" on="1"/>
        <pt x="1042" y="159" on="0"/>
        <pt x="808" y="46" on="1"/>
        <pt x="732" y="10" on="0"/>
        <pt x="635" y="-5" on="1"/>
        <pt x="586" y="-275" on="1"/>
        <pt x="346" y="-275" on="1"/>
        <pt x="394" y="-10" on="1"/>
        <pt x="237" y="5" on="0"/>
        <pt x="119" y="54" on="1"/>
        <pt x="86" y="67" on="0"/>
        <pt x="72" y="78" on="1"/>
        <pt x="187" y="360" on="1"/>
        <pt x="274" y="295" on="0"/>
        <pt x="392" y="270" on="1"/>
        <pt x="432" y="261" on="0"/>
      </contour>
    </TTGlyph>
    <TTGlyph name="dotaccent" xMin="1" yMin="1313" xMax="388" yMax="1681">
      <contour>
        <pt x="264" y="1329" on="1"/>
        <pt x="224" y="1313" on="0"/>
        <pt x="136" y="1313" on="0"/>
        <pt x="105" y="1326" on="1"/>
        <pt x="43" y="1352" on="0"/>
        <pt x="14" y="1414" on="1"/>
        <pt x="1" y="1443" on="0"/>
        <pt x="1" y="1518" on="0"/>
        <pt x="33" y="1594" on="0"/>
        <pt x="60" y="1622" on="1"/>
        <pt x="120" y="1681" on="0"/>
        <pt x="211" y="1681" on="1"/>
        <pt x="289" y="1681" on="0"/>
        <pt x="340" y="1632" on="1"/>
        <pt x="388" y="1586" on="0"/>
        <pt x="388" y="1520" on="1"/>
        <pt x="388" y="1378" on="0"/>
      </contour>
    </TTGlyph>
    <TTGlyph name="dotaccent.cap" xMin="-4" yMin="1612" xMax="388" yMax="1975">
      <contour>
        <pt x="264" y="1628" on="1"/>
        <pt x="224" y="1612" on="0"/>
        <pt x="132" y="1612" on="0"/>
        <pt x="100" y="1625" on="1"/>
        <pt x="34" y="1652" on="0"/>
        <pt x="8" y="1714" on="1"/>
        <pt x="-4" y="1742" on="0"/>
        <pt x="-4" y="1818" on="0"/>
        <pt x="28" y="1891" on="0"/>
        <pt x="56" y="1918" on="1"/>
        <pt x="115" y="1975" on="0"/>
        <pt x="206" y="1975" on="1"/>
        <pt x="290" y="1975" on="0"/>
        <pt x="342" y="1927" on="1"/>
        <pt x="388" y="1883" on="0"/>
        <pt x="388" y="1819" on="1"/>
        <pt x="388" y="1678" on="0"/>
      </contour>
    </TTGlyph>
    <TTGlyph name="dotlessi" xMin="80" yMin="0" xMax="595" yMax="1140">
      <contour>
        <pt x="236" y="1140" on="1"/>
        <pt x="595" y="1140" on="1"/>
        <pt x="437" y="0" on="1"/>
        <pt x="80" y="0" on="1"/>
      </contour>
    </TTGlyph>
    <TTGlyph name="dotlessj" xMin="-274" yMin="-528" xMax="595" yMax="1140">
      <contour>
        <pt x="-186" y="-313" on="1"/>
        <pt x="-173" y="-322" on="0"/>
        <pt x="-81" y="-322" on="0"/>
        <pt x="2" y="-258" on="0"/>
        <pt x="26" y="-205" on="1"/>
        <pt x="61" y="-130" on="0"/>
        <pt x="89" y="65" on="1"/>
        <pt x="236" y="1140" on="1"/>
        <pt x="595" y="1140" on="1"/>
        <pt x="437" y="0" on="1"/>
        <pt x="402" y="-252" on="0"/>
        <pt x="248" y="-394" on="1"/>
        <pt x="103" y="-528" on="0"/>
        <pt x="-94" y="-528" on="1"/>
        <pt x="-228" y="-528" on="0"/>
        <pt x="-274" y="-494" on="1"/>
      </contour>
    </TTGlyph>
    <TTGlyph name="e" xMin="73" yMin="-16" xMax="1056" yMax="1156">
      <contour>
        <pt x="73" y="476" on="1"/>
        <pt x="73" y="598" on="0"/>
        <pt x="173" y="860" on="0"/>
        <pt x="260" y="955" on="1"/>
        <pt x="444" y="1156" on="0"/>
        <pt x="716" y="1156" on="1"/>
        <pt x="973" y="1156" on="0"/>
        <pt x="1036" y="1002" on="1"/>
        <pt x="1056" y="953" on="0"/>
        <pt x="1056" y="781" on="0"/>
        <pt x="960" y="617" on="0"/>
        <pt x="878" y="558" on="1"/>
        <pt x="733" y="454" on="0"/>
        <pt x="449" y="383" on="1"/>
        <pt x="449" y="304" on="0"/>
        <pt x="471" y="276" on="1"/>
        <pt x="510" y="226" on="0"/>
        <pt x="594" y="226" on="1"/>
        <pt x="682" y="226" on="0"/>
        <pt x="785" y="284" on="1"/>
        <pt x="876" y="334" on="0"/>
        <pt x="917" y="389" on="1"/>
        <pt x="1009" y="218" on="1"/>
        <pt x="953" y="136" on="0"/>
        <pt x="832" y="69" on="1"/>
        <pt x="680" y="-16" on="0"/>
        <pt x="506" y="-16" on="1"/>
        <pt x="288" y="-16" on="0"/>
        <pt x="174" y="124" on="1"/>
        <pt x="73" y="247" on="0"/>
      </contour>
      <contour>
        <pt x="444" y="561" on="1"/>
        <pt x="540" y="568" on="0"/>
        <pt x="622" y="652" on="1"/>
        <pt x="712" y="744" on="0"/>
        <pt x="712" y="859" on="1"/>
        <pt x="712" y="912" on="0"/>
        <pt x="677" y="960" on="0"/>
        <pt x="605" y="960" on="0"/>
        <pt x="552" y="920" on="0"/>
        <pt x="510" y="855" on="0"/>
        <pt x="478" y="771" on="0"/>
        <pt x="467" y="726" on="1"/>
        <pt x="446" y="643" on="0"/>
      </contour>
    </TTGlyph>
    <TTGlyph name="eacute" xMin="73" yMin="-16" xMax="1129" yMax="1774">
      <component glyphName="acute" x="567" y="0" flags="0x1004"/>
      <component glyphName="e" x="0" y="0" flags="0x1004"/>
    </TTGlyph>
    <TTGlyph name="ebreve" xMin="73" yMin="-16" xMax="1104" yMax="1681">
      <component glyphName="e" x="0" y="0" flags="0x1204"/>
      <component glyphName="breve" x="379" y="0" flags="0x1004"/>
    </TTGlyph>
    <TTGlyph name="ecaron" xMin="73" yMin="-16" xMax="1135" yMax="1670">
      <component glyphName="caron" x="337" y="0" flags="0x1004"/>
      <component glyphName="e" x="0" y="0" flags="0x1004"/>
    </TTGlyph>
    <TTGlyph name="ecircumflex" xMin="73" yMin="-16" xMax="1107" yMax="1670">
      <component glyphName="circumflex" x="309" y="0" flags="0x1004"/>
      <component glyphName="e" x="0" y="0" flags="0x1004"/>
    </TTGlyph>
    <TTGlyph name="edieresis" xMin="73" yMin="-16" xMax="1149" yMax="1701">
      <component glyphName="dieresis" x="343" y="0" flags="0x1004"/>
      <component glyphName="e" x="0" y="0" flags="0x1004"/>
    </TTGlyph>
    <TTGlyph name="edotaccent" xMin="73" yMin="-16" xMax="1056" yMax="1681">
      <component glyphName="e" x="0" y="0" flags="0x1204"/>
      <component glyphName="dotaccent" x="560" y="0" flags="0x1004"/>
    </TTGlyph>
    <TTGlyph name="egrave" xMin="73" yMin="-16" xMax="1056" yMax="1774">
      <component glyphName="e" x="0" y="0" flags="0x1204"/>
      <component glyphName="grave" x="286" y="0" flags="0x1004"/>
    </TTGlyph>
    <TTGlyph name="eight" xMin="126" yMin="-20" xMax="1289" yMax="1549">
      <contour>
        <pt x="497" y="770" on="1"/>
        <pt x="321" y="936" on="0"/>
        <pt x="321" y="1111" on="1"/>
        <pt x="321" y="1314" on="0"/>
        <pt x="460" y="1432" on="1"/>
        <pt x="598" y="1549" on="0"/>
        <pt x="827" y="1549" on="1"/>
        <pt x="1029" y="1549" on="0"/>
        <pt x="1158" y="1456" on="1"/>
        <pt x="1289" y="1361" on="0"/>
        <pt x="1289" y="1210" on="1"/>
        <pt x="1289" y="981" on="0"/>
        <pt x="1080" y="868" on="1"/>
        <pt x="1019" y="836" on="0"/>
        <pt x="955" y="813" on="1"/>
        <pt x="1073" y="721" on="0"/>
        <pt x="1122" y="653" on="1"/>
        <pt x="1214" y="523" on="0"/>
        <pt x="1214" y="303" on="0"/>
        <pt x="1127" y="146" on="0"/>
        <pt x="1050" y="92" on="1"/>
        <pt x="891" y="-20" on="0"/>
        <pt x="638" y="-20" on="1"/>
        <pt x="413" y="-20" on="0"/>
        <pt x="272" y="77" on="1"/>
        <pt x="126" y="177" on="0"/>
        <pt x="126" y="350" on="1"/>
        <pt x="126" y="589" on="0"/>
        <pt x="359" y="712" on="1"/>
        <pt x="426" y="748" on="0"/>
      </contour>
      <contour>
        <pt x="822" y="914" on="1"/>
        <pt x="979" y="1017" on="0"/>
        <pt x="979" y="1180" on="1"/>
        <pt x="979" y="1254" on="0"/>
        <pt x="926" y="1299" on="1"/>
        <pt x="878" y="1340" on="0"/>
        <pt x="771" y="1340" on="0"/>
        <pt x="710" y="1310" on="0"/>
        <pt x="690" y="1284" on="1"/>
        <pt x="649" y="1229" on="0"/>
        <pt x="649" y="1140" on="1"/>
        <pt x="649" y="1060" on="0"/>
        <pt x="754" y="970" on="1"/>
        <pt x="786" y="942" on="0"/>
      </contour>
      <contour>
        <pt x="623" y="665" on="1"/>
        <pt x="461" y="562" on="0"/>
        <pt x="461" y="398" on="1"/>
        <pt x="461" y="314" on="0"/>
        <pt x="530" y="253" on="1"/>
        <pt x="594" y="196" on="0"/>
        <pt x="764" y="196" on="0"/>
        <pt x="861" y="293" on="0"/>
        <pt x="861" y="374" on="1"/>
        <pt x="861" y="475" on="0"/>
        <pt x="712" y="594" on="1"/>
      </contour>
    </TTGlyph>
    <TTGlyph name="ellipsis" xMin="30" yMin="-29" xMax="1451" yMax="338">
      <contour>
        <pt x="1165" y="-29" on="0"/>
        <pt x="1082" y="56" on="0"/>
        <pt x="1082" y="165" on="0"/>
        <pt x="1111" y="243" on="0"/>
        <pt x="1138" y="272" on="1"/>
        <pt x="1198" y="338" on="0"/>
        <pt x="1290" y="338" on="1"/>
        <pt x="1414" y="338" on="0"/>
        <pt x="1442" y="246" on="1"/>
        <pt x="1451" y="219" on="0"/>
        <pt x="1451" y="140" on="0"/>
        <pt x="1421" y="59" on="0"/>
        <pt x="1393" y="30" on="1"/>
        <pt x="1335" y="-29" on="0"/>
      </contour>
      <contour>
        <pt x="639" y="-29" on="0"/>
        <pt x="556" y="56" on="0"/>
        <pt x="556" y="165" on="0"/>
        <pt x="585" y="243" on="0"/>
        <pt x="612" y="272" on="1"/>
        <pt x="672" y="338" on="0"/>
        <pt x="764" y="338" on="1"/>
        <pt x="888" y="338" on="0"/>
        <pt x="916" y="246" on="1"/>
        <pt x="925" y="219" on="0"/>
        <pt x="925" y="140" on="0"/>
        <pt x="895" y="59" on="0"/>
        <pt x="867" y="30" on="1"/>
        <pt x="809" y="-29" on="0"/>
      </contour>
      <contour>
        <pt x="113" y="-29" on="0"/>
        <pt x="30" y="56" on="0"/>
        <pt x="30" y="165" on="0"/>
        <pt x="59" y="243" on="0"/>
        <pt x="86" y="272" on="1"/>
        <pt x="146" y="338" on="0"/>
        <pt x="238" y="338" on="1"/>
        <pt x="362" y="338" on="0"/>
        <pt x="390" y="246" on="1"/>
        <pt x="399" y="219" on="0"/>
        <pt x="399" y="140" on="0"/>
        <pt x="369" y="59" on="0"/>
        <pt x="341" y="30" on="1"/>
        <pt x="283" y="-29" on="0"/>
      </contour>
    </TTGlyph>
    <TTGlyph name="emacron" xMin="73" yMin="-16" xMax="1056" yMax="1614">
      <component glyphName="e" x="0" y="0" flags="0x1204"/>
      <component glyphName="macron" x="410" y="0" flags="0x1004"/>
    </TTGlyph>
    <TTGlyph name="emdash" xMin="223" yMin="648" xMax="1832" yMax="896">
      <contour>
        <pt x="260" y="896" on="1"/>
        <pt x="1832" y="896" on="1"/>
        <pt x="1795" y="648" on="1"/>
        <pt x="223" y="648" on="1"/>
      </contour>
    </TTGlyph>
    <TTGlyph name="endash" xMin="223" yMin="648" xMax="1359" yMax="896">
      <contour>
        <pt x="260" y="896" on="1"/>
        <pt x="1359" y="896" on="1"/>
        <pt x="1322" y="648" on="1"/>
        <pt x="223" y="648" on="1"/>
      </contour>
    </TTGlyph>
    <TTGlyph name="eng" xMin="76" yMin="-528" xMax="1206" yMax="1156">
      <contour>
        <pt x="835" y="801" on="1"/>
        <pt x="835" y="887" on="0"/>
        <pt x="754" y="887" on="1"/>
        <pt x="667" y="887" on="0"/>
        <pt x="578" y="776" on="1"/>
        <pt x="551" y="741" on="0"/>
        <pt x="529" y="698" on="1"/>
        <pt x="433" y="0" on="1"/>
        <pt x="76" y="0" on="1"/>
        <pt x="232" y="1140" on="1"/>
        <pt x="573" y="1140" on="1"/>
        <pt x="560" y="934" on="1"/>
        <pt x="704" y="1156" on="0"/>
        <pt x="929" y="1156" on="1"/>
        <pt x="1206" y="1156" on="0"/>
        <pt x="1206" y="854" on="1"/>
        <pt x="1206" y="803" on="0"/>
        <pt x="1191" y="683" on="1"/>
        <pt x="1158" y="426" on="0"/>
        <pt x="1142" y="320" on="1"/>
        <pt x="1094" y="0" on="1"/>
        <pt x="1042" y="-312" on="0"/>
        <pt x="920" y="-426" on="1"/>
        <pt x="857" y="-485" on="0"/>
        <pt x="688" y="-528" on="0"/>
        <pt x="549" y="-528" on="0"/>
        <pt x="487" y="-523" on="0"/>
        <pt x="459" y="-518" on="1"/>
        <pt x="395" y="-508" on="0"/>
        <pt x="380" y="-491" on="1"/>
        <pt x="418" y="-370" on="1"/>
        <pt x="446" y="-382" on="0"/>
        <pt x="550" y="-382" on="0"/>
        <pt x="631" y="-334" on="0"/>
        <pt x="659" y="-286" on="1"/>
        <pt x="707" y="-204" on="0"/>
        <pt x="737" y="0" on="1"/>
        <pt x="835" y="692" on="0"/>
      </contour>
    </TTGlyph>
    <TTGlyph name="eogonek" xMin="73" yMin="-510" xMax="1056" yMax="1156">
      <contour>
        <pt x="817" y="-387" on="1"/>
        <pt x="698" y="-510" on="0"/>
        <pt x="488" y="-510" on="1"/>
        <pt x="394" y="-510" on="0"/>
        <pt x="333" y="-452" on="1"/>
        <pt x="275" y="-398" on="0"/>
        <pt x="275" y="-316" on="1"/>
        <pt x="275" y="-188" on="0"/>
        <pt x="438" y="-66" on="1"/>
        <pt x="481" y="-35" on="0"/>
        <pt x="518" y="-15" on="1"/>
        <pt x="506" y="-16" on="1"/>
        <pt x="288" y="-16" on="0"/>
        <pt x="174" y="124" on="1"/>
        <pt x="73" y="247" on="0"/>
        <pt x="73" y="598" on="0"/>
        <pt x="173" y="860" on="0"/>
        <pt x="260" y="955" on="1"/>
        <pt x="444" y="1156" on="0"/>
        <pt x="716" y="1156" on="1"/>
        <pt x="973" y="1156" on="0"/>
        <pt x="1036" y="1002" on="1"/>
        <pt x="1056" y="953" on="0"/>
        <pt x="1056" y="781" on="0"/>
        <pt x="960" y="617" on="0"/>
        <pt x="878" y="558" on="1"/>
        <pt x="733" y="454" on="0"/>
        <pt x="449" y="383" on="1"/>
        <pt x="449" y="304" on="0"/>
        <pt x="471" y="276" on="1"/>
        <pt x="510" y="226" on="0"/>
        <pt x="594" y="226" on="1"/>
        <pt x="682" y="226" on="0"/>
        <pt x="785" y="284" on="1"/>
        <pt x="876" y="334" on="0"/>
        <pt x="917" y="389" on="1"/>
        <pt x="1009" y="218" on="1"/>
        <pt x="951" y="133" on="0"/>
        <pt x="821" y="63" on="1"/>
        <pt x="726" y="6" on="0"/>
        <pt x="666" y="-53" on="1"/>
        <pt x="556" y="-160" on="0"/>
        <pt x="556" y="-205" on="1"/>
        <pt x="556" y="-277" on="0"/>
        <pt x="693" y="-277" on="0"/>
        <pt x="776" y="-212" on="1"/>
      </contour>
      <contour>
        <pt x="444" y="561" on="1"/>
        <pt x="540" y="568" on="0"/>
        <pt x="622" y="652" on="1"/>
        <pt x="712" y="744" on="0"/>
        <pt x="712" y="859" on="1"/>
        <pt x="712" y="912" on="0"/>
        <pt x="677" y="960" on="0"/>
        <pt x="605" y="960" on="0"/>
        <pt x="552" y="920" on="0"/>
        <pt x="510" y="855" on="0"/>
        <pt x="478" y="771" on="0"/>
        <pt x="467" y="726" on="1"/>
        <pt x="446" y="643" on="0"/>
      </contour>
    </TTGlyph>
    <TTGlyph name="equal" xMin="106" yMin="315" xMax="1038" yMax="1056">
      <contour>
        <pt x="198" y="1056" on="1"/>
        <pt x="1038" y="1056" on="1"/>
        <pt x="1001" y="808" on="1"/>
        <pt x="161" y="808" on="1"/>
      </contour>
      <contour>
        <pt x="143" y="563" on="1"/>
        <pt x="983" y="563" on="1"/>
        <pt x="946" y="315" on="1"/>
        <pt x="106" y="315" on="1"/>
      </contour>
    </TTGlyph>
    <TTGlyph name="estimated" xMin="125" yMin="-16" xMax="1316" yMax="1356">
      <contour>
        <pt x="1316" y="832" on="1"/>
        <pt x="1316" y="660" on="0"/>
        <pt x="1306" y="612" on="1"/>
        <pt x="500" y="612" on="1"/>
        <pt x="500" y="221" on="1"/>
        <pt x="603" y="147" on="0"/>
        <pt x="780" y="147" on="1"/>
        <pt x="952" y="147" on="0"/>
        <pt x="1099" y="224" on="1"/>
        <pt x="1139" y="245" on="0"/>
        <pt x="1166" y="266" on="1"/>
        <pt x="1239" y="115" on="1"/>
        <pt x="1118" y="31" on="0"/>
        <pt x="916" y="-4" on="1"/>
        <pt x="846" y="-16" on="0"/>
        <pt x="771" y="-16" on="1"/>
        <pt x="466" y="-16" on="0"/>
        <pt x="295" y="166" on="1"/>
        <pt x="125" y="348" on="0"/>
        <pt x="125" y="671" on="1"/>
        <pt x="125" y="977" on="0"/>
        <pt x="282" y="1158" on="1"/>
        <pt x="454" y="1356" on="0"/>
        <pt x="777" y="1356" on="1"/>
        <pt x="1001" y="1356" on="0"/>
        <pt x="1150" y="1219" on="1"/>
        <pt x="1308" y="1074" on="0"/>
      </contour>
      <contour>
        <pt x="954" y="1153" on="1"/>
        <pt x="874" y="1193" on="0"/>
        <pt x="595" y="1193" on="0"/>
        <pt x="500" y="1121" on="1"/>
        <pt x="500" y="768" on="1"/>
        <pt x="954" y="768" on="1"/>
      </contour>
    </TTGlyph>
    <TTGlyph name="eth" xMin="66" yMin="-16" xMax="1146" yMax="1821">
      <contour>
        <pt x="428" y="1814" on="1"/>
        <pt x="587" y="1774" on="0"/>
        <pt x="737" y="1668" on="1"/>
        <pt x="871" y="1821" on="1"/>
        <pt x="989" y="1706" on="1"/>
        <pt x="863" y="1566" on="1"/>
        <pt x="1008" y="1423" on="0"/>
        <pt x="1082" y="1206" on="1"/>
        <pt x="1146" y="1018" on="0"/>
        <pt x="1146" y="629" on="0"/>
        <pt x="1067" y="330" on="0"/>
        <pt x="988" y="220" on="1"/>
        <pt x="819" y="-16" on="0"/>
        <pt x="516" y="-16" on="1"/>
        <pt x="300" y="-16" on="0"/>
        <pt x="176" y="123" on="1"/>
        <pt x="66" y="245" on="0"/>
        <pt x="66" y="595" on="0"/>
        <pt x="145" y="867" on="0"/>
        <pt x="218" y="962" on="1"/>
        <pt x="367" y="1158" on="0"/>
        <pt x="621" y="1158" on="1"/>
        <pt x="751" y="1158" on="0"/>
        <pt x="802" y="1111" on="1"/>
        <pt x="796" y="1256" on="0"/>
        <pt x="704" y="1388" on="1"/>
        <pt x="602" y="1275" on="1"/>
        <pt x="476" y="1389" on="1"/>
        <pt x="595" y="1510" on="1"/>
        <pt x="496" y="1599" on="0"/>
        <pt x="368" y="1635" on="1"/>
      </contour>
      <contour>
        <pt x="481" y="218" on="0"/>
        <pt x="520" y="182" on="0"/>
        <pt x="583" y="182" on="0"/>
        <pt x="650" y="240" on="0"/>
        <pt x="677" y="290" on="1"/>
        <pt x="742" y="410" on="0"/>
        <pt x="765" y="649" on="1"/>
        <pt x="771" y="714" on="1"/>
        <pt x="774" y="747" on="0"/>
        <pt x="776" y="777" on="1"/>
        <pt x="780" y="832" on="1"/>
        <pt x="781" y="858" on="0"/>
        <pt x="781" y="889" on="0"/>
        <pt x="763" y="924" on="0"/>
        <pt x="744" y="940" on="1"/>
        <pt x="700" y="975" on="0"/>
        <pt x="606" y="975" on="0"/>
        <pt x="549" y="926" on="0"/>
        <pt x="505" y="842" on="0"/>
        <pt x="472" y="730" on="0"/>
        <pt x="462" y="668" on="1"/>
        <pt x="440" y="540" on="0"/>
        <pt x="440" y="363" on="0"/>
        <pt x="454" y="279" on="0"/>
      </contour>
    </TTGlyph>
    <TTGlyph name="exclam" xMin="95" yMin="-29" xMax="702" yMax="1778">
      <contour>
        <pt x="337" y="1778" on="1"/>
        <pt x="702" y="1778" on="1"/>
        <pt x="459" y="488" on="1"/>
        <pt x="201" y="488" on="1"/>
      </contour>
      <contour>
        <pt x="178" y="-29" on="0"/>
        <pt x="95" y="56" on="0"/>
        <pt x="95" y="165" on="0"/>
        <pt x="124" y="243" on="0"/>
        <pt x="151" y="272" on="1"/>
        <pt x="211" y="338" on="0"/>
        <pt x="303" y="338" on="1"/>
        <pt x="427" y="338" on="0"/>
        <pt x="456" y="246" on="1"/>
        <pt x="464" y="219" on="0"/>
        <pt x="464" y="140" on="0"/>
        <pt x="434" y="59" on="0"/>
        <pt x="406" y="30" on="1"/>
        <pt x="348" y="-29" on="0"/>
      </contour>
    </TTGlyph>
    <TTGlyph name="exclamdbl" xMin="95" yMin="-29" xMax="1320" yMax="1778">
      <component glyphName="exclam" x="618" y="0" flags="0x1004"/>
      <component glyphName="exclam" x="0" y="0" flags="0x1004"/>
    </TTGlyph>
    <TTGlyph name="exclamdown" xMin="18" yMin="-434" xMax="625" yMax="1373">
      <component glyphName="exclam" x="720" y="1344" scale="-0.999938964844" flags="0x1004"/>
    </TTGlyph>
    <TTGlyph name="f" xMin="110" yMin="0" xMax="955" yMax="1670">
      <contour>
        <pt x="237" y="924" on="1"/>
        <pt x="115" y="924" on="1"/>
        <pt x="156" y="1140" on="1"/>
        <pt x="267" y="1140" on="1"/>
        <pt x="286" y="1245" on="1"/>
        <pt x="312" y="1433" on="0"/>
        <pt x="443" y="1550" on="1"/>
        <pt x="576" y="1670" on="0"/>
        <pt x="776" y="1670" on="1"/>
        <pt x="892" y="1670" on="0"/>
        <pt x="955" y="1644" on="1"/>
        <pt x="893" y="1406" on="1"/>
        <pt x="845" y="1454" on="0"/>
        <pt x="768" y="1454" on="1"/>
        <pt x="719" y="1454" on="0"/>
        <pt x="697" y="1432" on="1"/>
        <pt x="655" y="1391" on="0"/>
        <pt x="638" y="1299" on="1"/>
        <pt x="610" y="1140" on="1"/>
        <pt x="799" y="1140" on="1"/>
        <pt x="772" y="924" on="1"/>
        <pt x="585" y="924" on="1"/>
        <pt x="472" y="96" on="1"/>
        <pt x="466" y="56" on="0"/>
        <pt x="463" y="36" on="1"/>
        <pt x="461" y="20" on="0"/>
        <pt x="458" y="0" on="1"/>
        <pt x="458" y="0" on="1"/>
        <pt x="110" y="0" on="1"/>
      </contour>
    </TTGlyph>
    <TTGlyph name="f_f" xMin="110" yMin="0" xMax="1720" yMax="1670">
      <component glyphName="f" x="0" y="0" flags="0x1004"/>
      <component glyphName="f" x="765" y="0" flags="0x1004"/>
    </TTGlyph>
    <TTGlyph name="f_f_i" xMin="110" yMin="0" xMax="2196" yMax="1681">
      <component glyphName="dotlessi" x="1530" y="0" flags="0x1004"/>
      <component glyphName="dotaccent" x="1808" y="0" flags="0x1004"/>
      <component glyphName="f" x="0" y="0" flags="0x1004"/>
      <component glyphName="f" x="765" y="0" flags="0x1004"/>
    </TTGlyph>
    <TTGlyph name="f_f_l" xMin="110" yMin="0" xMax="2192" yMax="1670">
      <component glyphName="l" x="1530" y="0" flags="0x1004"/>
      <component glyphName="f" x="0" y="0" flags="0x1004"/>
      <component glyphName="f" x="765" y="0" flags="0x1004"/>
    </TTGlyph>
    <TTGlyph name="f_i" xMin="110" yMin="0" xMax="1431" yMax="1681">
      <component glyphName="dotlessi" x="765" y="0" flags="0x1004"/>
      <component glyphName="dotaccent" x="1043" y="0" flags="0x1004"/>
      <component glyphName="f" x="0" y="0" flags="0x1004"/>
    </TTGlyph>
    <TTGlyph name="f_l" xMin="110" yMin="0" xMax="1427" yMax="1670">
      <component glyphName="l" x="765" y="0" flags="0x1004"/>
      <component glyphName="f" x="0" y="0" flags="0x1004"/>
    </TTGlyph>
    <TTGlyph name="ffi_dflt" xMin="110" yMin="0" xMax="2196" yMax="1681">
      <component glyphName="dotlessi" x="1530" y="0" flags="0x1004"/>
      <component glyphName="dotaccent" x="1808" y="0" flags="0x1004"/>
      <component glyphName="f" x="0" y="0" flags="0x1004"/>
      <component glyphName="f" x="765" y="0" flags="0x1004"/>
    </TTGlyph>
    <TTGlyph name="fi_trk" xMin="110" yMin="0" xMax="1431" yMax="1681">
      <component glyphName="dotlessi" x="765" y="0" flags="0x1004"/>
      <component glyphName="dotaccent" x="1043" y="0" flags="0x1004"/>
      <component glyphName="f" x="0" y="0" flags="0x1004"/>
    </TTGlyph>
    <TTGlyph name="five" xMin="34" yMin="-366" xMax="1080" yMax="1156">
      <contour>
        <pt x="71" y="-117" on="1"/>
        <pt x="106" y="-123" on="0"/>
        <pt x="199" y="-123" on="0"/>
        <pt x="312" y="-110" on="0"/>
        <pt x="426" y="-79" on="0"/>
        <pt x="531" y="-30" on="0"/>
        <pt x="572" y="6" on="1"/>
        <pt x="661" y="86" on="0"/>
        <pt x="661" y="201" on="1"/>
        <pt x="661" y="284" on="0"/>
        <pt x="630" y="317" on="1"/>
        <pt x="574" y="377" on="0"/>
        <pt x="461" y="377" on="1"/>
        <pt x="330" y="377" on="0"/>
        <pt x="235" y="324" on="1"/>
        <pt x="109" y="459" on="1"/>
        <pt x="263" y="1140" on="1"/>
        <pt x="850" y="1140" on="1"/>
        <pt x="872" y="1156" on="1"/>
        <pt x="1080" y="1156" on="1"/>
        <pt x="998" y="865" on="1"/>
        <pt x="530" y="865" on="1"/>
        <pt x="452" y="570" on="1"/>
        <pt x="534" y="605" on="0"/>
        <pt x="749" y="605" on="0"/>
        <pt x="888" y="566" on="0"/>
        <pt x="940" y="523" on="1"/>
        <pt x="1052" y="430" on="0"/>
        <pt x="1052" y="241" on="1"/>
        <pt x="1052" y="-43" on="0"/>
        <pt x="800" y="-208" on="1"/>
        <pt x="559" y="-366" on="0"/>
        <pt x="164" y="-366" on="1"/>
        <pt x="85" y="-366" on="0"/>
        <pt x="34" y="-349" on="1"/>
      </contour>
    </TTGlyph>
    <TTGlyph name="florin" xMin="162" yMin="-355" xMax="1055" yMax="1670">
      <contour>
        <pt x="993" y="1406" on="1"/>
        <pt x="945" y="1454" on="0"/>
        <pt x="878" y="1454" on="1"/>
        <pt x="822" y="1454" on="0"/>
        <pt x="797" y="1428" on="1"/>
        <pt x="756" y="1384" on="0"/>
        <pt x="738" y="1299" on="1"/>
        <pt x="712" y="1155" on="1"/>
        <pt x="901" y="1155" on="1"/>
        <pt x="877" y="939" on="1"/>
        <pt x="687" y="939" on="1"/>
        <pt x="514" y="-326" on="1"/>
        <pt x="510" y="-354" on="0"/>
        <pt x="510" y="-355" on="1"/>
        <pt x="162" y="-355" on="1"/>
        <pt x="339" y="939" on="1"/>
        <pt x="187" y="939" on="1"/>
        <pt x="208" y="1125" on="1"/>
        <pt x="369" y="1155" on="1"/>
        <pt x="386" y="1245" on="1"/>
        <pt x="412" y="1433" on="0"/>
        <pt x="543" y="1550" on="1"/>
        <pt x="676" y="1670" on="0"/>
        <pt x="876" y="1670" on="1"/>
        <pt x="992" y="1670" on="0"/>
        <pt x="1055" y="1644" on="1"/>
      </contour>
    </TTGlyph>
    <TTGlyph name="four" xMin="1" yMin="-375" xMax="1239" yMax="1256">
      <contour>
        <pt x="1" y="164" on="1"/>
        <pt x="1" y="164" on="0"/>
        <pt x="142" y="438" on="1"/>
        <pt x="426" y="984" on="1"/>
        <pt x="495" y="1121" on="0"/>
        <pt x="555" y="1256" on="1"/>
        <pt x="852" y="1256" on="1"/>
        <pt x="934" y="1167" on="1"/>
        <pt x="424" y="333" on="1"/>
        <pt x="345" y="222" on="1"/>
        <pt x="710" y="239" on="1"/>
        <pt x="762" y="614" on="1"/>
        <pt x="1085" y="649" on="1"/>
        <pt x="1038" y="247" on="1"/>
        <pt x="1239" y="261" on="1"/>
        <pt x="1202" y="0" on="1"/>
        <pt x="1002" y="0" on="1"/>
        <pt x="955" y="-375" on="1"/>
        <pt x="626" y="-375" on="1"/>
        <pt x="675" y="0" on="1"/>
        <pt x="79" y="0" on="1"/>
      </contour>
    </TTGlyph>
    <TTGlyph name="foursuperior" xMin="52" yMin="411" xMax="1136" yMax="1759">
      <contour>
        <pt x="52" y="832" on="1"/>
        <pt x="602" y="1758" on="1"/>
        <pt x="670" y="1759" on="1"/>
        <pt x="883" y="1655" on="1"/>
        <pt x="438" y="986" on="1"/>
        <pt x="372" y="900" on="1"/>
        <pt x="674" y="910" on="1"/>
        <pt x="709" y="1159" on="1"/>
        <pt x="976" y="1182" on="1"/>
        <pt x="944" y="920" on="1"/>
        <pt x="1136" y="927" on="1"/>
        <pt x="1112" y="704" on="1"/>
        <pt x="918" y="704" on="1"/>
        <pt x="883" y="411" on="1"/>
        <pt x="605" y="411" on="1"/>
        <pt x="645" y="704" on="1"/>
        <pt x="113" y="704" on="1"/>
      </contour>
    </TTGlyph>
    <TTGlyph name="fraction" xMin="79" yMin="0" xMax="1019" yMax="1530">
      <contour>
        <pt x="760" y="1530" on="1"/>
        <pt x="1019" y="1530" on="1"/>
        <pt x="338" y="0" on="1"/>
        <pt x="79" y="0" on="1"/>
      </contour>
    </TTGlyph>
    <TTGlyph name="g" xMin="70" yMin="-517" xMax="1208" yMax="1156">
      <contour>
        <pt x="773" y="1156" on="1"/>
        <pt x="891" y="1156" on="0"/>
        <pt x="1020" y="1111" on="1"/>
        <pt x="1208" y="1156" on="1"/>
        <pt x="1044" y="-29" on="1"/>
        <pt x="998" y="-375" on="0"/>
        <pt x="676" y="-478" on="1"/>
        <pt x="552" y="-517" on="0"/>
        <pt x="394" y="-517" on="1"/>
        <pt x="283" y="-517" on="0"/>
        <pt x="138" y="-479" on="0"/>
        <pt x="123" y="-472" on="1"/>
        <pt x="175" y="-217" on="1"/>
        <pt x="195" y="-237" on="0"/>
        <pt x="258" y="-261" on="1"/>
        <pt x="381" y="-308" on="0"/>
        <pt x="515" y="-308" on="0"/>
        <pt x="589" y="-277" on="0"/>
        <pt x="614" y="-249" on="1"/>
        <pt x="656" y="-202" on="0"/>
        <pt x="676" y="-97" on="1"/>
        <pt x="739" y="256" on="1"/>
        <pt x="687" y="141" on="0"/>
        <pt x="631" y="87" on="1"/>
        <pt x="521" y="-16" on="0"/>
        <pt x="311" y="-16" on="0"/>
        <pt x="183" y="53" on="0"/>
        <pt x="144" y="112" on="1"/>
        <pt x="70" y="220" on="0"/>
        <pt x="70" y="412" on="1"/>
        <pt x="70" y="712" on="0"/>
        <pt x="246" y="922" on="1"/>
        <pt x="441" y="1156" on="0"/>
      </contour>
      <contour>
        <pt x="822" y="941" on="1"/>
        <pt x="794" y="946" on="0"/>
        <pt x="697" y="946" on="0"/>
        <pt x="611" y="903" on="0"/>
        <pt x="543" y="830" on="0"/>
        <pt x="492" y="730" on="0"/>
        <pt x="476" y="673" on="1"/>
        <pt x="442" y="557" on="0"/>
        <pt x="442" y="433" on="1"/>
        <pt x="442" y="228" on="0"/>
        <pt x="531" y="228" on="1"/>
        <pt x="618" y="228" on="0"/>
        <pt x="717" y="446" on="1"/>
        <pt x="754" y="528" on="0"/>
        <pt x="776" y="607" on="1"/>
      </contour>
    </TTGlyph>
    <TTGlyph name="gbreve" xMin="70" yMin="-517" xMax="1208" yMax="1681">
      <component glyphName="g" x="0" y="0" flags="0x1204"/>
      <component glyphName="breve" x="462" y="0" flags="0x1004"/>
    </TTGlyph>
    <TTGlyph name="gcircumflex" xMin="70" yMin="-517" xMax="1208" yMax="1670">
      <component glyphName="circumflex" x="392" y="0" flags="0x1004"/>
      <component glyphName="g" x="0" y="0" flags="0x1004"/>
    </TTGlyph>
    <TTGlyph name="gcommaaccent" xMin="70" yMin="-517" xMax="1208" yMax="1772">
      <contour>
        <pt x="779" y="1249" on="1"/>
        <pt x="712" y="1263" on="0"/>
        <pt x="666" y="1323" on="1"/>
        <pt x="620" y="1382" on="0"/>
        <pt x="620" y="1525" on="0"/>
        <pt x="662" y="1633" on="0"/>
        <pt x="696" y="1674" on="1"/>
        <pt x="764" y="1757" on="0"/>
        <pt x="849" y="1772" on="1"/>
        <pt x="950" y="1702" on="1"/>
        <pt x="947" y="1676" on="1"/>
        <pt x="906" y="1653" on="0"/>
        <pt x="886" y="1596" on="1"/>
        <pt x="878" y="1574" on="0"/>
        <pt x="878" y="1528" on="0"/>
        <pt x="888" y="1493" on="0"/>
        <pt x="897" y="1479" on="1"/>
        <pt x="917" y="1448" on="0"/>
        <pt x="946" y="1446" on="1"/>
        <pt x="935" y="1353" on="1"/>
      </contour>
      <contour>
        <pt x="773" y="1156" on="1"/>
        <pt x="891" y="1156" on="0"/>
        <pt x="1020" y="1111" on="1"/>
        <pt x="1208" y="1156" on="1"/>
        <pt x="1044" y="-29" on="1"/>
        <pt x="998" y="-375" on="0"/>
        <pt x="676" y="-478" on="1"/>
        <pt x="552" y="-517" on="0"/>
        <pt x="394" y="-517" on="1"/>
        <pt x="283" y="-517" on="0"/>
        <pt x="138" y="-479" on="0"/>
        <pt x="123" y="-472" on="1"/>
        <pt x="175" y="-217" on="1"/>
        <pt x="195" y="-237" on="0"/>
        <pt x="258" y="-261" on="1"/>
        <pt x="381" y="-308" on="0"/>
        <pt x="515" y="-308" on="0"/>
        <pt x="589" y="-277" on="0"/>
        <pt x="614" y="-249" on="1"/>
        <pt x="656" y="-202" on="0"/>
        <pt x="676" y="-97" on="1"/>
        <pt x="739" y="256" on="1"/>
        <pt x="687" y="141" on="0"/>
        <pt x="631" y="87" on="1"/>
        <pt x="521" y="-16" on="0"/>
        <pt x="311" y="-16" on="0"/>
        <pt x="183" y="53" on="0"/>
        <pt x="144" y="112" on="1"/>
        <pt x="70" y="220" on="0"/>
        <pt x="70" y="412" on="1"/>
        <pt x="70" y="712" on="0"/>
        <pt x="246" y="922" on="1"/>
        <pt x="441" y="1156" on="0"/>
      </contour>
      <contour>
        <pt x="822" y="941" on="1"/>
        <pt x="794" y="946" on="0"/>
        <pt x="697" y="946" on="0"/>
        <pt x="611" y="903" on="0"/>
        <pt x="543" y="830" on="0"/>
        <pt x="492" y="730" on="0"/>
        <pt x="476" y="673" on="1"/>
        <pt x="442" y="557" on="0"/>
        <pt x="442" y="433" on="1"/>
        <pt x="442" y="228" on="0"/>
        <pt x="531" y="228" on="1"/>
        <pt x="618" y="228" on="0"/>
        <pt x="717" y="446" on="1"/>
        <pt x="754" y="528" on="0"/>
        <pt x="776" y="607" on="1"/>
      </contour>
    </TTGlyph>
    <TTGlyph name="gdotaccent" xMin="70" yMin="-517" xMax="1208" yMax="1681">
      <component glyphName="g" x="0" y="0" flags="0x1204"/>
      <component glyphName="dotaccent" x="643" y="0" flags="0x1004"/>
    </TTGlyph>
    <TTGlyph name="germandbls" xMin="65" yMin="-16" xMax="1284" yMax="1585">
      <contour>
        <pt x="754" y="226" on="1"/>
        <pt x="909" y="226" on="0"/>
        <pt x="909" y="345" on="1"/>
        <pt x="909" y="408" on="0"/>
        <pt x="839" y="486" on="1"/>
        <pt x="742" y="593" on="0"/>
        <pt x="703" y="714" on="1"/>
        <pt x="692" y="747" on="0"/>
        <pt x="692" y="816" on="0"/>
        <pt x="715" y="878" on="0"/>
        <pt x="734" y="906" on="1"/>
        <pt x="762" y="949" on="0"/>
        <pt x="822" y="1009" on="1"/>
        <pt x="956" y="1126" on="0"/>
        <pt x="956" y="1247" on="1"/>
        <pt x="956" y="1325" on="0"/>
        <pt x="878" y="1354" on="1"/>
        <pt x="853" y="1364" on="0"/>
        <pt x="773" y="1364" on="0"/>
        <pt x="682" y="1311" on="0"/>
        <pt x="644" y="1252" on="1"/>
        <pt x="560" y="1124" on="0"/>
        <pt x="530" y="867" on="1"/>
        <pt x="412" y="0" on="1"/>
        <pt x="65" y="0" on="1"/>
        <pt x="189" y="927" on="1"/>
        <pt x="249" y="1333" on="0"/>
        <pt x="466" y="1481" on="1"/>
        <pt x="585" y="1563" on="0"/>
        <pt x="737" y="1578" on="1"/>
        <pt x="807" y="1585" on="0"/>
        <pt x="964" y="1585" on="0"/>
        <pt x="1115" y="1545" on="0"/>
        <pt x="1170" y="1506" on="1"/>
        <pt x="1284" y="1426" on="0"/>
        <pt x="1284" y="1283" on="1"/>
        <pt x="1284" y="1103" on="0"/>
        <pt x="1166" y="996" on="1"/>
        <pt x="1108" y="944" on="1"/>
        <pt x="1047" y="884" on="0"/>
        <pt x="1047" y="829" on="1"/>
        <pt x="1047" y="779" on="0"/>
        <pt x="1108" y="681" on="0"/>
        <pt x="1156" y="617" on="0"/>
        <pt x="1201" y="550" on="0"/>
        <pt x="1218" y="512" on="1"/>
        <pt x="1258" y="425" on="0"/>
        <pt x="1258" y="247" on="0"/>
        <pt x="1196" y="117" on="0"/>
        <pt x="1139" y="73" on="1"/>
        <pt x="1024" y="-16" on="0"/>
        <pt x="634" y="-16" on="0"/>
        <pt x="545" y="31" on="1"/>
        <pt x="569" y="295" on="1"/>
        <pt x="611" y="250" on="0"/>
        <pt x="702" y="232" on="1"/>
        <pt x="730" y="226" on="0"/>
      </contour>
    </TTGlyph>
    <TTGlyph name="grave" xMin="-11" yMin="1226" xMax="532" yMax="1774">
      <contour>
        <pt x="408" y="1226" on="1"/>
        <pt x="327" y="1256" on="0"/>
        <pt x="166" y="1392" on="1"/>
        <pt x="19" y="1518" on="0"/>
        <pt x="-11" y="1574" on="1"/>
        <pt x="198" y="1774" on="1"/>
        <pt x="532" y="1325" on="1"/>
      </contour>
    </TTGlyph>
    <TTGlyph name="grave.cap" xMin="1" yMin="1550" xMax="490" yMax="2014">
      <contour>
        <pt x="347" y="1550" on="1"/>
        <pt x="231" y="1593" on="0"/>
        <pt x="92" y="1718" on="1"/>
        <pt x="26" y="1778" on="0"/>
        <pt x="1" y="1827" on="1"/>
        <pt x="211" y="2014" on="1"/>
        <pt x="490" y="1672" on="1"/>
      </contour>
    </TTGlyph>
    <TTGlyph name="greater" xMin="255" yMin="183" xMax="1300" yMax="1353">
      <component glyphName="less" x="1499" y="1533" scale="-0.999938964844" flags="0x1004"/>
    </TTGlyph>
    <TTGlyph name="greaterequal" xMin="163" yMin="0" xMax="1223" yMax="1255">
      <contour>
        <pt x="224" y="552" on="1"/>
        <pt x="727" y="750" on="1"/>
        <pt x="281" y="976" on="1"/>
        <pt x="312" y="1255" on="1"/>
        <pt x="1223" y="768" on="1"/>
        <pt x="1207" y="669" on="1"/>
        <pt x="188" y="251" on="1"/>
      </contour>
      <contour>
        <pt x="180" y="207" on="1"/>
        <pt x="1124" y="207" on="1"/>
        <pt x="1108" y="0" on="1"/>
        <pt x="163" y="0" on="1"/>
      </contour>
    </TTGlyph>
    <TTGlyph name="guillemotleft" xMin="174" yMin="132" xMax="1812" yMax="1116">
      <component glyphName="guilsinglleft" x="0" y="0" flags="0x1004"/>
      <component glyphName="guilsinglleft" x="806" y="0" flags="0x1004"/>
    </TTGlyph>
    <TTGlyph name="guillemotright" xMin="213" yMin="122" xMax="1851" yMax="1106">
      <component glyphName="guilsinglleft" x="1219" y="1238" scale="-0.999938964844" flags="0x1004"/>
      <component glyphName="guilsinglleft" x="2025" y="1238" scale="-0.999938964844" flags="0x1004"/>
    </TTGlyph>
    <TTGlyph name="guilsinglleft" xMin="174" yMin="132" xMax="1006" yMax="1116">
      <contour>
        <pt x="206" y="720" on="1"/>
        <pt x="948" y="1116" on="1"/>
        <pt x="1006" y="911" on="1"/>
        <pt x="576" y="605" on="1"/>
        <pt x="940" y="304" on="1"/>
        <pt x="830" y="132" on="1"/>
        <pt x="174" y="530" on="1"/>
      </contour>
    </TTGlyph>
    <TTGlyph name="guilsinglright" xMin="213" yMin="122" xMax="1045" yMax="1106">
      <component glyphName="guilsinglleft" x="1219" y="1238" scale="-0.999938964844" flags="0x1004"/>
    </TTGlyph>
    <TTGlyph name="h" xMin="78" yMin="0" xMax="1196" yMax="1634">
      <contour>
        <pt x="825" y="801" on="1"/>
        <pt x="825" y="887" on="0"/>
        <pt x="744" y="887" on="1"/>
        <pt x="657" y="887" on="0"/>
        <pt x="568" y="776" on="1"/>
        <pt x="541" y="741" on="0"/>
        <pt x="519" y="698" on="1"/>
        <pt x="425" y="0" on="1"/>
        <pt x="78" y="0" on="1"/>
        <pt x="298" y="1634" on="1"/>
        <pt x="646" y="1634" on="1"/>
        <pt x="571" y="1072" on="1"/>
        <pt x="542" y="921" on="1"/>
        <pt x="646" y="1090" on="0"/>
        <pt x="806" y="1140" on="1"/>
        <pt x="860" y="1156" on="0"/>
        <pt x="983" y="1156" on="0"/>
        <pt x="1086" y="1125" on="0"/>
        <pt x="1122" y="1089" on="1"/>
        <pt x="1196" y="1015" on="0"/>
        <pt x="1196" y="854" on="1"/>
        <pt x="1196" y="804" on="0"/>
        <pt x="1180" y="687" on="1"/>
        <pt x="1156" y="511" on="1"/>
        <pt x="1147" y="442" on="0"/>
        <pt x="1136" y="371" on="1"/>
        <pt x="1091" y="52" on="0"/>
        <pt x="1084" y="0" on="1"/>
        <pt x="727" y="0" on="1"/>
        <pt x="771" y="304" on="0"/>
        <pt x="780" y="374" on="1"/>
        <pt x="797" y="510" on="1"/>
        <pt x="825" y="737" on="0"/>
      </contour>
    </TTGlyph>
    <TTGlyph name="hbar" xMin="78" yMin="0" xMax="1196" yMax="1634">
      <contour>
        <pt x="825" y="801" on="1"/>
        <pt x="825" y="887" on="0"/>
        <pt x="744" y="887" on="1"/>
        <pt x="657" y="887" on="0"/>
        <pt x="568" y="776" on="1"/>
        <pt x="541" y="741" on="0"/>
        <pt x="519" y="698" on="1"/>
        <pt x="425" y="0" on="1"/>
        <pt x="78" y="0" on="1"/>
        <pt x="248" y="1262" on="1"/>
        <pt x="126" y="1262" on="1"/>
        <pt x="142" y="1392" on="1"/>
        <pt x="265" y="1392" on="1"/>
        <pt x="298" y="1634" on="1"/>
        <pt x="646" y="1634" on="1"/>
        <pt x="614" y="1392" on="1"/>
        <pt x="824" y="1392" on="1"/>
        <pt x="808" y="1262" on="1"/>
        <pt x="596" y="1262" on="1"/>
        <pt x="571" y="1072" on="1"/>
        <pt x="542" y="921" on="1"/>
        <pt x="646" y="1090" on="0"/>
        <pt x="806" y="1140" on="1"/>
        <pt x="860" y="1156" on="0"/>
        <pt x="983" y="1156" on="0"/>
        <pt x="1086" y="1125" on="0"/>
        <pt x="1122" y="1089" on="1"/>
        <pt x="1196" y="1015" on="0"/>
        <pt x="1196" y="854" on="1"/>
        <pt x="1196" y="804" on="0"/>
        <pt x="1180" y="687" on="1"/>
        <pt x="1156" y="511" on="1"/>
        <pt x="1147" y="442" on="0"/>
        <pt x="1136" y="371" on="1"/>
        <pt x="1091" y="52" on="0"/>
        <pt x="1084" y="0" on="1"/>
        <pt x="727" y="0" on="1"/>
        <pt x="771" y="304" on="0"/>
        <pt x="780" y="374" on="1"/>
        <pt x="797" y="510" on="1"/>
        <pt x="825" y="737" on="0"/>
      </contour>
    </TTGlyph>
    <TTGlyph name="hcircumflex" xMin="78" yMin="0" xMax="1264" yMax="1810">
      <contour>
        <pt x="825" y="801" on="1"/>
        <pt x="825" y="887" on="0"/>
        <pt x="744" y="887" on="1"/>
        <pt x="657" y="887" on="0"/>
        <pt x="568" y="776" on="1"/>
        <pt x="541" y="741" on="0"/>
        <pt x="519" y="698" on="1"/>
        <pt x="425" y="0" on="1"/>
        <pt x="78" y="0" on="1"/>
        <pt x="298" y="1634" on="1"/>
        <pt x="646" y="1634" on="1"/>
        <pt x="640" y="1593" on="1"/>
        <pt x="872" y="1810" on="1"/>
        <pt x="1052" y="1810" on="1"/>
        <pt x="1264" y="1473" on="1"/>
        <pt x="1119" y="1395" on="1"/>
        <pt x="936" y="1562" on="1"/>
        <pt x="649" y="1395" on="1"/>
        <pt x="616" y="1410" on="1"/>
        <pt x="571" y="1072" on="1"/>
        <pt x="542" y="921" on="1"/>
        <pt x="646" y="1090" on="0"/>
        <pt x="806" y="1140" on="1"/>
        <pt x="860" y="1156" on="0"/>
        <pt x="983" y="1156" on="0"/>
        <pt x="1086" y="1125" on="0"/>
        <pt x="1122" y="1089" on="1"/>
        <pt x="1196" y="1015" on="0"/>
        <pt x="1196" y="854" on="1"/>
        <pt x="1196" y="804" on="0"/>
        <pt x="1180" y="687" on="1"/>
        <pt x="1156" y="511" on="1"/>
        <pt x="1147" y="442" on="0"/>
        <pt x="1136" y="371" on="1"/>
        <pt x="1091" y="52" on="0"/>
        <pt x="1084" y="0" on="1"/>
        <pt x="727" y="0" on="1"/>
        <pt x="771" y="304" on="0"/>
        <pt x="780" y="374" on="1"/>
        <pt x="797" y="510" on="1"/>
        <pt x="825" y="737" on="0"/>
      </contour>
    </TTGlyph>
    <TTGlyph name="hungarumlaut" xMin="141" yMin="1223" xMax="1114" yMax="1753">
      <contour>
        <pt x="629" y="1306" on="1"/>
        <pt x="898" y="1753" on="1"/>
        <pt x="1114" y="1610" on="1"/>
        <pt x="1093" y="1533" on="0"/>
        <pt x="966" y="1394" on="1"/>
        <pt x="843" y="1262" on="0"/>
        <pt x="759" y="1223" on="1"/>
      </contour>
      <contour>
        <pt x="141" y="1306" on="1"/>
        <pt x="405" y="1753" on="1"/>
        <pt x="615" y="1616" on="1"/>
        <pt x="593" y="1536" on="0"/>
        <pt x="476" y="1399" on="1"/>
        <pt x="355" y="1259" on="0"/>
        <pt x="280" y="1223" on="1"/>
      </contour>
    </TTGlyph>
    <TTGlyph name="hungarumlaut.cap" xMin="-50" yMin="1559" xMax="909" yMax="2014">
      <contour>
        <pt x="444" y="1645" on="1"/>
        <pt x="729" y="2014" on="1"/>
        <pt x="909" y="1870" on="1"/>
        <pt x="854" y="1778" on="0"/>
        <pt x="782" y="1709" on="1"/>
        <pt x="652" y="1586" on="0"/>
        <pt x="562" y="1559" on="1"/>
      </contour>
      <contour>
        <pt x="-50" y="1645" on="1"/>
        <pt x="234" y="2014" on="1"/>
        <pt x="417" y="1871" on="1"/>
        <pt x="379" y="1787" on="0"/>
        <pt x="268" y="1686" on="1"/>
        <pt x="162" y="1588" on="0"/>
        <pt x="73" y="1559" on="1"/>
      </contour>
    </TTGlyph>
    <TTGlyph name="hyphen" xMin="223" yMin="648" xMax="1100" yMax="896">
      <contour>
        <pt x="260" y="896" on="1"/>
        <pt x="1100" y="896" on="1"/>
        <pt x="1063" y="648" on="1"/>
        <pt x="223" y="648" on="1"/>
      </contour>
    </TTGlyph>
    <TTGlyph name="i" xMin="80" yMin="0" xMax="671" yMax="1681">
      <component glyphName="dotlessi" x="0" y="0" flags="0x1204"/>
      <component glyphName="dotaccent" x="283" y="0" flags="0x1004"/>
    </TTGlyph>
    <TTGlyph name="i.cy" xMin="80" yMin="0" xMax="671" yMax="1681">
      <component glyphName="dotlessi" x="0" y="0" flags="0x1204"/>
      <component glyphName="dotaccent" x="283" y="0" flags="0x1004"/>
    </TTGlyph>
    <TTGlyph name="i.dot" xMin="80" yMin="0" xMax="671" yMax="1681">
      <component glyphName="dotlessi" x="0" y="0" flags="0x1204"/>
      <component glyphName="dotaccent" x="283" y="0" flags="0x1004"/>
    </TTGlyph>
    <TTGlyph name="i.uc" xMin="98" yMin="0" xMax="722" yMax="1975">
      <component glyphName="I" x="0" y="0" flags="0x1204"/>
      <component glyphName="dotaccent.cap" x="334" y="0" flags="0x1004"/>
    </TTGlyph>
    <TTGlyph name="iacute" xMin="80" yMin="0" xMax="858" yMax="1774">
      <component glyphName="acute" x="296" y="0" flags="0x1004"/>
      <component glyphName="dotlessi" x="0" y="0" flags="0x1004"/>
    </TTGlyph>
    <TTGlyph name="ibreve" xMin="80" yMin="0" xMax="833" yMax="1681">
      <component glyphName="dotlessi" x="0" y="0" flags="0x1204"/>
      <component glyphName="breve" x="108" y="0" flags="0x1004"/>
    </TTGlyph>
    <TTGlyph name="icircumflex" xMin="73" yMin="0" xMax="836" yMax="1670">
      <component glyphName="circumflex" x="38" y="0" flags="0x1004"/>
      <component glyphName="dotlessi" x="0" y="0" flags="0x1004"/>
    </TTGlyph>
    <TTGlyph name="idieresis" xMin="65" yMin="0" xMax="878" yMax="1701">
      <component glyphName="dieresis" x="72" y="0" flags="0x1004"/>
      <component glyphName="dotlessi" x="0" y="0" flags="0x1004"/>
    </TTGlyph>
    <TTGlyph name="igrave" xMin="4" yMin="0" xMax="595" yMax="1774">
      <component glyphName="dotlessi" x="0" y="0" flags="0x1204"/>
      <component glyphName="grave" x="15" y="0" flags="0x1004"/>
    </TTGlyph>
    <TTGlyph name="ij" xMin="80" yMin="-528" xMax="1352" yMax="1681">
      <component glyphName="dotlessj" x="665" y="0" flags="0x1004"/>
      <component glyphName="dotlessi" x="0" y="0" flags="0x1004"/>
      <component glyphName="dotaccent" x="278" y="0" flags="0x1004"/>
      <component glyphName="dotaccent" x="964" y="0" flags="0x1004"/>
    </TTGlyph>
    <TTGlyph name="imacron" xMin="80" yMin="0" xMax="760" yMax="1614">
      <component glyphName="dotlessi" x="0" y="0" flags="0x1204"/>
      <component glyphName="macron" x="139" y="0" flags="0x1004"/>
    </TTGlyph>
    <TTGlyph name="infinity" xMin="87" yMin="145" xMax="2041" yMax="1084">
      <contour>
        <pt x="1037" y="372" on="1"/>
        <pt x="845" y="150" on="0"/>
        <pt x="598" y="150" on="1"/>
        <pt x="352" y="150" on="0"/>
        <pt x="214" y="291" on="1"/>
        <pt x="87" y="421" on="0"/>
        <pt x="87" y="624" on="1"/>
        <pt x="87" y="822" on="0"/>
        <pt x="223" y="950" on="1"/>
        <pt x="366" y="1084" on="0"/>
        <pt x="597" y="1084" on="1"/>
        <pt x="910" y="1084" on="0"/>
        <pt x="1091" y="851" on="1"/>
        <pt x="1294" y="1079" on="0"/>
        <pt x="1531" y="1079" on="1"/>
        <pt x="1534" y="1079" on="0"/>
        <pt x="1538" y="1079" on="1"/>
        <pt x="1785" y="1079" on="0"/>
        <pt x="1920" y="941" on="1"/>
        <pt x="2041" y="817" on="0"/>
        <pt x="2041" y="613" on="1"/>
        <pt x="2041" y="413" on="0"/>
        <pt x="1905" y="282" on="1"/>
        <pt x="1762" y="145" on="0"/>
        <pt x="1529" y="145" on="1"/>
        <pt x="1207" y="145" on="0"/>
      </contour>
      <contour>
        <pt x="1215" y="670" on="1"/>
        <pt x="1361" y="400" on="0"/>
        <pt x="1530" y="400" on="1"/>
        <pt x="1620" y="400" on="0"/>
        <pt x="1674" y="460" on="1"/>
        <pt x="1730" y="522" on="0"/>
        <pt x="1730" y="625" on="1"/>
        <pt x="1730" y="767" on="0"/>
        <pt x="1595" y="815" on="1"/>
        <pt x="1550" y="831" on="0"/>
        <pt x="1486" y="831" on="1"/>
        <pt x="1343" y="831" on="0"/>
      </contour>
      <contour>
        <pt x="425" y="741" on="0"/>
        <pt x="396" y="663" on="0"/>
        <pt x="396" y="572" on="0"/>
        <pt x="425" y="494" on="0"/>
        <pt x="454" y="464" on="1"/>
        <pt x="518" y="398" on="0"/>
        <pt x="632" y="398" on="1"/>
        <pt x="778" y="398" on="0"/>
        <pt x="912" y="558" on="1"/>
        <pt x="815" y="738" on="0"/>
        <pt x="687" y="802" on="1"/>
        <pt x="641" y="825" on="0"/>
        <pt x="549" y="825" on="0"/>
        <pt x="477" y="796" on="0"/>
      </contour>
    </TTGlyph>
    <TTGlyph name="integral" xMin="106" yMin="-518" xMax="1027" yMax="1684">
      <contour>
        <pt x="209" y="-175" on="1"/>
        <pt x="245" y="-231" on="0"/>
        <pt x="354" y="-264" on="1"/>
        <pt x="387" y="-274" on="0"/>
        <pt x="477" y="-274" on="0"/>
        <pt x="515" y="-255" on="1"/>
        <pt x="613" y="-206" on="0"/>
        <pt x="613" y="-36" on="1"/>
        <pt x="613" y="177" on="0"/>
        <pt x="400" y="566" on="1"/>
        <pt x="278" y="790" on="0"/>
        <pt x="233" y="932" on="1"/>
        <pt x="188" y="1079" on="0"/>
        <pt x="188" y="1291" on="0"/>
        <pt x="244" y="1468" on="0"/>
        <pt x="307" y="1536" on="1"/>
        <pt x="443" y="1684" on="0"/>
        <pt x="701" y="1684" on="1"/>
        <pt x="867" y="1684" on="0"/>
        <pt x="974" y="1604" on="1"/>
        <pt x="1008" y="1578" on="0"/>
        <pt x="1027" y="1547" on="1"/>
        <pt x="896" y="1364" on="1"/>
        <pt x="875" y="1411" on="0"/>
        <pt x="782" y="1439" on="1"/>
        <pt x="752" y="1448" on="0"/>
        <pt x="720" y="1448" on="1"/>
        <pt x="614" y="1448" on="0"/>
        <pt x="509" y="1319" on="0"/>
        <pt x="509" y="1205" on="1"/>
        <pt x="509" y="1041" on="0"/>
        <pt x="621" y="808" on="1"/>
        <pt x="668" y="711" on="0"/>
        <pt x="777" y="514" on="0"/>
        <pt x="824" y="413" on="1"/>
        <pt x="936" y="169" on="0"/>
        <pt x="936" y="-9" on="1"/>
        <pt x="936" y="-219" on="0"/>
        <pt x="823" y="-356" on="1"/>
        <pt x="689" y="-518" on="0"/>
        <pt x="439" y="-518" on="1"/>
        <pt x="345" y="-518" on="0"/>
        <pt x="272" y="-490" on="1"/>
        <pt x="141" y="-441" on="0"/>
        <pt x="106" y="-387" on="1"/>
      </contour>
    </TTGlyph>
    <TTGlyph name="iogonek" xMin="-90" yMin="-510" xMax="723" yMax="1681">
      <contour>
        <pt x="600" y="1329" on="1"/>
        <pt x="559" y="1313" on="0"/>
        <pt x="471" y="1313" on="0"/>
        <pt x="440" y="1326" on="1"/>
        <pt x="378" y="1352" on="0"/>
        <pt x="349" y="1414" on="1"/>
        <pt x="336" y="1443" on="0"/>
        <pt x="336" y="1518" on="0"/>
        <pt x="368" y="1594" on="0"/>
        <pt x="396" y="1622" on="1"/>
        <pt x="455" y="1681" on="0"/>
        <pt x="546" y="1681" on="1"/>
        <pt x="624" y="1681" on="0"/>
        <pt x="676" y="1632" on="1"/>
        <pt x="723" y="1586" on="0"/>
        <pt x="723" y="1520" on="1"/>
        <pt x="723" y="1378" on="0"/>
      </contour>
      <contour>
        <pt x="452" y="-387" on="1"/>
        <pt x="333" y="-510" on="0"/>
        <pt x="123" y="-510" on="1"/>
        <pt x="29" y="-510" on="0"/>
        <pt x="-32" y="-452" on="1"/>
        <pt x="-90" y="-398" on="0"/>
        <pt x="-90" y="-262" on="0"/>
        <pt x="-31" y="-161" on="0"/>
        <pt x="12" y="-119" on="1"/>
        <pt x="93" y="-38" on="0"/>
        <pt x="185" y="0" on="1"/>
        <pt x="80" y="0" on="1"/>
        <pt x="236" y="1140" on="1"/>
        <pt x="595" y="1140" on="1"/>
        <pt x="437" y="0" on="1"/>
        <pt x="273" y="-68" on="0"/>
        <pt x="210" y="-154" on="1"/>
        <pt x="191" y="-181" on="0"/>
        <pt x="191" y="-205" on="1"/>
        <pt x="191" y="-277" on="0"/>
        <pt x="328" y="-277" on="0"/>
        <pt x="411" y="-212" on="1"/>
      </contour>
    </TTGlyph>
    <TTGlyph name="itilde" xMin="15" yMin="0" xMax="919" yMax="1698">
      <component glyphName="dotlessi" x="0" y="0" flags="0x1204"/>
      <component glyphName="tilde" x="59" y="0" flags="0x1004"/>
    </TTGlyph>
    <TTGlyph name="j" xMin="-273" yMin="-528" xMax="673" yMax="1681">
      <component glyphName="dotlessj" x="1" y="0" flags="0x1004"/>
      <component glyphName="dotaccent" x="285" y="0" flags="0x1004"/>
    </TTGlyph>
    <TTGlyph name="jcircumflex" xMin="-274" yMin="-528" xMax="832" yMax="1670">
      <component glyphName="dotlessj" x="0" y="0" flags="0x1204"/>
      <component glyphName="circumflex" x="34" y="0" flags="0x1004"/>
    </TTGlyph>
    <TTGlyph name="k" xMin="78" yMin="0" xMax="1221" yMax="1634">
      <contour>
        <pt x="298" y="1634" on="1"/>
        <pt x="647" y="1634" on="1"/>
        <pt x="426" y="0" on="1"/>
        <pt x="78" y="0" on="1"/>
      </contour>
      <contour>
        <pt x="543" y="630" on="1"/>
        <pt x="546" y="630" on="1"/>
        <pt x="543" y="631" on="1"/>
        <pt x="675" y="705" on="0"/>
        <pt x="757" y="862" on="1"/>
        <pt x="783" y="911" on="0"/>
        <pt x="805" y="960" on="1"/>
        <pt x="847" y="1056" on="0"/>
        <pt x="868" y="1140" on="1"/>
        <pt x="1221" y="1140" on="1"/>
        <pt x="1215" y="995" on="0"/>
        <pt x="1118" y="852" on="1"/>
        <pt x="1018" y="701" on="0"/>
        <pt x="875" y="622" on="1"/>
        <pt x="1199" y="0" on="1"/>
        <pt x="791" y="0" on="1"/>
      </contour>
    </TTGlyph>
    <TTGlyph name="kcommaaccent" xMin="78" yMin="-560" xMax="1221" yMax="1634">
      <component glyphName="commaaccent" x="444" y="0" flags="0x1004"/>
      <component glyphName="k" x="0" y="0" flags="0x1004"/>
    </TTGlyph>
    <TTGlyph name="kgreenlandic" xMin="76" yMin="0" xMax="1219" yMax="1140">
      <contour>
        <pt x="543" y="630" on="1"/>
        <pt x="546" y="630" on="1"/>
        <pt x="543" y="631" on="1"/>
        <pt x="675" y="705" on="0"/>
        <pt x="756" y="862" on="1"/>
        <pt x="781" y="911" on="0"/>
        <pt x="803" y="960" on="1"/>
        <pt x="845" y="1056" on="0"/>
        <pt x="866" y="1140" on="1"/>
        <pt x="1219" y="1140" on="1"/>
        <pt x="1210" y="936" on="0"/>
        <pt x="1039" y="753" on="1"/>
        <pt x="961" y="670" on="0"/>
        <pt x="875" y="622" on="1"/>
        <pt x="1196" y="0" on="1"/>
        <pt x="811" y="0" on="1"/>
      </contour>
      <contour>
        <pt x="231" y="1140" on="1"/>
        <pt x="588" y="1140" on="1"/>
        <pt x="433" y="0" on="1"/>
        <pt x="76" y="0" on="1"/>
      </contour>
    </TTGlyph>
    <TTGlyph name="l" xMin="83" yMin="0" xMax="662" yMax="1634">
      <contour>
        <pt x="303" y="1634" on="1"/>
        <pt x="662" y="1634" on="1"/>
        <pt x="440" y="0" on="1"/>
        <pt x="83" y="0" on="1"/>
      </contour>
    </TTGlyph>
    <TTGlyph name="lacute" xMin="83" yMin="0" xMax="823" yMax="2014">
      <contour>
        <pt x="289" y="1530" on="1"/>
        <pt x="648" y="1530" on="1"/>
        <pt x="440" y="0" on="1"/>
        <pt x="83" y="0" on="1"/>
      </contour>
      <contour>
        <pt x="334" y="1672" on="1"/>
        <pt x="613" y="2014" on="1"/>
        <pt x="823" y="1827" on="1"/>
        <pt x="773" y="1732" on="0"/>
        <pt x="598" y="1616" on="1"/>
        <pt x="528" y="1569" on="0"/>
        <pt x="477" y="1550" on="1"/>
      </contour>
    </TTGlyph>
    <TTGlyph name="lcaron" xMin="84" yMin="2" xMax="1061" yMax="1653">
      <component glyphName="l" x="1" y="2" flags="0x1004"/>
      <component glyphName="caronvertical" x="563" y="-29" flags="0x1004"/>
    </TTGlyph>
    <TTGlyph name="lcommaaccent" xMin="50" yMin="-560" xMax="662" yMax="1634">
      <component glyphName="commaaccent" x="39" y="0" flags="0x1004"/>
      <component glyphName="l" x="0" y="0" flags="0x1004"/>
    </TTGlyph>
    <TTGlyph name="ldot" xMin="83" yMin="0" xMax="1003" yMax="1634">
      <component glyphName="l" x="0" y="0" flags="0x1004"/>
      <component glyphName="period" x="604" y="653" flags="0x1004"/>
    </TTGlyph>
    <TTGlyph name="less" xMin="199" yMin="180" xMax="1244" yMax="1350">
      <contour>
        <pt x="215" y="830" on="1"/>
        <pt x="1244" y="1350" on="1"/>
        <pt x="1207" y="1039" on="1"/>
        <pt x="585" y="753" on="1"/>
        <pt x="1133" y="463" on="1"/>
        <pt x="1107" y="180" on="1"/>
        <pt x="199" y="700" on="1"/>
      </contour>
    </TTGlyph>
    <TTGlyph name="lessequal" xMin="153" yMin="0" xMax="1229" yMax="1228">
      <contour>
        <pt x="212" y="782" on="1"/>
        <pt x="1229" y="1228" on="1"/>
        <pt x="1190" y="939" on="1"/>
        <pt x="677" y="733" on="1"/>
        <pt x="1145" y="522" on="1"/>
        <pt x="1115" y="251" on="1"/>
        <pt x="207" y="703" on="1"/>
      </contour>
      <contour>
        <pt x="170" y="207" on="1"/>
        <pt x="1114" y="207" on="1"/>
        <pt x="1098" y="0" on="1"/>
        <pt x="153" y="0" on="1"/>
      </contour>
    </TTGlyph>
    <TTGlyph name="logicalnot" xMin="202" yMin="322" xMax="1188" yMax="853">
      <contour>
        <pt x="228" y="853" on="1"/>
        <pt x="1188" y="853" on="1"/>
        <pt x="1126" y="322" on="1"/>
        <pt x="869" y="322" on="1"/>
        <pt x="905" y="626" on="1"/>
        <pt x="202" y="626" on="1"/>
      </contour>
    </TTGlyph>
    <TTGlyph name="lozenge" xMin="85" yMin="-2" xMax="1319" yMax="1549">
      <contour>
        <pt x="85" y="768" on="1"/>
        <pt x="85" y="781" on="1"/>
        <pt x="700" y="1549" on="1"/>
        <pt x="704" y="1549" on="1"/>
        <pt x="1319" y="781" on="1"/>
        <pt x="1319" y="768" on="1"/>
        <pt x="704" y="-2" on="1"/>
        <pt x="699" y="-2" on="1"/>
      </contour>
      <contour>
        <pt x="703" y="415" on="1"/>
        <pt x="976" y="773" on="1"/>
        <pt x="976" y="776" on="1"/>
        <pt x="703" y="1116" on="1"/>
        <pt x="700" y="1116" on="1"/>
        <pt x="428" y="776" on="1"/>
        <pt x="428" y="771" on="1"/>
        <pt x="700" y="415" on="1"/>
      </contour>
    </TTGlyph>
    <TTGlyph name="lslash" xMin="8" yMin="0" xMax="758" yMax="1634">
      <contour>
        <pt x="177" y="700" on="1"/>
        <pt x="8" y="633" on="1"/>
        <pt x="8" y="830" on="1"/>
        <pt x="206" y="911" on="1"/>
        <pt x="303" y="1634" on="1"/>
        <pt x="662" y="1634" on="1"/>
        <pt x="585" y="1066" on="1"/>
        <pt x="758" y="1137" on="1"/>
        <pt x="758" y="930" on="1"/>
        <pt x="555" y="849" on="1"/>
        <pt x="440" y="0" on="1"/>
        <pt x="83" y="0" on="1"/>
      </contour>
    </TTGlyph>
    <TTGlyph name="m" xMin="76" yMin="0" xMax="1852" yMax="1156">
      <contour>
        <pt x="835" y="801" on="1"/>
        <pt x="835" y="887" on="0"/>
        <pt x="754" y="887" on="1"/>
        <pt x="669" y="887" on="0"/>
        <pt x="580" y="780" on="1"/>
        <pt x="553" y="746" on="0"/>
        <pt x="531" y="705" on="1"/>
        <pt x="433" y="0" on="1"/>
        <pt x="76" y="0" on="1"/>
        <pt x="232" y="1140" on="1"/>
        <pt x="576" y="1140" on="1"/>
        <pt x="561" y="936" on="1"/>
        <pt x="709" y="1156" on="0"/>
        <pt x="1173" y="1156" on="0"/>
        <pt x="1202" y="926" on="1"/>
        <pt x="1352" y="1156" on="0"/>
        <pt x="1584" y="1156" on="1"/>
        <pt x="1852" y="1156" on="0"/>
        <pt x="1852" y="854" on="1"/>
        <pt x="1852" y="805" on="0"/>
        <pt x="1836" y="687" on="1"/>
        <pt x="1786" y="321" on="0"/>
        <pt x="1775" y="243" on="1"/>
        <pt x="1749" y="65" on="0"/>
        <pt x="1740" y="0" on="1"/>
        <pt x="1384" y="0" on="1"/>
        <pt x="1436" y="376" on="1"/>
        <pt x="1445" y="445" on="0"/>
        <pt x="1454" y="522" on="1"/>
        <pt x="1472" y="668" on="1"/>
        <pt x="1482" y="760" on="0"/>
        <pt x="1482" y="801" on="1"/>
        <pt x="1482" y="887" on="0"/>
        <pt x="1401" y="887" on="1"/>
        <pt x="1348" y="887" on="0"/>
        <pt x="1236" y="794" on="0"/>
        <pt x="1193" y="716" on="1"/>
        <pt x="1188" y="672" on="0"/>
        <pt x="1181" y="620" on="1"/>
        <pt x="1166" y="511" on="1"/>
        <pt x="1157" y="442" on="0"/>
        <pt x="1146" y="371" on="1"/>
        <pt x="1101" y="52" on="0"/>
        <pt x="1094" y="0" on="1"/>
        <pt x="737" y="0" on="1"/>
        <pt x="781" y="304" on="0"/>
        <pt x="790" y="374" on="1"/>
        <pt x="807" y="510" on="1"/>
        <pt x="835" y="737" on="0"/>
      </contour>
    </TTGlyph>
    <TTGlyph name="macron" xMin="26" yMin="1405" xMax="621" yMax="1614">
      <contour>
        <pt x="44" y="1614" on="1"/>
        <pt x="621" y="1614" on="1"/>
        <pt x="603" y="1405" on="1"/>
        <pt x="26" y="1405" on="1"/>
      </contour>
    </TTGlyph>
    <TTGlyph name="macron.cap" xMin="36" yMin="1707" xMax="633" yMax="1916">
      <contour>
        <pt x="56" y="1916" on="1"/>
        <pt x="633" y="1916" on="1"/>
        <pt x="613" y="1707" on="1"/>
        <pt x="36" y="1707" on="1"/>
      </contour>
    </TTGlyph>
    <TTGlyph name="minus" xMin="223" yMin="648" xMax="1100" yMax="896">
      <contour>
        <pt x="260" y="896" on="1"/>
        <pt x="1100" y="896" on="1"/>
        <pt x="1063" y="648" on="1"/>
        <pt x="223" y="648" on="1"/>
      </contour>
    </TTGlyph>
    <TTGlyph name="minute" xMin="225" yMin="1190" xMax="654" yMax="1782">
      <contour>
        <pt x="349" y="1782" on="1"/>
        <pt x="654" y="1782" on="1"/>
        <pt x="463" y="1190" on="1"/>
        <pt x="225" y="1190" on="1"/>
      </contour>
    </TTGlyph>
    <TTGlyph name="mu" xMin="51" yMin="-372" xMax="1360" yMax="1156">
      <contour>
        <pt x="521" y="378" on="1"/>
        <pt x="521" y="241" on="0"/>
        <pt x="626" y="241" on="1"/>
        <pt x="673" y="241" on="0"/>
        <pt x="714" y="275" on="1"/>
        <pt x="793" y="341" on="0"/>
        <pt x="802" y="413" on="1"/>
        <pt x="896" y="1140" on="1"/>
        <pt x="1248" y="1140" on="1"/>
        <pt x="1139" y="278" on="1"/>
        <pt x="1134" y="239" on="0"/>
        <pt x="1156" y="195" on="0"/>
        <pt x="1186" y="195" on="0"/>
        <pt x="1217" y="208" on="0"/>
        <pt x="1232" y="218" on="1"/>
        <pt x="1263" y="239" on="0"/>
        <pt x="1282" y="266" on="1"/>
        <pt x="1360" y="133" on="1"/>
        <pt x="1310" y="84" on="1"/>
        <pt x="1204" y="-18" on="0"/>
        <pt x="1044" y="-18" on="1"/>
        <pt x="962" y="-18" on="0"/>
        <pt x="926" y="4" on="1"/>
        <pt x="863" y="43" on="0"/>
        <pt x="848" y="122" on="1"/>
        <pt x="765" y="-16" on="0"/>
        <pt x="627" y="-16" on="1"/>
        <pt x="543" y="-16" on="0"/>
        <pt x="486" y="21" on="1"/>
        <pt x="463" y="36" on="0"/>
        <pt x="450" y="60" on="1"/>
        <pt x="386" y="-372" on="1"/>
        <pt x="51" y="-372" on="1"/>
        <pt x="216" y="801" on="1"/>
        <pt x="226" y="872" on="0"/>
        <pt x="204" y="901" on="1"/>
        <pt x="197" y="910" on="0"/>
        <pt x="187" y="910" on="1"/>
        <pt x="146" y="910" on="0"/>
        <pt x="100" y="864" on="1"/>
        <pt x="52" y="1029" on="1"/>
        <pt x="115" y="1092" on="0"/>
        <pt x="266" y="1139" on="1"/>
        <pt x="321" y="1156" on="0"/>
        <pt x="426" y="1156" on="0"/>
        <pt x="467" y="1144" on="1"/>
        <pt x="591" y="1110" on="0"/>
        <pt x="591" y="984" on="1"/>
        <pt x="591" y="970" on="0"/>
        <pt x="589" y="954" on="1"/>
        <pt x="525" y="435" on="1"/>
        <pt x="521" y="403" on="0"/>
      </contour>
    </TTGlyph>
    <TTGlyph name="multiply" xMin="166" yMin="247" xMax="1290" yMax="1312">
      <contour>
        <pt x="166" y="454" on="1"/>
        <pt x="551" y="790" on="1"/>
        <pt x="238" y="1127" on="1"/>
        <pt x="447" y="1312" on="1"/>
        <pt x="738" y="951" on="1"/>
        <pt x="1117" y="1312" on="1"/>
        <pt x="1290" y="1105" on="1"/>
        <pt x="897" y="769" on="1"/>
        <pt x="1218" y="432" on="1"/>
        <pt x="1009" y="247" on="1"/>
        <pt x="710" y="608" on="1"/>
        <pt x="339" y="248" on="1"/>
      </contour>
    </TTGlyph>
    <TTGlyph name="n" xMin="76" yMin="0" xMax="1206" yMax="1156">
      <contour>
        <pt x="835" y="801" on="1"/>
        <pt x="835" y="887" on="0"/>
        <pt x="754" y="887" on="1"/>
        <pt x="667" y="887" on="0"/>
        <pt x="578" y="776" on="1"/>
        <pt x="551" y="741" on="0"/>
        <pt x="529" y="698" on="1"/>
        <pt x="433" y="0" on="1"/>
        <pt x="76" y="0" on="1"/>
        <pt x="232" y="1140" on="1"/>
        <pt x="573" y="1140" on="1"/>
        <pt x="560" y="934" on="1"/>
        <pt x="704" y="1156" on="0"/>
        <pt x="929" y="1156" on="1"/>
        <pt x="1206" y="1156" on="0"/>
        <pt x="1206" y="854" on="1"/>
        <pt x="1206" y="804" on="0"/>
        <pt x="1190" y="687" on="1"/>
        <pt x="1166" y="511" on="1"/>
        <pt x="1157" y="442" on="0"/>
        <pt x="1146" y="371" on="1"/>
        <pt x="1101" y="52" on="0"/>
        <pt x="1094" y="0" on="1"/>
        <pt x="737" y="0" on="1"/>
        <pt x="781" y="304" on="0"/>
        <pt x="790" y="374" on="1"/>
        <pt x="807" y="510" on="1"/>
        <pt x="835" y="737" on="0"/>
      </contour>
    </TTGlyph>
    <TTGlyph name="nacute" xMin="76" yMin="0" xMax="1262" yMax="1774">
      <component glyphName="acute" x="700" y="0" flags="0x1004"/>
      <component glyphName="n" x="0" y="0" flags="0x1004"/>
    </TTGlyph>
    <TTGlyph name="ncaron" xMin="76" yMin="0" xMax="1268" yMax="1670">
      <component glyphName="caron" x="470" y="0" flags="0x1004"/>
      <component glyphName="n" x="0" y="0" flags="0x1004"/>
    </TTGlyph>
    <TTGlyph name="ncommaaccent" xMin="76" yMin="-560" xMax="1206" yMax="1156">
      <component glyphName="commaaccent" x="399" y="0" flags="0x1004"/>
      <component glyphName="n" x="0" y="0" flags="0x1004"/>
    </TTGlyph>
    <TTGlyph name="nine" xMin="101" yMin="-485" xMax="1186" yMax="1156">
      <contour>
        <pt x="744" y="160" on="1"/>
        <pt x="638" y="103" on="0"/>
        <pt x="400" y="103" on="0"/>
        <pt x="254" y="174" on="0"/>
        <pt x="204" y="234" on="1"/>
        <pt x="101" y="356" on="0"/>
        <pt x="101" y="533" on="1"/>
        <pt x="101" y="782" on="0"/>
        <pt x="236" y="954" on="1"/>
        <pt x="394" y="1156" on="0"/>
        <pt x="696" y="1156" on="1"/>
        <pt x="944" y="1156" on="0"/>
        <pt x="1071" y="1003" on="1"/>
        <pt x="1186" y="865" on="0"/>
        <pt x="1186" y="627" on="1"/>
        <pt x="1186" y="382" on="0"/>
        <pt x="1070" y="148" on="1"/>
        <pt x="956" y="-81" on="0"/>
        <pt x="752" y="-248" on="1"/>
        <pt x="540" y="-423" on="0"/>
        <pt x="281" y="-485" on="1"/>
        <pt x="202" y="-274" on="1"/>
        <pt x="464" y="-189" on="0"/>
        <pt x="662" y="38" on="1"/>
        <pt x="730" y="116" on="0"/>
      </contour>
      <contour>
        <pt x="614" y="349" on="1"/>
        <pt x="716" y="349" on="0"/>
        <pt x="792" y="396" on="1"/>
        <pt x="813" y="408" on="0"/>
        <pt x="823" y="420" on="1"/>
        <pt x="858" y="530" on="0"/>
        <pt x="858" y="688" on="0"/>
        <pt x="827" y="802" on="0"/>
        <pt x="800" y="840" on="1"/>
        <pt x="747" y="918" on="0"/>
        <pt x="601" y="918" on="0"/>
        <pt x="513" y="846" on="0"/>
        <pt x="486" y="793" on="1"/>
        <pt x="436" y="695" on="0"/>
        <pt x="436" y="566" on="1"/>
        <pt x="436" y="457" on="0"/>
        <pt x="490" y="400" on="1"/>
        <pt x="536" y="349" on="0"/>
      </contour>
    </TTGlyph>
    <TTGlyph name="nonbreakingspace" xMin="0" yMin="0" xMax="0" yMax="0">
      <component glyphName="space" x="-14" y="0" flags="0x1204"/>
    </TTGlyph>
    <TTGlyph name="notequal" xMin="106" yMin="0" xMax="1038" yMax="1350">
      <contour>
        <pt x="281" y="315" on="1"/>
        <pt x="106" y="315" on="1"/>
        <pt x="143" y="563" on="1"/>
        <pt x="396" y="563" on="1"/>
        <pt x="509" y="808" on="1"/>
        <pt x="161" y="808" on="1"/>
        <pt x="198" y="1056" on="1"/>
        <pt x="623" y="1056" on="1"/>
        <pt x="759" y="1350" on="1"/>
        <pt x="982" y="1350" on="1"/>
        <pt x="846" y="1056" on="1"/>
        <pt x="1038" y="1056" on="1"/>
        <pt x="1001" y="808" on="1"/>
        <pt x="731" y="808" on="1"/>
        <pt x="618" y="563" on="1"/>
        <pt x="983" y="563" on="1"/>
        <pt x="946" y="315" on="1"/>
        <pt x="503" y="315" on="1"/>
        <pt x="358" y="0" on="1"/>
        <pt x="136" y="0" on="1"/>
      </contour>
    </TTGlyph>
    <TTGlyph name="ntilde" xMin="76" yMin="0" xMax="1323" yMax="1698">
      <component glyphName="n" x="0" y="0" flags="0x1204"/>
      <component glyphName="tilde" x="463" y="0" flags="0x1004"/>
    </TTGlyph>
    <TTGlyph name="numbersign" xMin="108" yMin="0" xMax="1312" yMax="1357">
      <contour>
        <pt x="282" y="321" on="1"/>
        <pt x="108" y="321" on="1"/>
        <pt x="128" y="549" on="1"/>
        <pt x="314" y="549" on="1"/>
        <pt x="364" y="850" on="1"/>
        <pt x="184" y="850" on="1"/>
        <pt x="203" y="1071" on="1"/>
        <pt x="395" y="1071" on="1"/>
        <pt x="442" y="1357" on="1"/>
        <pt x="687" y="1357" on="1"/>
        <pt x="642" y="1071" on="1"/>
        <pt x="873" y="1071" on="1"/>
        <pt x="923" y="1357" on="1"/>
        <pt x="1168" y="1357" on="1"/>
        <pt x="1120" y="1071" on="1"/>
        <pt x="1312" y="1071" on="1"/>
        <pt x="1293" y="850" on="1"/>
        <pt x="1089" y="850" on="1"/>
        <pt x="1038" y="549" on="1"/>
        <pt x="1225" y="549" on="1"/>
        <pt x="1205" y="321" on="1"/>
        <pt x="1006" y="321" on="1"/>
        <pt x="952" y="0" on="1"/>
        <pt x="712" y="0" on="1"/>
        <pt x="760" y="321" on="1"/>
        <pt x="528" y="321" on="1"/>
        <pt x="469" y="0" on="1"/>
        <pt x="227" y="0" on="1"/>
      </contour>
      <contour>
        <pt x="792" y="549" on="1"/>
        <pt x="842" y="850" on="1"/>
        <pt x="611" y="850" on="1"/>
        <pt x="560" y="549" on="1"/>
      </contour>
    </TTGlyph>
</ttFont>
